<svg xmlns="http://www.w3.org/2000/svg" xmlns:xlink="http://www.w3.org/1999/xlink" width="160" height="42.949" viewBox="0 0 160 42.949">
  <defs>
    <linearGradient id="linear-gradient" x1="0.12" y1="0.092" x2="1.278" y2="1.696" gradientUnits="objectBoundingBox">
      <stop offset="0" stop-color="#0d192e"/>
      <stop offset="0.113" stop-color="#2d2f6a" stop-opacity="0.757"/>
      <stop offset="0.232" stop-color="#4b43a1" stop-opacity="0.502"/>
      <stop offset="0.335" stop-color="#6152ca" stop-opacity="0.278"/>
      <stop offset="0.415" stop-color="#6f5be3" stop-opacity="0.106"/>
      <stop offset="0.465" stop-color="#745eec" stop-opacity="0"/>
    </linearGradient>
    <radialGradient id="radial-gradient" cx="0.231" cy="-0.102" r="1.342" gradientTransform="translate(0.132) scale(0.736 1)" gradientUnits="objectBoundingBox">
      <stop offset="0" stop-color="#0d192e"/>
      <stop offset="0.194" stop-color="#2b2d66" stop-opacity="0.773"/>
      <stop offset="0.417" stop-color="#4a429f" stop-opacity="0.51"/>
      <stop offset="0.609" stop-color="#6151c9" stop-opacity="0.282"/>
      <stop offset="0.759" stop-color="#6f5be2" stop-opacity="0.106"/>
      <stop offset="0.849" stop-color="#745eec" stop-opacity="0"/>
    </radialGradient>
  </defs>
  <g id="Labels" transform="translate(-0.3 -0.1)">
    <path id="Path_24" data-name="Path 24" d="M23.944,21.519a11.971,11.971,0,0,0-3.449-8.4,11.832,11.832,0,0,0-4.618-2.837l5.4-5.4a.605.605,0,0,0,0-.834h0L17.491.267h0a.605.605,0,0,0-.834,0L3.749,13.174A11.737,11.737,0,0,0,.3,21.574a11.971,11.971,0,0,0,3.449,8.4L16.6,42.882a.605.605,0,0,0,.834,0h0L21.218,39.1h0a.605.605,0,0,0,0-.834l-5.4-5.4a11.832,11.832,0,0,0,4.618-2.837A12.144,12.144,0,0,0,23.944,21.519Zm-8.122,3.727a5.272,5.272,0,0,1-7.455,0,5.364,5.364,0,0,1-1.558-3.727,5.285,5.285,0,0,1,9.013-3.727,5.364,5.364,0,0,1,1.558,3.727A5.511,5.511,0,0,1,15.822,25.246Z" fill="#fff"/>
    <path id="Path_25" data-name="Path 25" d="M22.255,25.91a5.364,5.364,0,0,1,1.558,3.727h6.565a11.971,11.971,0,0,0-3.449-8.4A11.832,11.832,0,0,0,22.31,18.4L14.8,25.91A5.272,5.272,0,0,1,22.255,25.91Z" transform="translate(-6.433 -8.119)" fill="url(#linear-gradient)"/>
    <path id="Path_26" data-name="Path 26" d="M18.894,56.9a11.981,11.981,0,0,1-3.783.612A11.713,11.713,0,0,1,7.1,54.4c2.058,2.058,12.517,12.573,12.517,12.573a.605.605,0,0,0,.834,0h0l3.783-3.783h0a.6.6,0,0,0,0-.834Z" transform="translate(-3.017 -24.091)" fill="url(#radial-gradient)"/>
    <path id="Path_27" data-name="Path 27" d="M210.361,51.511a.2.2,0,0,1-.167.056h-3.616a.306.306,0,0,1-.278-.167.422.422,0,0,0,.223.111Z" transform="translate(-91.396 -22.76)" fill="none"/>
    <path id="Path_28" data-name="Path 28" d="M204.8,26.278V40.019c0,.111-.056.223-.167.223h-3.783a.289.289,0,0,1-.223-.111.2.2,0,0,1-.056-.167V38.74a4.5,4.5,0,0,1-3.783,2,2.282,2.282,0,0,1-.612-.056,4.469,4.469,0,0,1-3-1.613A5.2,5.2,0,0,1,192,35.736v-9.4a.312.312,0,0,1,.278-.334h3.616a.263.263,0,0,1,.278.278v7.677c.056,1.613.5,2.726,1.947,2.726,1.558,0,2.448-1.391,2.448-3.282V26.278a.306.306,0,0,1,.167-.278h3.839A.37.37,0,0,1,204.8,26.278Z" transform="translate(-85.052 -11.491)" fill="#fff"/>
    <path id="Path_29" data-name="Path 29" d="M177.043,32.622a7.622,7.622,0,1,0-15.243,0V44.36a.38.38,0,0,0,.389.389h3.449a.38.38,0,0,0,.389-.389v-4.9a7.652,7.652,0,0,0,11.015-6.843Zm-4.228,0a3.394,3.394,0,1,1-3.394-3.394A3.372,3.372,0,0,1,172.815,32.622Z" transform="translate(-71.653 -11.047)" fill="#fff"/>
    <path id="Path_30" data-name="Path 30" d="M275.743,32.622a7.622,7.622,0,0,0-15.243,0V44.36a.38.38,0,0,0,.389.389h3.449a.38.38,0,0,0,.389-.389v-4.9a7.652,7.652,0,0,0,11.015-6.843Zm-4.284,0a3.394,3.394,0,1,1-3.394-3.394A3.372,3.372,0,0,1,271.46,32.622Z" transform="translate(-115.443 -11.047)" fill="#fff"/>
    <path id="Path_31" data-name="Path 31" d="M238.839,26.969a4.371,4.371,0,0,0-3-1.613c-.167,0-.389-.056-.612-.056a4.575,4.575,0,0,0-3.783,2l-.5.612a5.512,5.512,0,0,0-.612-.946,4.371,4.371,0,0,0-3-1.613c-.167,0-.389-.056-.612-.056a4.575,4.575,0,0,0-3.783,2V26.079a.2.2,0,0,0-.056-.167.422.422,0,0,0-.223-.111h-3.783a.3.3,0,0,0-.167.223V39.765a.37.37,0,0,0,.223.278h3.839a.306.306,0,0,0,.167-.278V32.532c0-1.892.834-3.282,2.448-3.282,1.446,0,1.891,1.113,1.947,2.726v7.677a.263.263,0,0,0,.278.278h3.616a.312.312,0,0,0,.278-.334V31.7c.223-1.446,1.057-2.448,2.392-2.448,1.446,0,1.891,1.113,1.947,2.726v7.677a.263.263,0,0,0,.278.278h3.616a.312.312,0,0,0,.278-.334V30.307A5.089,5.089,0,0,0,238.839,26.969Z" transform="translate(-96.898 -11.181)" fill="#fff"/>
    <path id="Path_32" data-name="Path 32" d="M147.087,31.623a7.633,7.633,0,1,0-.834,4.451c.056-.167,0-.334-.167-.334h-4.451a.791.791,0,0,0-.334.111,2.874,2.874,0,0,1-1.78.612,3.382,3.382,0,0,1-3-2.058.245.245,0,0,1,.223-.334h10.07c.111,0,.223-.056.223-.167A10.344,10.344,0,0,0,147.087,31.623Zm-4.729-.556h-5.675c-.167,0-.278-.167-.223-.278a3.4,3.4,0,0,1,3-2.17,3.344,3.344,0,0,1,3,2.17C142.581,30.956,142.47,31.067,142.358,31.067Z" transform="translate(-58.387 -10.995)" fill="#fff"/>
    <path id="Path_33" data-name="Path 33" d="M98.794,29H95.178a.263.263,0,0,0-.278.278V41.295a.263.263,0,0,0,.278.278h3.616a.263.263,0,0,0,.278-.278V29.278A.263.263,0,0,0,98.794,29Z" transform="translate(-41.971 -12.822)" fill="#fff"/>
    <circle id="Ellipse_1" data-name="Ellipse 1" cx="2.503" cy="2.503" r="2.503" transform="translate(52.428 9.446)" fill="#fff"/>
    <path id="Path_34" data-name="Path 34" d="M72.122,21.262a7.611,7.611,0,0,0-3.394.779V17.089a.38.38,0,0,0-.389-.389H64.889a.38.38,0,0,0-.389.389V28.828a7.622,7.622,0,1,0,7.622-7.566Zm0,11.015a3.394,3.394,0,1,1,3.394-3.394A3.372,3.372,0,0,1,72.122,32.277Z" transform="translate(-28.484 -7.365)" fill="#fff"/>
    <path id="Path_35" data-name="Path 35" d="M121.365,35.66,116.3,28.705l4.618-6.342a.291.291,0,0,0-.223-.445h-4.339a.687.687,0,0,0-.445.223l-4.84,6.732V17.078a.263.263,0,0,0-.278-.278h-3.616a.263.263,0,0,0-.278.278v18.8a.263.263,0,0,0,.278.278h3.616a.289.289,0,0,0,.223-.111L113.8,32.21l2.726,3.727a.4.4,0,0,0,.334.167h4.284C121.365,36.216,121.531,35.882,121.365,35.66Z" transform="translate(-47.295 -7.409)" fill="#fff"/>
  </g>
</svg>
