<svg xmlns="http://www.w3.org/2000/svg" width="338" height="56" viewBox="0 0 338 56">
  <g id="Group_3756" data-name="Group 3756" transform="translate(-84 -697)">
    <rect id="Rectangle_733" data-name="Rectangle 733" width="338" height="56" rx="7" transform="translate(84 697)"/>
    <g id="AppStore-Badge-Black" transform="translate(162.425 697.582)">
      <g id="Group_3" data-name="Group 3" transform="translate(1.076 1.078)">
        <g id="_Group_" data-name="&lt;Group&gt;" transform="translate(11.505 12.389)">
          <g id="_Group_2" data-name="&lt;Group&gt;">
            <g id="_Group_3" data-name="&lt;Group&gt;">
              <path id="_Path_" data-name="&lt;Path&gt;" d="M28.682,21.974a6.258,6.258,0,0,1,2.98-5.25A6.405,6.405,0,0,0,26.615,14c-2.123-.223-4.182,1.271-5.264,1.271-1.1,0-2.769-1.248-4.563-1.212A6.721,6.721,0,0,0,11.133,17.5c-2.445,4.234-.621,10.456,1.721,13.879,1.172,1.676,2.542,3.548,4.334,3.481,1.754-.073,2.409-1.118,4.526-1.118,2.1,0,2.712,1.118,4.541,1.076,1.882-.031,3.068-1.683,4.2-3.375a13.861,13.861,0,0,0,1.92-3.91,6.047,6.047,0,0,1-3.691-5.563Z" transform="translate(-9.972 -7.331)" fill="#fff"/>
              <path id="_Path_2" data-name="&lt;Path&gt;" d="M22.9,13.134A6.161,6.161,0,0,0,24.305,8.72a6.268,6.268,0,0,0-4.056,2.1,5.862,5.862,0,0,0-1.446,4.25A5.183,5.183,0,0,0,22.9,13.134Z" transform="translate(-7.639 -8.72)" fill="#fff"/>
            </g>
          </g>
          <g id="Group_2" data-name="Group 2" transform="translate(43.821 11.571)">
            <path id="Path_3" data-name="Path 3" d="M44.385,29.536H38.4L36.962,33.78H34.427l5.669-15.7H42.73L48.4,33.78H45.821ZM39.02,27.578h4.744L41.425,20.69H41.36Z" transform="translate(-34.427 -17.816)" fill="#fff"/>
            <path id="Path_4" data-name="Path 4" d="M57.415,27.192c0,3.558-1.9,5.843-4.778,5.843a3.881,3.881,0,0,1-3.6-2h-.054V36.7h-2.35V21.468h2.275v1.9h.043a4.061,4.061,0,0,1,3.645-2.024C55.5,21.348,57.415,23.645,57.415,27.192Zm-2.415,0c0-2.318-1.2-3.842-3.025-3.842-1.8,0-3,1.556-3,3.842,0,2.307,1.208,3.851,3,3.851C53.8,31.044,55,29.531,55,27.192Z" transform="translate(-31.2 -16.952)" fill="#fff"/>
            <path id="Path_5" data-name="Path 5" d="M67.38,27.192c0,3.558-1.9,5.843-4.778,5.843a3.881,3.881,0,0,1-3.6-2h-.054V36.7H56.6V21.468h2.275v1.9h.043a4.061,4.061,0,0,1,3.645-2.024C65.465,21.348,67.38,23.645,67.38,27.192Zm-2.415,0c0-2.318-1.2-3.842-3.025-3.842-1.8,0-3,1.556-3,3.842,0,2.307,1.208,3.851,3,3.851,1.828,0,3.025-1.513,3.025-3.851Z" transform="translate(-28.565 -16.952)" fill="#fff"/>
            <path id="Path_6" data-name="Path 6" d="M72.214,29.46c.174,1.557,1.687,2.579,3.754,2.579,1.981,0,3.406-1.022,3.406-2.426,0-1.219-.859-1.949-2.894-2.449l-2.035-.49c-2.883-.7-4.222-2.045-4.222-4.233,0-2.709,2.361-4.57,5.714-4.57,3.318,0,5.593,1.861,5.669,4.57H79.232c-.142-1.567-1.437-2.513-3.33-2.513s-3.188.957-3.188,2.35c0,1.11.827,1.763,2.851,2.263l1.73.425c3.222.762,4.56,2.056,4.56,4.353,0,2.938-2.34,4.778-6.062,4.778-3.482,0-5.833-1.8-5.985-4.637Z" transform="translate(-25.071 -17.871)" fill="#fff"/>
            <path id="Path_7" data-name="Path 7" d="M84.188,19.3v2.709h2.177V23.87H84.188v6.311c0,.98.436,1.437,1.393,1.437a7.342,7.342,0,0,0,.773-.054v1.85a6.454,6.454,0,0,1-1.305.109c-2.318,0-3.222-.871-3.222-3.091V23.87H80.163V22.009h1.665V19.3Z" transform="translate(-22.332 -17.493)" fill="#fff"/>
            <path id="Path_8" data-name="Path 8" d="M86.065,27.2c0-3.6,2.121-5.865,5.43-5.865s5.431,2.263,5.431,5.865-2.1,5.865-5.431,5.865S86.065,30.808,86.065,27.2Zm8.466,0c0-2.471-1.132-3.929-3.036-3.929s-3.035,1.469-3.035,3.929c0,2.481,1.131,3.928,3.035,3.928s3.036-1.447,3.036-3.928Z" transform="translate(-20.771 -16.956)" fill="#fff"/>
            <path id="Path_9" data-name="Path 9" d="M96.186,21.468h2.241v1.949h.054a2.73,2.73,0,0,1,2.754-2.068,3.624,3.624,0,0,1,.805.088v2.2a3.285,3.285,0,0,0-1.056-.142,2.368,2.368,0,0,0-2.449,2.634v6.79h-2.35Z" transform="translate(-18.095 -16.952)" fill="#fff"/>
            <path id="Path_10" data-name="Path 10" d="M111.544,29.557c-.316,2.078-2.34,3.5-4.929,3.5-3.33,0-5.4-2.231-5.4-5.811s2.078-5.92,5.3-5.92c3.167,0,5.159,2.176,5.159,5.647v.805h-8.086v.142a2.982,2.982,0,0,0,3.08,3.243,2.59,2.59,0,0,0,2.644-1.61ZM103.6,26.141h5.723a2.753,2.753,0,0,0-2.808-2.906,2.9,2.9,0,0,0-2.915,2.906Z" transform="translate(-16.764 -16.956)" fill="#fff"/>
          </g>
        </g>
      </g>
      <g id="_Group_4" data-name="&lt;Group&gt;" transform="translate(57.973 11.721)">
        <g id="Group_4" data-name="Group 4">
          <path id="Path_11" data-name="Path 11" d="M38.4,8.733a3.338,3.338,0,0,1,3.55,3.749c0,2.41-1.3,3.8-3.55,3.8H35.671V8.733Zm-1.553,6.478h1.423A2.372,2.372,0,0,0,40.753,12.5a2.378,2.378,0,0,0-2.488-2.7H36.843Z" transform="translate(-35.671 -8.361)" fill="#fff"/>
          <path id="Path_12" data-name="Path 12" d="M41.683,13.062a2.7,2.7,0,1,1,5.37,0,2.7,2.7,0,1,1-5.37,0Zm4.214,0c0-1.234-.554-1.956-1.527-1.956s-1.526.722-1.526,1.956.55,1.96,1.526,1.96S45.9,14.3,45.9,13.062Z" transform="translate(-34.084 -7.995)" fill="#fff"/>
          <path id="Path_13" data-name="Path 13" d="M52.9,15.889H51.731L50.554,11.7h-.089l-1.172,4.193H48.139l-1.569-5.694h1.14l1.02,4.345h.084l1.171-4.345h1.078l1.171,4.345h.089l1.015-4.345H54.46Z" transform="translate(-32.789 -7.972)" fill="#fff"/>
          <path id="Path_14" data-name="Path 14" d="M53.854,10.219h1.082v.9h.084a1.7,1.7,0,0,1,1.7-1.014,1.852,1.852,0,0,1,1.971,2.118v3.686H57.565v-3.4c0-.915-.4-1.37-1.229-1.37a1.306,1.306,0,0,0-1.36,1.443v3.331H53.854Z" transform="translate(-30.862 -7.996)" fill="#fff"/>
          <path id="Path_15" data-name="Path 15" d="M59.094,8.437h1.124v7.916H59.094Z" transform="translate(-29.476 -8.437)" fill="#fff"/>
          <path id="Path_16" data-name="Path 16" d="M61.22,13.062a2.7,2.7,0,1,1,5.371,0,2.7,2.7,0,1,1-5.371,0Zm4.214,0c0-1.234-.554-1.956-1.527-1.956s-1.526.722-1.526,1.956.549,1.96,1.526,1.96S65.435,14.3,65.435,13.062Z" transform="translate(-28.917 -7.995)" fill="#fff"/>
          <path id="Path_17" data-name="Path 17" d="M66.4,14.3c0-1.025.763-1.616,2.118-1.7l1.542-.089v-.491c0-.6-.4-.941-1.166-.941-.627,0-1.062.23-1.187.633H66.621c.115-.978,1.035-1.605,2.326-1.605,1.427,0,2.233.711,2.233,1.913v3.89H70.1v-.8h-.089a1.916,1.916,0,0,1-1.71.894,1.72,1.72,0,0,1-1.9-1.7Zm3.66-.487v-.476l-1.39.089c-.784.052-1.14.319-1.14.821s.445.811,1.056.811a1.342,1.342,0,0,0,1.474-1.245Z" transform="translate(-27.544 -7.995)" fill="#fff"/>
          <path id="Path_18" data-name="Path 18" d="M71.348,13.5c0-1.8.925-2.939,2.363-2.939a1.876,1.876,0,0,1,1.746,1h.084V8.437h1.124v7.916H75.589v-.9H75.5a1.976,1.976,0,0,1-1.788.993C72.263,16.447,71.348,15.308,71.348,13.5Zm1.161,0c0,1.208.569,1.934,1.521,1.934s1.532-.737,1.532-1.929-.591-1.934-1.532-1.934-1.521.732-1.521,1.929Z" transform="translate(-26.236 -8.437)" fill="#fff"/>
          <path id="Path_19" data-name="Path 19" d="M79.233,13.062a2.7,2.7,0,1,1,5.37,0,2.7,2.7,0,1,1-5.37,0Zm4.214,0c0-1.234-.554-1.956-1.527-1.956s-1.526.722-1.526,1.956.549,1.96,1.526,1.96S83.447,14.3,83.447,13.062Z" transform="translate(-24.154 -7.995)" fill="#fff"/>
          <path id="Path_20" data-name="Path 20" d="M84.669,10.219h1.082v.9h.084a1.7,1.7,0,0,1,1.7-1.014A1.852,1.852,0,0,1,89.5,12.227v3.686H88.381v-3.4c0-.915-.4-1.37-1.229-1.37a1.306,1.306,0,0,0-1.36,1.443v3.331H84.669Z" transform="translate(-22.713 -7.996)" fill="#fff"/>
          <path id="Path_21" data-name="Path 21" d="M93.94,9.074v1.444h1.234v.946H93.94v2.928c0,.6.246.858.805.858a3.751,3.751,0,0,0,.428-.026v.936a3.686,3.686,0,0,1-.611.057c-1.25,0-1.747-.44-1.747-1.537V11.464h-.9v-.946h.9V9.074Z" transform="translate(-20.798 -8.269)" fill="#fff"/>
          <path id="Path_22" data-name="Path 22" d="M95.7,8.437h1.114v3.138h.089a1.752,1.752,0,0,1,1.736-1.02,1.876,1.876,0,0,1,1.961,2.123v3.676H99.48v-3.4c0-.909-.424-1.37-1.218-1.37a1.33,1.33,0,0,0-1.434,1.444v3.325H95.7Z" transform="translate(-19.794 -8.437)" fill="#fff"/>
          <path id="Path_23" data-name="Path 23" d="M105.832,14.374a2.311,2.311,0,0,1-2.467,1.647,2.586,2.586,0,0,1-2.63-2.939,2.626,2.626,0,0,1,2.625-2.975c1.584,0,2.54,1.082,2.54,2.87v.392H101.88v.063a1.5,1.5,0,0,0,1.516,1.631,1.365,1.365,0,0,0,1.355-.69Zm-3.953-1.835h2.876a1.374,1.374,0,0,0-1.4-1.475,1.456,1.456,0,0,0-1.474,1.475Z" transform="translate(-18.47 -7.995)" fill="#fff"/>
        </g>
      </g>
    </g>
  </g>
</svg>
