<svg xmlns="http://www.w3.org/2000/svg" xmlns:xlink="http://www.w3.org/1999/xlink" viewBox="0 0 1366 660"><defs><style>.cls-1,.cls-12,.cls-5{fill:none;}.cls-2{clip-path:url(#clip-path);}.cls-3{clip-path:url(#clip-path-2);}.cls-4{clip-path:url(#clip-path-3);}.cls-5{stroke:#d3e2e8;stroke-width:1.5px;}.cls-12,.cls-5{stroke-miterlimit:10;}.cls-6{clip-path:url(#clip-path-4);}.cls-7{clip-path:url(#clip-path-5);}.cls-8{clip-path:url(#clip-path-6);}.cls-9{fill:#2e30e0;}.cls-10{clip-path:url(#clip-path-7);}.cls-11{fill:#2a2ccc;}.cls-12{stroke:#2e30e0;stroke-width:3px;}</style><clipPath id="clip-path"><rect id="Rectangle_1196" data-name="Rectangle 1196" class="cls-1" x="4.97" y="-2416.46" width="375" height="667"/></clipPath><clipPath id="clip-path-2"><rect id="Rectangle_1196-2" data-name="Rectangle 1196" class="cls-1" x="399.97" y="-2416.46" width="375" height="667"/></clipPath><clipPath id="clip-path-3"><path class="cls-1" d="M2206.19-2038.85a168.58,168.58,0,0,0-168.58,168.57,168.59,168.59,0,0,0,168.58,168.58,168.58,168.58,0,0,0,168.57-168.58v-168.57Z"/></clipPath><clipPath id="clip-path-4"><rect class="cls-1" x="2010.18" y="-1962.96" width="375.91" height="166.66"/></clipPath><clipPath id="clip-path-5"><rect class="cls-1" x="2010.18" y="-1621.58" width="375.91" height="166.66"/></clipPath><clipPath id="clip-path-6"><rect id="Rectangle_1196-3" data-name="Rectangle 1196" class="cls-1" x="2458.7" y="-2416.46" width="375" height="667"/></clipPath><clipPath id="clip-path-7"><rect class="cls-1" width="1366" height="660"/></clipPath></defs><g id="Payments_Empty" data-name="Payments Empty"><g class="cls-4"><g id="Bill_back" data-name="Bill back"><rect class="cls-5" x="1959.85" y="-1976.01" width="404.41" height="179.3" transform="translate(410.79 386.5) rotate(-11.28)"/></g></g></g><g id="Landing_Page" data-name="Landing Page"><g id="Landing_page_Background" data-name="Landing page Background"><rect id="Rectangle_1" data-name="Rectangle 1" class="cls-9" width="1366" height="660"/><g id="City_copy" data-name="City copy"><g class="cls-10"><path class="cls-11" d="M902.38,412.51l6.47,1.06s-5.87,6-6.41,10.22l1.19,249.59L774,663.92,772.41,389Z"/><line class="cls-12" x1="772.41" y1="395.98" x2="905.41" y2="420.6"/><line class="cls-12" x1="772.41" y1="404.98" x2="903.35" y2="426.78"/><polygon class="cls-11" points="1300.77 249.87 1372.98 278.35 1288.18 280.84 1300.77 249.87"/><polygon class="cls-11" points="1300.77 258.05 1355.19 278.35 1288.18 289.02 1300.77 258.05"/><polygon class="cls-11" points="958.7 434.72 1047.62 444.2 1047.39 672.63 958.7 679.5 958.7 434.72"/><polygon class="cls-11" points="1056.07 447.42 1056.06 453.91 967.15 444.43 967.15 437.94 1056.07 447.42"/><polygon class="cls-11" points="1056.07 474.18 1056.06 480.67 967.15 472.71 967.15 466.23 1056.07 474.18"/><polygon class="cls-11" points="1056.07 557.4 1056.06 563.89 967.15 563.56 967.15 557.07 1056.07 557.4"/><polygon class="cls-11" points="1056.07 577.04 1056.06 583.52 967.15 583.2 967.15 576.71 1056.07 577.04"/><polygon class="cls-9" points="1035.15 569.94 1035.15 345.24 1290.31 300.88 1290.31 643.47 1047.93 631.91 1047.93 546.63 1035.15 569.94"/><polygon class="cls-11" points="1035.15 569.93 1047.93 546.63 1047.93 631.91 1035.15 631.31 1035.15 569.93"/><polygon class="cls-9" points="1029.93 685.78 1290.63 708.75 1290.63 643.48 1029.93 631.29 1029.93 685.78"/><polygon class="cls-9" points="1028 345.71 1300.77 299.1 1300.77 290.89 1028 338.94 1028 345.71"/><polygon class="cls-11" points="1035.15 346.47 1300.77 301.48 1300.77 299.1 1028 345.71 1035.15 346.47"/><polygon class="cls-11" points="1022.95 312.6 1300.77 258.05 1300.77 249.84 1022.95 305.82 1022.95 312.6"/><polygon class="cls-9" points="1029.49 338.54 1291.26 292.56 1300.77 258.05 1022.95 312.6 1029.49 338.54"/><polygon class="cls-9" points="1209.4 392.06 1256.14 386.51 1256.14 330.65 1209.4 337.89 1209.4 392.06"/><polygon class="cls-11" points="1209.4 399.8 1215.79 399.07 1215.79 336.9 1209.4 337.89 1209.4 399.8"/><polygon class="cls-11" points="1204.89 338.59 1260.97 329.9 1260.97 321.9 1204.89 330.88 1204.89 338.59"/><polygon class="cls-9" points="1204.89 400.31 1260.97 393.94 1260.97 385.94 1204.89 392.6 1204.89 400.31"/><polygon class="cls-9" points="1256.14 368.31 1256.14 376.78 1216.24 336.83 1223.41 335.72 1256.14 368.31"/><polygon class="cls-9" points="1215.79 362.1 1215.79 341.33 1256.14 381.86 1256.14 386.51 1241.48 388.25 1215.79 362.1"/><polygon class="cls-11" points="1212.37 366.83 1256.14 360.9 1256.14 357.11 1212.37 363.14 1212.37 366.83"/><polygon class="cls-9" points="1127.98 401.73 1169.7 396.78 1169.7 344.05 1127.98 350.51 1127.98 401.73"/><polygon class="cls-11" points="1127.98 409.05 1133.69 408.4 1133.69 349.63 1127.98 350.51 1127.98 409.05"/><polygon class="cls-11" points="1123.94 351.14 1174.01 343.38 1174.01 335.82 1123.94 343.84 1123.94 351.14"/><polygon class="cls-9" points="1123.94 409.51 1174.01 403.82 1174.01 396.26 1123.94 402.21 1123.94 409.51"/><polygon class="cls-9" points="1169.7 379.59 1169.7 387.59 1134.09 349.56 1140.5 348.57 1169.7 379.59"/><polygon class="cls-9" points="1133.69 373.44 1133.69 353.81 1169.7 392.38 1169.7 396.78 1156.63 398.33 1133.69 373.44"/><polygon class="cls-11" points="1130.63 377.89 1169.7 372.6 1169.7 369.02 1130.63 374.41 1130.63 377.89"/><polygon class="cls-9" points="1054.97 410.4 1092.43 405.95 1092.43 356.02 1054.97 361.82 1054.97 410.4"/><polygon class="cls-11" points="1054.97 417.34 1060.1 416.76 1060.1 361.03 1054.97 361.82 1054.97 417.34"/><polygon class="cls-11" points="1051.33 362.39 1096.29 355.42 1096.29 348.27 1051.33 355.47 1051.33 362.39"/><polygon class="cls-9" points="1051.33 417.75 1096.29 412.65 1096.29 405.49 1051.33 410.83 1051.33 417.75"/><polygon class="cls-9" points="1092.43 389.68 1092.43 397.25 1060.46 360.97 1066.22 360.08 1092.43 389.68"/><polygon class="cls-9" points="1060.1 383.61 1060.1 365 1092.43 401.79 1092.43 405.95 1080.71 407.35 1060.1 383.61"/><polygon class="cls-11" points="1057.35 387.81 1092.43 383.06 1092.43 379.67 1057.35 384.51 1057.35 387.81"/><polygon class="cls-9" points="1209.4 492.66 1256.14 490.25 1256.14 434.39 1209.4 438.49 1209.4 492.66"/><polygon class="cls-11" points="1209.4 492.66 1215.79 492.33 1215.79 437.93 1209.4 438.49 1209.4 492.66"/><polygon class="cls-11" points="1204.89 438.89 1260.97 433.97 1260.97 425.96 1204.89 431.17 1204.89 438.89"/><polygon class="cls-9" points="1256.14 472.05 1256.14 480.52 1216.24 437.89 1223.41 437.26 1256.14 472.05"/><polygon class="cls-9" points="1215.79 463.12 1215.79 442.36 1256.14 485.59 1256.14 490.25 1241.48 491 1215.79 463.12"/><polygon class="cls-11" points="1212.37 467.63 1256.14 464.64 1256.14 460.85 1212.37 463.94 1212.37 467.63"/><polygon class="cls-9" points="1127.98 496.85 1169.7 494.7 1169.7 441.97 1127.98 445.63 1127.98 496.85"/><polygon class="cls-11" points="1127.98 496.85 1133.69 496.56 1133.69 445.13 1127.98 445.63 1127.98 496.85"/><polygon class="cls-11" points="1123.94 445.99 1174.01 441.6 1174.01 434.04 1123.94 438.69 1123.94 445.99"/><polygon class="cls-9" points="1169.7 477.52 1169.7 485.52 1134.09 445.1 1140.5 444.54 1169.7 477.52"/><polygon class="cls-9" points="1133.69 468.95 1133.69 449.32 1169.7 490.31 1169.7 494.7 1156.63 495.38 1133.69 468.95"/><polygon class="cls-11" points="1130.63 473.19 1169.7 470.53 1169.7 466.95 1130.63 469.71 1130.63 473.19"/><polygon class="cls-9" points="1054.97 500.62 1092.43 498.69 1092.43 448.75 1054.97 452.04 1054.97 500.62"/><polygon class="cls-11" points="1054.97 500.62 1060.1 500.35 1060.1 451.59 1054.97 452.04 1054.97 500.62"/><polygon class="cls-11" points="1051.33 452.36 1096.29 448.41 1096.29 441.26 1051.33 445.44 1051.33 452.36"/><polygon class="cls-9" points="1092.43 482.41 1092.43 489.99 1060.46 451.56 1066.22 451.05 1092.43 482.41"/><polygon class="cls-9" points="1060.1 474.17 1060.1 455.56 1092.43 494.52 1092.43 498.69 1080.71 499.29 1060.1 474.17"/><polygon class="cls-11" points="1057.35 478.19 1092.43 475.8 1092.43 472.4 1057.35 474.88 1057.35 478.19"/><polygon class="cls-9" points="1215.79 636.1 1256.14 637.88 1256.14 546.11 1215.79 546.73 1215.79 636.1"/><polygon class="cls-11" points="1209.4 635.82 1215.79 636.1 1215.79 546.73 1209.4 546.83 1209.4 635.82"/><polygon class="cls-11" points="1204.89 546.89 1260.97 546.04 1260.97 538.03 1204.89 539.18 1204.89 546.89"/><polygon class="cls-9" points="1252.15 635.2 1215.79 590.85 1215.79 569.94 1256.14 618.15 1256.14 635.37 1252.15 635.2"/><polygon class="cls-9" points="1256.14 604.55 1256.14 613.07 1215.79 564.98 1215.79 556.49 1256.14 604.55"/><polygon class="cls-11" points="1212.37 576.17 1256.14 576.36 1256.14 572.57 1212.37 572.49 1212.37 576.17"/><polygon class="cls-11" points="1212.37 608.25 1256.14 609.38 1256.14 605.58 1212.37 604.57 1212.37 608.25"/><polygon class="cls-9" points="1133.69 632.47 1169.7 634.06 1169.7 547.43 1133.69 547.99 1133.69 632.47"/><polygon class="cls-11" points="1127.98 632.22 1133.69 632.47 1133.69 547.99 1127.98 548.07 1127.98 632.22"/><polygon class="cls-11" points="1123.94 548.13 1174.01 547.37 1174.01 539.81 1123.94 540.84 1123.94 548.13"/><polygon class="cls-9" points="1166.14 631.54 1133.69 589.7 1133.69 569.93 1169.7 615.44 1169.7 631.69 1166.14 631.54"/><polygon class="cls-9" points="1169.7 602.6 1169.7 610.64 1133.69 565.24 1133.69 557.21 1169.7 602.6"/><polygon class="cls-11" points="1130.63 575.82 1169.7 575.99 1169.7 572.41 1130.63 572.34 1130.63 575.82"/><polygon class="cls-11" points="1130.63 606.15 1169.7 607.15 1169.7 603.57 1130.63 602.67 1130.63 606.15"/><polygon class="cls-11" points="1026.88 328.16 1026.06 324.92 1296.22 274.53 1295.04 278.85 1026.88 328.16"/><polygon class="cls-11" points="1025.14 321.28 1024.32 318.04 1298.76 265.35 1297.56 269.68 1025.14 321.28"/><polygon class="cls-11" points="1047.93 542.21 1096.61 541.21 1096.61 552.24 1057.73 630.32 1047.93 630.08 1047.93 542.21"/><polygon class="cls-11" points="1096.61 631.25 1057.73 630.32 1096.61 552.24 1096.61 631.25"/><path class="cls-9" d="M1054.59,588.59a3.19,3.19,0,0,0,3.22,3.08,3.08,3.08,0,0,0,3.23-3,3.19,3.19,0,0,0-3.23-3.09A3.09,3.09,0,0,0,1054.59,588.59Z"/><polygon class="cls-11" points="1288.42 509.94 1104.3 516.96 1104.3 519.73 1288.42 513.05 1288.42 509.94"/><polygon class="cls-9" points="958.7 679.5 788.59 664.51 788.59 453.16 958.7 434.72 958.7 679.5"/><polygon class="cls-9" points="967.15 582.96 784.31 581.04 784.31 575.62 967.15 576.62 967.15 582.96"/><polygon class="cls-11" points="967.15 446.71 785.96 464.5 784.31 462.7 967.15 444.43 967.15 446.71"/><polygon class="cls-11" points="958.7 475.65 785.96 488.7 784.31 486.86 958.7 473.37 958.7 475.65"/><polygon class="cls-11" points="958.7 565.68 785.96 566.25 784.31 564.29 958.7 563.4 958.7 565.68"/><polygon class="cls-11" points="958.7 585.15 785.96 583.02 784.31 581.04 958.7 582.88 958.7 585.15"/><polygon class="cls-9" points="967.15 563.36 784.31 564.29 784.31 558.88 967.15 557.02 967.15 563.36"/><polygon class="cls-9" points="967.15 472.71 784.31 486.86 784.31 481.32 967.15 466.23 967.15 472.71"/><polygon class="cls-11" points="952.45 678.95 910.41 675.24 910.41 588.56 952.45 589.22 952.45 678.95"/><polygon class="cls-9" points="904.63 650.09 797.78 642.88 797.78 586.79 904.63 588.47 904.63 650.09"/><polygon class="cls-9" points="824.35 587.21 860.44 647.11 850.55 646.44 814.99 587.06 824.35 587.21"/><polygon class="cls-9" points="842.03 587.48 879.3 648.38 869.08 647.69 832.37 587.33 842.03 587.48"/><rect class="cls-11" x="862.76" y="587.6" width="0.98" height="59.7"/><rect class="cls-11" x="841.26" y="587.26" width="0.98" height="58.58"/><rect class="cls-11" x="820.55" y="586.94" width="0.98" height="57.51"/><rect class="cls-11" x="885.1" y="587.94" width="0.98" height="60.86"/><rect class="cls-11" x="852.36" y="565.3" width="0.98" height="103.65" transform="translate(200.41 1443.27) rotate(-87.59)"/><polygon class="cls-11" points="801.07 643.1 797.78 642.88 797.78 586.79 801.07 586.84 801.07 643.1"/><polygon class="cls-9" points="967.15 444.43 784.31 462.7 784.31 457.16 967.15 437.94 967.15 444.43"/><path class="cls-9" d="M944.58,544.51l-26.69.55V495.22h0a30.74,30.74,0,0,1,26.69-1.65h0Z"/><path class="cls-9" d="M944.58,534.18,917.89,496v-.81h0c1-.54,2-1,3.05-1.46l23.64,33.66Z"/><polygon class="cls-9" points="917.89 516.64 917.89 500 944.58 538.24 944.58 544.51 937.26 544.66 917.89 516.64"/><path class="cls-11" d="M922,493.35V545l-4.06.08V495.22A36,36,0,0,1,922,493.35Z"/><polygon class="cls-11" points="942.53 542.68 942.38 542.66 942.38 549.02 947.45 550.84 947.45 544.43 942.53 542.68"/><rect class="cls-11" x="921.94" y="519.02" width="22.65" height="0.98" transform="translate(-20.6 38.87) rotate(-2.36)"/><rect class="cls-11" x="933.61" y="491.29" width="0.98" height="53.44"/><polygon class="cls-9" points="942.38 549.02 912.54 549.52 912.54 543.32 942.38 542.66 942.38 549.02"/><polygon class="cls-11" points="904.63 648.9 801.07 642.02 797.78 642.88 904.63 650.09 904.63 648.9"/><polygon class="cls-11" points="952.41 636.82 952.41 665.96 910.41 601.57 910.41 588.56 920.57 588.72 952.41 636.82"/><polygon class="cls-11" points="948.62 678.61 910.41 619.45 910.41 608.26 952.41 672.89 952.41 678.94 948.62 678.61"/><path class="cls-9" d="M900.35,545.42l-24.83.51V497.84h0a27.69,27.69,0,0,1,24.83-1.54h0Z"/><path class="cls-9" d="M900.35,535.46l-24.83-36.83v-.79h0a29.88,29.88,0,0,1,2.84-1.4l22,32.5Z"/><polygon class="cls-9" points="875.52 518.51 875.52 502.45 900.35 539.37 900.35 545.42 893.54 545.56 875.52 518.51"/><path class="cls-11" d="M879.3,496.05v49.8l-3.78.08V497.84A30.91,30.91,0,0,1,879.3,496.05Z"/><polygon class="cls-11" points="898.44 543.65 898.3 543.63 898.3 549.76 903.01 551.52 903.01 545.35 898.44 543.65"/><rect class="cls-11" x="879.29" y="520.81" width="21.07" height="0.98" transform="translate(-20.68 37.03) rotate(-2.36)"/><rect class="cls-11" x="890.11" y="494.09" width="0.98" height="51.53"/><polygon class="cls-9" points="898.3 549.76 870.54 550.23 870.54 544.25 898.3 543.63 898.3 549.76"/><path class="cls-9" d="M858.85,546.27l-23.14.48V500.3h0a25,25,0,0,1,23.14-1.43h0Z"/><path class="cls-9" d="M858.85,536.66l-23.14-35.6v-.76h0a27.44,27.44,0,0,1,2.65-1.34l20.49,31.41Z"/><polygon class="cls-9" points="835.71 520.27 835.71 504.76 858.85 540.43 858.85 546.27 852.51 546.4 835.71 520.27"/><path class="cls-11" d="M839.24,498.58v48.09l-3.53.08V500.3A29.41,29.41,0,0,1,839.24,498.58Z"/><polygon class="cls-11" points="857.08 544.56 856.95 544.54 856.95 550.46 861.33 552.16 861.33 546.2 857.08 544.56"/><rect class="cls-11" x="839.23" y="522.49" width="19.63" height="0.98" transform="translate(-20.8 35.37) rotate(-2.36)"/><rect class="cls-11" x="849.28" y="496.71" width="0.98" height="49.75"/><polygon class="cls-9" points="856.95 550.46 831.06 550.9 831.06 545.12 856.95 544.54 856.95 550.46"/><path class="cls-9" d="M819.37,547.08l-21.59.44V502.65h0a22.63,22.63,0,0,1,21.59-1.34h0Z"/><path class="cls-9" d="M819.37,537.8l-21.59-34.42v-.73h0c.82-.48,1.64-.91,2.47-1.3l19.12,30.38Z"/><polygon class="cls-9" points="797.78 521.94 797.78 506.95 819.37 541.44 819.37 547.08 813.46 547.2 797.78 521.94"/><path class="cls-11" d="M801.07,501v46.47l-3.29.06V502.65A27.41,27.41,0,0,1,801.07,501Z"/><polygon class="cls-11" points="817.71 545.43 817.59 545.41 817.59 551.12 821.68 552.77 821.68 547.01 817.71 545.43"/><rect class="cls-11" x="801.07" y="524.09" width="18.31" height="0.98" transform="translate(-20.88 33.76) rotate(-2.36)"/><rect class="cls-11" x="810.42" y="499.21" width="0.98" height="48.04"/><polygon class="cls-9" points="817.59 551.12 793.44 551.53 793.44 545.94 817.59 545.41 817.59 551.12"/><polygon class="cls-9" points="1736.37 748.03 1290.27 708.72 1290.27 312.11 1736.37 239.23 1736.37 748.03"/><polygon class="cls-9" points="1736.37 568 1283.38 568.39 1283.38 564.33 1736.37 562.77 1736.37 568"/><polygon class="cls-9" points="1736.37 550.79 1283.38 555.04 1283.38 550.98 1736.37 545.56 1736.37 550.79"/><polygon class="cls-9" points="1736.37 399.97 1283.38 437.98 1283.38 433.92 1736.37 394.74 1736.37 399.97"/><polygon class="cls-11" points="1292.65 568.39 1290.27 568.39 1283.38 568.39 1290.27 570.11 1736.37 570.21 1736.37 568 1292.65 568.39"/><polygon class="cls-11" points="1292.65 554.95 1290.27 554.97 1283.38 555.04 1290.27 556.69 1736.37 553 1736.37 550.79 1292.65 554.95"/><polygon class="cls-11" points="1736.37 251.8 1283.38 322.99 1283.38 318.93 1736.37 246.57 1736.37 251.8"/><path class="cls-9" d="M1736.37,209.16l-197.61,35.22-235.11,41.9-10.18,1.82-20,3.56v2.86a24.16,24.16,0,0,1,9.92,19.73l10-1.63,10.18-1.66,235.11-38.26,197.61-32.15c0-10.62,6.28-21.39,16.71-30.63v-3.74Z"/><path class="cls-11" d="M1745.31,218.07,1278.1,298.93a23.63,23.63,0,0,1,2.42,3.63L1741.24,224A49.9,49.9,0,0,1,1745.31,218.07Z"/><polygon class="cls-9" points="1292.65 321.48 1290.27 321.85 1283.38 322.93 1290.27 324.14 1736.37 254.66 1736.37 251.72 1292.65 321.48"/><polygon class="cls-11" points="1292.65 437.13 1290.27 437.33 1283.38 437.91 1290.27 439.63 1736.37 402.82 1736.37 399.88 1292.65 437.13"/><path class="cls-9" d="M1393.32,533.88l-68.12,1.45V470.9c0-14.3,14.76-27,33.35-28.48h0c19-1.47,34.77,9.4,34.77,24.31Z"/><path class="cls-9" d="M1393.32,505v26.15l-66.11-69.34a29.92,29.92,0,0,1,9.69-11.58l3.21-.23Z"/><path class="cls-9" d="M1376.51,534.24l-51.31-54.45V470.9a21.21,21.21,0,0,1,.24-3.19L1388.31,534Z"/><path class="cls-11" d="M1361.19,442.3c-.87,0-1.75.06-2.64.12h0c-18.59,1.44-33.35,14.18-33.35,28.48v64.43l5.07-.11V470.59C1330.27,456.92,1343.75,444.68,1361.19,442.3Z"/><rect class="cls-11" x="1330.22" y="472.95" width="63.16" height="0.98" transform="translate(-25.29 80.23) rotate(-3.34)"/><rect class="cls-11" x="1330.25" y="504.21" width="63.1" height="0.98" transform="translate(-18.84 54.09) rotate(-2.26)"/><rect class="cls-11" x="1352.01" y="444.39" width="0.98" height="91.76"/><polygon class="cls-11" points="1315.14 536.92 1400.32 535.17 1400.32 533.73 1404.38 535.09 1404.38 539.47 1315.14 541.06 1311.5 539.76 1311.5 535.62 1315.14 536.92"/><polygon class="cls-9" points="1400.32 533.73 1311.5 535.62 1311.5 539.76 1400.32 538.09 1400.32 533.73"/><path class="cls-9" d="M1393.32,410.92l-68.12,6.45V352.94c0-14.31,14.76-28.12,33.35-30.92h0c19-2.87,34.77,6.85,34.77,21.75Z"/><path class="cls-9" d="M1393.32,382.06V408.2l-66.11-64.5a33.26,33.26,0,0,1,9.69-12.28l3.21-.47Z"/><path class="cls-9" d="M1376.51,412.51l-51.31-50.69v-8.88a21.71,21.71,0,0,1,.24-3.22l62.87,61.68Z"/><path class="cls-11" d="M1361.19,321.7c-.87.08-1.75.18-2.64.32h0c-18.59,2.8-33.35,16.61-33.35,30.92v64.43l5.07-.48V352.25C1330.27,338.58,1343.75,325.36,1361.19,321.7Z"/><rect class="cls-11" x="1330" y="352.3" width="63.59" height="0.98" transform="translate(-34.39 180.7) rotate(-7.5)"/><rect class="cls-11" x="1330.07" y="383.57" width="63.45" height="0.98" transform="translate(-34.43 154.85) rotate(-6.43)"/><rect class="cls-11" x="1352.01" y="324.43" width="0.98" height="91.76"/><polygon class="cls-11" points="1311.5 418.66 1315.14 419.69 1315.14 423.83 1311.5 422.79 1311.5 418.66"/><polygon class="cls-11" points="1404.38 411.33 1315.14 419.69 1315.14 423.83 1404.38 415.7 1404.38 411.33"/><polygon class="cls-9" points="1400.32 410.26 1311.5 418.66 1311.5 422.79 1400.32 414.63 1400.32 410.26"/><polygon class="cls-11" points="1321.14 711.44 1396.07 718.04 1396.07 583.27 1321.14 582.66 1321.14 711.44"/><polygon class="cls-11" points="1030.1 510.68 1289.77 498.54 1289.77 496.16 1022.95 509.04 1030.1 510.68"/><polygon class="cls-11" points="1022.95 509.04 1289.77 496.16 1289.77 487.95 1022.95 502.26 1022.95 509.04"/><polygon class="cls-11" points="1030.1 636.68 1300.77 650.44 1300.77 648.06 1022.95 634.36 1030.1 636.68"/><polygon class="cls-9" points="1106.04 638.67 1300.77 648.06 1300.77 639.85 1106.04 631.89 1106.04 638.67"/><path class="cls-9" d="M1331.1,653.35a3.19,3.19,0,0,0,3.21,3.08,3.08,3.08,0,0,0,3.23-3,3.19,3.19,0,0,0-3.23-3.09A3.08,3.08,0,0,0,1331.1,653.35Z"/><polygon class="cls-11" points="585.51 498.31 634.91 504.95 634.78 646.03 585.51 650.37 585.51 498.31"/><polygon class="cls-11" points="639.57 507.01 639.56 511.01 590.23 504.41 590.23 500.38 639.57 507.01"/><polygon class="cls-11" points="639.57 523.53 639.56 527.53 590.23 521.97 590.23 517.95 639.57 523.53"/><polygon class="cls-11" points="639.57 574.9 639.56 578.9 590.23 578.38 590.23 574.35 639.57 574.9"/><polygon class="cls-11" points="639.57 587.02 639.56 591.02 590.23 590.57 590.23 586.54 639.57 587.02"/><polygon class="cls-9" points="628.01 582.57 628.01 443.68 766.82 419.85 766.82 628.1 635.08 620.88 635.08 568.21 628.01 582.57"/><polygon class="cls-11" points="628.01 582.56 635.08 568.21 635.08 620.88 628.01 620.5 628.01 582.56"/><polygon class="cls-9" points="625.13 654.17 766.99 667.78 766.99 628.1 625.13 620.49 625.13 654.17"/><polygon class="cls-9" points="624.06 443.88 772.41 418.91 772.41 413.92 624.06 439.69 624.06 443.88"/><polygon class="cls-11" points="628.01 444.44 772.41 420.36 772.41 418.91 624.06 443.88 628.01 444.44"/><polygon class="cls-11" points="621.26 423.33 772.41 393.97 772.41 388.98 621.26 419.14 621.26 423.33"/><polygon class="cls-9" points="624.88 439.46 767.33 414.8 772.41 393.97 621.26 423.33 624.88 439.46"/><polygon class="cls-9" points="723.31 474.44 748.5 471.54 748.5 437.51 723.31 441.34 723.31 474.44"/><polygon class="cls-11" points="723.31 479.17 726.76 478.79 726.76 440.81 723.31 441.34 723.31 479.17"/><polygon class="cls-11" points="720.87 441.71 751.1 437.11 751.1 432.24 720.87 437 720.87 441.71"/><polygon class="cls-9" points="720.87 479.44 751.1 476.12 751.1 471.24 720.87 474.72 720.87 479.44"/><polygon class="cls-9" points="748.5 460.45 748.5 465.61 727 440.78 730.87 440.19 748.5 460.45"/><polygon class="cls-9" points="726.76 456.2 726.76 443.52 748.5 468.7 748.5 471.54 740.62 472.45 726.76 456.2"/><polygon class="cls-11" points="724.91 459.05 748.5 455.94 748.5 453.63 724.91 456.8 724.91 459.05"/><polygon class="cls-9" points="679.05 479.53 701.79 476.92 701.79 444.61 679.05 448.07 679.05 479.53"/><polygon class="cls-11" points="679.05 484.03 682.17 483.69 682.17 447.59 679.05 448.07 679.05 484.03"/><polygon class="cls-11" points="676.85 448.4 704.13 444.25 704.13 439.63 676.85 443.92 676.85 448.4"/><polygon class="cls-9" points="676.85 484.27 704.13 481.27 704.13 476.65 676.85 479.79 676.85 484.27"/><polygon class="cls-9" points="701.79 466.39 701.79 471.29 682.39 447.56 685.89 447.03 701.79 466.39"/><polygon class="cls-9" points="682.17 462.22 682.17 450.17 701.79 474.23 701.79 476.92 694.68 477.74 682.17 462.22"/><polygon class="cls-11" points="680.5 464.92 701.79 462.11 701.79 459.91 680.5 462.78 680.5 464.92"/><polygon class="cls-9" points="638.96 484.15 659.58 481.77 659.58 451.03 638.96 454.16 638.96 484.15"/><polygon class="cls-11" points="638.96 488.43 641.79 488.12 641.79 453.73 638.96 454.16 638.96 488.43"/><polygon class="cls-11" points="636.96 454.47 661.7 450.7 661.7 446.3 636.96 450.19 636.96 454.47"/><polygon class="cls-9" points="636.96 488.65 661.7 485.94 661.7 481.53 636.96 484.38 636.96 488.65"/><polygon class="cls-9" points="659.58 471.76 659.58 476.42 641.99 453.7 645.17 453.22 659.58 471.76"/><polygon class="cls-9" points="641.79 467.67 641.79 456.18 659.58 479.21 659.58 481.77 653.14 482.52 641.79 467.67"/><polygon class="cls-11" points="640.28 470.23 659.58 467.68 659.58 465.59 640.28 468.19 640.28 470.23"/><polygon class="cls-9" points="723.31 535.91 748.5 534.74 748.5 500.71 723.31 502.81 723.31 535.91"/><polygon class="cls-11" points="723.31 535.91 726.76 535.75 726.76 502.52 723.31 502.81 723.31 535.91"/><polygon class="cls-11" points="720.87 503.02 751.1 500.49 751.1 495.62 720.87 498.3 720.87 503.02"/><polygon class="cls-9" points="748.5 523.65 748.5 528.81 727 502.5 730.87 502.18 748.5 523.65"/><polygon class="cls-9" points="726.76 517.91 726.76 505.23 748.5 531.9 748.5 534.74 740.62 535.11 726.76 517.91"/><polygon class="cls-11" points="724.91 520.64 748.5 519.14 748.5 516.83 724.91 518.38 724.91 520.64"/><polygon class="cls-9" points="726.76 663.92 748.5 666 748.5 649.38 726.76 647.68 726.76 663.92"/><polygon class="cls-11" points="723.31 663.59 726.76 663.92 726.76 647.68 723.31 647.41 723.31 663.59"/><polygon class="cls-11" points="720.87 647.23 751.1 649.58 751.1 644.7 720.87 642.51 720.87 647.23"/><polygon class="cls-9" points="739.6 665.15 727 647.7 730.87 648 743.58 665.53 739.6 665.15"/><polygon class="cls-9" points="682.17 659.64 701.79 661.52 701.79 645.74 682.17 644.21 682.17 659.64"/><polygon class="cls-11" points="679.05 659.34 682.17 659.64 682.17 644.21 679.05 643.97 679.05 659.34"/><polygon class="cls-11" points="676.85 643.8 704.13 645.92 704.13 641.29 676.85 639.31 676.85 643.8"/><polygon class="cls-9" points="693.76 660.75 682.39 644.23 685.89 644.5 697.35 661.1 693.76 660.75"/><polygon class="cls-9" points="682.76 659.7 682.17 658.84 682.17 646.78 691.62 660.55 682.76 659.7"/><polygon class="cls-9" points="679.05 537.97 701.79 536.91 701.79 504.61 679.05 506.51 679.05 537.97"/><polygon class="cls-11" points="679.05 537.97 682.17 537.83 682.17 506.25 679.05 506.51 679.05 537.97"/><polygon class="cls-11" points="676.85 506.69 704.13 504.41 704.13 499.79 676.85 502.21 676.85 506.69"/><polygon class="cls-9" points="701.79 526.39 701.79 531.29 682.39 506.23 685.89 505.94 701.79 526.39"/><polygon class="cls-9" points="682.17 520.87 682.17 508.82 701.79 534.22 701.79 536.91 694.68 537.25 682.17 520.87"/><polygon class="cls-11" points="680.5 523.46 701.79 522.11 701.79 519.91 680.5 521.32 680.5 523.46"/><polygon class="cls-9" points="638.96 539.84 659.58 538.88 659.58 508.13 638.96 509.85 638.96 539.84"/><polygon class="cls-11" points="638.96 539.84 641.79 539.71 641.79 509.62 638.96 509.85 638.96 539.84"/><polygon class="cls-11" points="636.96 510.02 661.7 507.95 661.7 503.55 636.96 505.75 636.96 510.02"/><polygon class="cls-9" points="659.58 528.86 659.58 533.52 641.99 509.6 645.17 509.33 659.58 528.86"/><polygon class="cls-9" points="641.79 523.55 641.79 512.07 659.58 536.32 659.58 538.88 653.14 539.18 641.79 523.55"/><polygon class="cls-11" points="640.28 526.01 659.58 524.78 659.58 522.7 640.28 523.97 640.28 526.01"/><polygon class="cls-9" points="726.76 623.57 748.5 624.68 748.5 568.77 726.76 568.98 726.76 623.57"/><polygon class="cls-11" points="723.31 623.39 726.76 623.57 726.76 568.98 723.31 569.01 723.31 623.39"/><polygon class="cls-11" points="720.87 569.04 751.1 568.75 751.1 563.87 720.87 564.32 720.87 569.04"/><polygon class="cls-9" points="746.36 623.05 726.76 595.93 726.76 583.16 748.5 612.66 748.5 623.15 746.36 623.05"/><polygon class="cls-9" points="748.5 604.37 748.5 609.57 726.76 580.13 726.76 574.94 748.5 604.37"/><polygon class="cls-11" points="724.91 586.96 748.5 587.2 748.5 584.89 724.91 584.71 724.91 586.96"/><polygon class="cls-11" points="724.91 606.55 748.5 607.32 748.5 605 724.91 604.3 724.91 606.55"/><polygon class="cls-9" points="682.17 621.29 701.79 622.29 701.79 569.22 682.17 569.41 682.17 621.29"/><polygon class="cls-11" points="679.05 621.13 682.17 621.29 682.17 569.41 679.05 569.44 679.05 621.13"/><polygon class="cls-11" points="676.85 569.46 704.13 569.2 704.13 564.57 676.85 564.98 676.85 569.46"/><polygon class="cls-9" points="699.85 620.75 682.17 595.03 682.17 582.88 701.79 610.88 701.79 620.84 699.85 620.75"/><polygon class="cls-9" points="701.79 603.02 701.79 607.95 682.17 580.01 682.17 575.08 701.79 603.02"/><polygon class="cls-11" points="680.5 586.5 701.79 586.72 701.79 584.52 680.5 584.36 680.5 586.5"/><polygon class="cls-11" points="680.5 605.12 701.79 605.81 701.79 603.62 680.5 602.98 680.5 605.12"/><polygon class="cls-11" points="623.43 433.01 622.98 430.99 769.99 403.92 769.35 406.52 623.43 433.01"/><polygon class="cls-11" points="622.47 428.73 622.02 426.72 771.34 398.38 770.7 400.99 622.47 428.73"/><polygon class="cls-11" points="635.08 565.48 661.87 565.08 661.87 571.88 640.48 619.9 635.08 619.75 635.08 565.48"/><polygon class="cls-11" points="661.87 620.51 640.48 619.9 661.87 571.88 661.87 620.51"/><path class="cls-9" d="M638.76,594.14a1.87,1.87,0,0,0,1.77,1.91,1.78,1.78,0,0,0,1.78-1.84,1.88,1.88,0,0,0-1.78-1.91A1.78,1.78,0,0,0,638.76,594.14Z"/><polygon class="cls-11" points="765.81 546.91 666.09 550.2 666.09 551.9 765.81 548.81 765.81 546.91"/><polygon class="cls-9" points="585.51 650.37 489.37 641.15 489.37 508.36 585.51 498.31 585.51 650.37"/><polygon class="cls-9" points="590.23 590.43 486.92 588.69 486.92 585.29 590.23 586.49 590.23 590.43"/><polygon class="cls-11" points="590.23 505.82 487.86 515.46 486.92 514.32 590.23 504.41 590.23 505.82"/><polygon class="cls-11" points="585.51 523.73 487.86 530.67 486.92 529.5 585.51 522.32 585.51 523.73"/><polygon class="cls-11" points="585.51 579.67 487.86 579.4 486.92 578.17 585.51 578.25 585.51 579.67"/><polygon class="cls-11" points="585.51 591.76 487.86 589.94 486.92 588.69 585.51 590.35 585.51 591.76"/><polygon class="cls-9" points="590.23 578.25 486.92 578.17 486.92 574.77 590.23 574.32 590.23 578.25"/><polygon class="cls-9" points="590.23 521.97 486.92 529.5 486.92 526.02 590.23 517.95 590.23 521.97"/><polygon class="cls-11" points="582.02 650.04 558.44 647.78 558.44 593.75 582.02 594.27 582.02 650.04"/><polygon class="cls-9" points="555.19 632.1 494.62 627.57 494.62 592.34 555.19 593.68 555.19 632.1"/><polygon class="cls-9" points="509.76 592.68 530.24 630.23 524.64 629.81 504.43 592.56 509.76 592.68"/><polygon class="cls-9" points="519.81 592.9 540.9 631.03 535.13 630.6 514.32 592.78 519.81 592.9"/><rect class="cls-11" x="531.56" y="593.03" width="0.55" height="37.32"/><rect class="cls-11" x="519.37" y="592.76" width="0.55" height="36.68"/><rect class="cls-11" x="507.6" y="592.5" width="0.56" height="36.06"/><rect class="cls-11" x="544.18" y="593.3" width="0.55" height="37.99"/><polygon class="cls-11" points="555.17 613.19 555.2 612.59 496.51 609.74 496.49 610.35 555.17 613.19"/><polygon class="cls-11" points="496.5 627.71 494.62 627.57 494.62 592.34 496.5 592.39 496.5 627.71"/><polygon class="cls-9" points="590.23 504.41 486.92 514.32 486.92 510.83 590.23 500.38 590.23 504.41"/><path class="cls-9" d="M577.61,566.45l-15,.23v-31h0a15.71,15.71,0,0,1,15-.86h0Z"/><path class="cls-9" d="M577.61,560l-15-23.89v-.51h0a18.74,18.74,0,0,1,1.72-.89l13.25,21.09Z"/><polygon class="cls-9" points="562.64 548.97 562.64 538.6 577.61 562.55 577.61 566.45 573.51 566.51 562.64 548.97"/><path class="cls-11" d="M564.92,534.49v32.15l-2.28,0v-31A19.39,19.39,0,0,1,564.92,534.49Z"/><polygon class="cls-11" points="576.47 565.3 576.38 565.29 576.38 569.25 579.22 570.4 579.22 566.42 576.47 565.3"/><polygon class="cls-11" points="564.94 551.37 577.63 550.91 577.6 550.31 564.91 550.77 564.94 551.37"/><polygon class="cls-11" points="571.47 566.54 572.01 566.54 572.01 533.29 571.47 533.29 571.47 566.54"/><polygon class="cls-9" points="576.38 569.25 559.64 569.43 559.64 565.57 576.38 565.29 576.38 569.25"/><polygon class="cls-11" points="555.19 631.36 496.5 627.03 494.62 627.57 555.19 632.1 555.19 631.36"/><polygon class="cls-11" points="582 623.86 582 641.97 558.44 601.86 558.44 593.75 564.14 593.88 582 623.86"/><polygon class="cls-11" points="579.87 649.83 558.44 613 558.44 606.03 582 646.27 582 650.04 579.87 649.83"/><path class="cls-9" d="M552.78,566.82l-14,.21V537h0a14.27,14.27,0,0,1,14-.8h0Z"/><path class="cls-9" d="M552.78,560.61l-14-23.13V537h0c.53-.32,1.06-.6,1.6-.86l12.41,20.42Z"/><polygon class="cls-9" points="538.77 549.9 538.77 539.87 552.77 563.05 552.77 566.82 548.94 566.88 538.77 549.9"/><path class="cls-11" d="M540.91,535.89V567l-2.14,0V537A16,16,0,0,1,540.91,535.89Z"/><polygon class="cls-11" points="551.7 565.71 551.62 565.7 551.62 569.52 554.27 570.64 554.27 566.79 551.7 565.71"/><polygon class="cls-11" points="540.92 552.24 552.79 551.81 552.76 551.2 540.89 551.63 540.92 552.24"/><polygon class="cls-11" points="547.01 566.9 547.56 566.91 547.56 534.75 547.01 534.74 547.01 566.9"/><polygon class="cls-9" points="551.62 569.52 535.95 569.7 535.95 565.96 551.62 565.7 551.62 569.52"/><path class="cls-9" d="M529.34,567.17l-13.12.2V538.28h0a13,13,0,0,1,13.12-.75h0Z"/><path class="cls-9" d="M529.34,561.16l-13.12-22.41v-.47h0a14.83,14.83,0,0,1,1.5-.83l11.62,19.78Z"/><polygon class="cls-9" points="516.22 550.78 516.22 541.07 529.34 563.52 529.34 567.17 525.75 567.23 516.22 550.78"/><path class="cls-11" d="M518.22,537.22v30.12l-2,0V538.28A15.44,15.44,0,0,1,518.22,537.22Z"/><polygon class="cls-11" points="528.34 566.09 528.26 566.08 528.26 569.78 530.75 570.86 530.75 567.14 528.34 566.09"/><polygon class="cls-11" points="518.23 553.05 529.35 552.65 529.33 552.04 518.21 552.44 518.23 553.05"/><polygon class="cls-11" points="523.92 567.25 524.48 567.25 524.48 536.12 523.92 536.12 523.92 567.25"/><polygon class="cls-9" points="528.26 569.78 513.58 569.95 513.58 566.32 528.26 566.08 528.26 569.78"/><path class="cls-9" d="M506.93,567.5l-12.31.19V539.51h0a11.84,11.84,0,0,1,12.31-.7h0Z"/><path class="cls-9" d="M506.93,561.69,494.62,540v-.46h0a14.13,14.13,0,0,1,1.41-.8l10.9,19.17Z"/><polygon class="cls-9" points="494.62 551.62 494.62 542.21 506.93 563.97 506.93 567.5 503.56 567.55 494.62 551.62"/><path class="cls-11" d="M496.5,538.49v29.17l-1.88,0V539.51A13.28,13.28,0,0,1,496.5,538.49Z"/><polygon class="cls-11" points="505.98 566.46 505.92 566.45 505.92 570.03 508.24 571.08 508.24 567.47 505.98 566.46"/><polygon class="cls-11" points="496.51 553.84 506.94 553.46 506.92 552.85 496.49 553.23 496.51 553.84"/><polygon class="cls-11" points="501.82 567.57 502.38 567.58 502.38 537.44 501.82 537.43 501.82 567.57"/><polygon class="cls-9" points="505.92 570.03 492.14 570.19 492.14 566.68 505.92 566.45 505.92 570.03"/><polygon class="cls-9" points="763.19 657.54 763.19 660.83 763.19 667.41 781.19 669.14 781.19 662.43 781.19 659.08 763.19 657.54"/><polygon class="cls-9" points="763.19 645.2 763.19 648.49 763.19 655.07 781.19 656.56 781.19 649.86 781.19 646.5 763.19 645.2"/><polygon class="cls-11" points="763.44 644.44 763.19 645.2 763.44 645.22 781.19 646.5 781.19 645.7 763.44 644.44"/><polygon class="cls-11" points="763.44 656.78 763.19 657.54 763.44 657.57 781.19 659.08 781.19 658.28 763.44 656.78"/><polygon class="cls-11" points="625.22 545.91 766.53 540 766.53 538.55 621.26 544.85 625.22 545.91"/><polygon class="cls-11" points="621.26 544.85 766.53 538.55 766.53 533.56 621.26 540.66 621.26 544.85"/><polygon class="cls-11" points="625.22 623.82 772.41 632.33 772.41 630.89 621.26 622.37 625.22 623.82"/><polygon class="cls-9" points="667.04 625.08 772.41 630.89 772.41 625.9 667.04 620.92 667.04 625.08"/><polygon class="cls-11" points="966.38 575.7 908.52 597.83 719.99 592.71 791.99 573.77 966.38 575.7"/><polygon class="cls-9" points="1078.3 559.07 1093.72 558.84 1093.72 644.97 1078.3 644.25 1078.3 559.07"/><path class="cls-11" d="M1088.93,644.74h0a1,1,0,0,1-1-1v-81a1,1,0,0,1,1-.94h0a1,1,0,0,1,1,.92v81.08A.93.93,0,0,1,1088.93,644.74Z"/><path class="cls-11" d="M1083,644.47h0a1,1,0,0,1-1-1V562.88a1,1,0,0,1,1-.94h0a1,1,0,0,1,1,.91v80.73A.92.92,0,0,1,1083,644.47Z"/><polygon class="cls-9" points="1017.97 559.92 1032.31 559.71 1032.31 642.75 1017.97 642.08 1017.97 559.92"/><path class="cls-11" d="M1027.86,642.54h0a1,1,0,0,1-.94-.94V563.53a.94.94,0,0,1,.94-.92h0a.92.92,0,0,1,.94.89v78.19A.86.86,0,0,1,1027.86,642.54Z"/><path class="cls-11" d="M1022.36,642.29h0a1,1,0,0,1-.93-.94V563.6a.92.92,0,0,1,.93-.91h0a.9.9,0,0,1,.93.88v77.86A.87.87,0,0,1,1022.36,642.29Z"/><polygon class="cls-11" points="1011.91 648.18 1006.78 651.03 1006.11 658.54 1001.01 661.36 1000.34 668.84 995.27 671.63 994.6 679.09 989.55 681.84 988.89 689.29 983.87 692.01 983.21 699.43 1053.67 705.3 1084.32 698.65 1085.14 644.32 1012.58 640.66 1011.91 648.18"/><polygon class="cls-9" points="1011.91 648.18 1084.44 652.13 1085.14 644.32 1012.58 640.66 1011.91 648.18"/><polygon class="cls-9" points="1006.11 658.54 1078.22 662.88 1078.92 655.09 1006.78 651.03 1006.11 658.54"/><polygon class="cls-11" points="1053.67 705.3 1054.36 697.59 1059.76 694.78 1060.45 687.05 1065.88 684.2 1066.57 676.45 1072.03 673.57 1072.73 665.8 1078.22 662.88 1078.92 655.09 1084.44 652.13 1085.12 644.53 1113.37 644.53 1113.37 705.3 1053.67 705.3"/><polygon class="cls-9" points="1017.61 544.1 1093.77 542.07 1094.04 559.06 1017.88 560.22 1017.61 544.1"/><polygon class="cls-11" points="1093.72 542.07 1104.34 547.11 1104.61 564.18 1094 559.06 1093.72 542.07"/><polygon class="cls-11" points="1104.61 523.76 1115.35 528.72 1115.35 533.62 1104.61 528.63 1104.61 523.76"/><polygon class="cls-9" points="1007.89 527.58 1104.61 523.76 1104.61 528.63 1007.89 532.11 1007.89 527.58"/><polygon class="cls-11" points="1008.39 532.1 1104.61 528.64 1094.04 542.07 1017.71 544.1 1008.39 532.1"/><polygon class="cls-11" points="1115.35 533.62 1104.34 547.11 1093.76 542.07 1104.61 528.63 1115.35 533.62"/><path class="cls-11" d="M726.42,676.89h0a1.4,1.4,0,0,1-1.1-1.44V594.23a.28.28,0,0,1,.26-.3l1.69.05a.29.29,0,0,1,.26.31v81.39A1.08,1.08,0,0,1,726.42,676.89Z"/><path class="cls-11" d="M902.05,696h0a1.74,1.74,0,0,1-1.51-1.71V599.23a.33.33,0,0,1,.34-.35l2.33.06a.37.37,0,0,1,.35.37v95.32A1.35,1.35,0,0,1,902.05,696Z"/><path class="cls-11" d="M760.43,593.81l95.84,2.6,52.25,1.42v7.85a7.25,7.25,0,0,1-.91,3.63c-.41.73-.92,1.26-1.67,1.23-2.25-.08-2.25-5.09-4.5-5.16s-2.24,4.91-4.48,4.82-2.22-5.05-4.43-5.12-2.21,4.87-4.41,4.79-2.19-5-4.37-5.09-2.18,4.84-4.34,4.76-2.16-5-4.31-5-2.15,4.81-4.28,4.73-2.13-4.94-4.25-5-2.11,4.78-4.21,4.7-2.1-4.91-4.19-5-2.08,4.74-4.15,4.66h-.1c-2-.08-2.07-4.79-4.08-4.93s-2,4.7-4.05,4.62h-.1c-2-.08-2-4.75-4-4.9-2,0-2,4.67-4,4.59h-.1c-2-.07-2-4.71-4-4.86-2,0-2,4.64-3.94,4.56h-.09c-2-.08-2-4.68-3.91-4.83-1.91,0-1.93,4.61-3.88,4.53h-.09c-1.94-.07-2-4.65-3.85-4.79-1.89,0-1.91,4.57-3.83,4.5H814c-1.91-.07-1.93-4.62-3.8-4.76-1.86,0-1.88,4.54-3.77,4.47h-.1c-1.88-.07-1.9-4.58-3.74-4.72-1.84,0-1.86,4.51-3.72,4.44h-.1c-1.85-.07-1.87-4.55-3.69-4.69-1.81,0-1.83,4.48-3.67,4.42h-.09c-1.84-.07-1.85-4.51-3.65-4.65-1.78,0-1.8,4.45-3.61,4.38h-.1c-1.81-.06-1.82-4.48-3.59-4.62-1.77,0-1.78,4.42-3.57,4.35h-.1c-1.78-.07-1.8-4.45-3.54-4.59-1.74,0-1.76,4.39-3.52,4.32h-.1c-1.76-.07-1.77-4.42-3.5-4.56-1.71,0-1.73,4.36-3.47,4.3h-.09c-1.76-.06-1.76-4.47-3.5-4.53s-1.74,4.33-3.48,4.27-1.73-4.45-3.45-4.51-1.72,4.31-3.43,4.25-1.71-4.42-3.41-4.48-1.69,4.29-3.38,4.22-1.69-4.39-3.37-4.44-1.67,4.25-3.34,4.19-1.66-4.36-3.32-4.42-1.65,4.23-3.3,4.17-1.64-4.33-3.28-4.39-1.63,4.2-3.25,4.14c-.51,0-.86-.44-1.15-1a8.41,8.41,0,0,1-.79-3.68v-6.18Z"/><polygon class="cls-11" points="585.95 590.63 553.1 603.19 446.06 600.28 486.94 589.53 585.95 590.63"/><polygon class="cls-9" points="649.5 581.19 658.25 581.05 658.25 629.96 649.5 629.55 649.5 581.19"/><path class="cls-11" d="M655.53,629.83h0a.6.6,0,0,1-.57-.56v-46a.56.56,0,0,1,.57-.54h0a.54.54,0,0,1,.58.52v46A.53.53,0,0,1,655.53,629.83Z"/><path class="cls-11" d="M652.18,629.67h0a.57.57,0,0,1-.57-.55V583.35a.56.56,0,0,1,.57-.54h0a.55.55,0,0,1,.57.52v45.84A.52.52,0,0,1,652.18,629.67Z"/><polygon class="cls-9" points="615.24 581.67 623.39 581.55 623.39 628.7 615.24 628.32 615.24 581.67"/><path class="cls-11" d="M620.86,628.58h0a.55.55,0,0,1-.54-.54V583.72a.53.53,0,0,1,.54-.52h0a.51.51,0,0,1,.53.5v44.39A.49.49,0,0,1,620.86,628.58Z"/><path class="cls-11" d="M617.73,628.43h0a.54.54,0,0,1-.52-.53V583.75a.51.51,0,0,1,.52-.51h0a.5.5,0,0,1,.53.5V628A.48.48,0,0,1,617.73,628.43Z"/><polygon class="cls-11" points="611.8 631.78 608.89 633.4 608.51 637.66 605.61 639.26 605.24 643.51 602.35 645.09 601.98 649.33 599.11 650.89 598.73 655.12 595.88 656.66 595.51 660.88 635.51 664.21 652.92 660.44 653.38 629.59 612.18 627.51 611.8 631.78"/><polygon class="cls-9" points="611.8 631.78 652.99 634.02 653.38 629.59 612.18 627.51 611.8 631.78"/><polygon class="cls-9" points="608.51 637.66 649.45 640.13 649.85 635.7 608.89 633.4 608.51 637.66"/><polygon class="cls-9" points="605.24 643.51 645.94 646.2 646.33 641.78 605.61 639.26 605.24 643.51"/><polygon class="cls-9" points="601.98 649.33 642.45 652.23 642.84 647.83 602.35 645.09 601.98 649.33"/><polygon class="cls-9" points="598.73 655.12 638.97 658.24 639.36 653.85 599.11 650.89 598.73 655.12"/><polygon class="cls-9" points="595.51 660.88 635.51 664.21 635.9 659.83 595.88 656.66 595.51 660.88"/><polygon class="cls-11" points="635.51 664.21 635.9 659.83 638.97 658.24 639.36 653.85 642.45 652.23 642.84 647.83 645.94 646.2 646.33 641.78 649.45 640.13 649.85 635.7 652.99 634.02 653.37 629.71 669.41 629.71 669.41 664.21 635.51 664.21"/><polygon class="cls-9" points="615.04 572.68 658.28 571.53 658.43 581.18 615.19 581.84 615.04 572.68"/><polygon class="cls-11" points="658.25 571.53 664.28 574.39 664.44 584.09 658.41 581.18 658.25 571.53"/><polygon class="cls-11" points="664.44 561.14 670.53 563.95 670.53 566.74 664.44 563.9 664.44 561.14"/><polygon class="cls-9" points="609.52 563.3 664.44 561.14 664.44 563.9 609.52 565.88 609.52 563.3"/><polygon class="cls-11" points="609.81 565.87 664.44 563.91 658.43 571.53 615.09 572.69 609.81 565.87"/><polygon class="cls-11" points="670.53 566.74 664.28 574.39 658.28 571.53 664.44 563.9 670.53 566.74"/><path class="cls-11" d="M449.71,648.08h0a.8.8,0,0,1-.62-.82V601.15a.15.15,0,0,1,.14-.17l1,0a.17.17,0,0,1,.15.17V647.4A.61.61,0,0,1,449.71,648.08Z"/><path class="cls-11" d="M549.43,658.94h0a1,1,0,0,1-.86-1V604a.19.19,0,0,1,.2-.19l1.32,0a.22.22,0,0,1,.2.21v54.12A.77.77,0,0,1,549.43,658.94Z"/><path class="cls-11" d="M469,600.91l54.42,1.48,29.66.8v4.46a4.17,4.17,0,0,1-.51,2.06c-.24.41-.53.72-1,.7-1.28,0-1.28-2.89-2.56-2.93s-1.27,2.78-2.54,2.74-1.26-2.87-2.52-2.91-1.25,2.76-2.5,2.72-1.24-2.85-2.48-2.89-1.24,2.75-2.47,2.7-1.22-2.82-2.45-2.87-1.21,2.73-2.42,2.69-1.21-2.81-2.41-2.85-1.2,2.71-2.4,2.66-1.19-2.78-2.38-2.82-1.18,2.69-2.35,2.65h-.06c-1.16,0-1.17-2.71-2.32-2.8s-1.14,2.67-2.29,2.63h-.06c-1.15,0-1.16-2.7-2.28-2.78S514,609,512.88,609h0c-1.13,0-1.14-2.67-2.25-2.76s-1.11,2.64-2.23,2.59h-.06c-1.11,0-1.12-2.65-2.22-2.74s-1.09,2.62-2.2,2.58h-.05c-1.1,0-1.11-2.63-2.19-2.72s-1.08,2.6-2.17,2.56h0c-1.09,0-1.1-2.62-2.16-2.7s-1.07,2.58-2.14,2.53h-.06c-1.07,0-1.08-2.6-2.12-2.68s-1.06,2.56-2.11,2.52h-.06c-1.05,0-1.06-2.58-2.1-2.66s-1,2.54-2.08,2.5h-.05c-1,0-1-2.56-2.07-2.64s-1,2.52-2,2.49h-.06c-1,0-1-2.54-2-2.62s-1,2.51-2,2.47h-.06c-1,0-1-2.53-2-2.61s-1,2.49-2,2.46h-.05c-1,0-1-2.51-2-2.59s-1,2.48-2,2.44h-.06c-1,0-1-2.54-2-2.57s-1,2.46-2,2.42-1-2.52-2-2.55-1,2.44-1.94,2.41-1-2.51-1.94-2.54-1,2.43-1.92,2.39-1-2.49-1.91-2.52-.95,2.41-1.9,2.38-.94-2.48-1.88-2.51-.94,2.4-1.88,2.36-.93-2.46-1.86-2.49-.92,2.39-1.85,2.35c-.28,0-.48-.25-.65-.58a4.76,4.76,0,0,1-.44-2.08v-3.52Z"/><path class="cls-11" d="M757.34,677h0c.41,0,.75-.2.75-.53V653.37a.74.74,0,0,0-.75-.64h0a.62.62,0,0,0-.74.54v23.07A.77.77,0,0,0,757.34,677Z"/><path class="cls-11" d="M760.15,658.05h0a.75.75,0,0,0-.75-.65l-4.11-.29a.62.62,0,0,0-.74.54h0a.74.74,0,0,0,.74.64l4.11.3A.63.63,0,0,0,760.15,658.05Z"/><path class="cls-11" d="M748.93,676.22h0a.6.6,0,0,0,.73-.52V652.81a.72.72,0,0,0-.73-.64h0a.61.61,0,0,0-.72.54v22.85A.74.74,0,0,0,748.93,676.22Z"/><path class="cls-11" d="M751.69,657.44h0a.74.74,0,0,0-.74-.64l-4-.29a.61.61,0,0,0-.72.54h0a.72.72,0,0,0,.72.63l4,.29C751.36,658,751.69,657.76,751.69,657.44Z"/><path class="cls-11" d="M740.69,675.44h0a.58.58,0,0,0,.71-.51V652.25a.7.7,0,0,0-.71-.62h0a.61.61,0,0,0-.72.53V674.8A.73.73,0,0,0,740.69,675.44Z"/><path class="cls-11" d="M743.39,656.84h0a.73.73,0,0,0-.72-.63l-4-.28a.6.6,0,0,0-.71.53h0a.72.72,0,0,0,.71.63l4,.28A.61.61,0,0,0,743.39,656.84Z"/><path class="cls-11" d="M732.59,674.69h0c.39,0,.7-.19.7-.51V651.71a.71.71,0,0,0-.7-.62h0a.6.6,0,0,0-.7.53v22.43A.73.73,0,0,0,732.59,674.69Z"/><path class="cls-11" d="M735.24,656.26h0a.72.72,0,0,0-.7-.63l-3.89-.28a.6.6,0,0,0-.69.53h0a.7.7,0,0,0,.69.62l3.89.28A.59.59,0,0,0,735.24,656.26Z"/><path class="cls-11" d="M724.65,673.94h0a.57.57,0,0,0,.69-.5V651.18a.69.69,0,0,0-.69-.61h0a.59.59,0,0,0-.69.52v22.22A.71.71,0,0,0,724.65,673.94Z"/><path class="cls-11" d="M727.25,655.68h0a.71.71,0,0,0-.7-.62l-3.8-.27a.59.59,0,0,0-.69.52h0a.7.7,0,0,0,.69.62l3.8.27A.59.59,0,0,0,727.25,655.68Z"/><path class="cls-11" d="M716.85,673.21h0a.57.57,0,0,0,.68-.5V650.66a.69.69,0,0,0-.68-.61h0a.59.59,0,0,0-.68.52v22A.69.69,0,0,0,716.85,673.21Z"/><path class="cls-11" d="M719.4,655.12h0a.69.69,0,0,0-.68-.62l-3.74-.26a.57.57,0,0,0-.67.51h0a.68.68,0,0,0,.67.61l3.74.28A.59.59,0,0,0,719.4,655.12Z"/><path class="cls-11" d="M709.19,672.5h0a.56.56,0,0,0,.67-.5V650.15a.67.67,0,0,0-.67-.6h0a.56.56,0,0,0-.66.51v21.81A.71.71,0,0,0,709.19,672.5Z"/><path class="cls-11" d="M711.7,654.57h0A.68.68,0,0,0,711,654l-3.67-.26a.56.56,0,0,0-.66.51h0a.68.68,0,0,0,.66.6l3.67.27A.58.58,0,0,0,711.7,654.57Z"/><path class="cls-11" d="M701.67,671.79h0a.55.55,0,0,0,.66-.49V649.65a.66.66,0,0,0-.66-.6h0a.56.56,0,0,0-.65.51v21.62A.68.68,0,0,0,701.67,671.79Z"/><path class="cls-11" d="M704.14,654h0a.66.66,0,0,0-.66-.6l-3.6-.26a.56.56,0,0,0-.65.51h0a.67.67,0,0,0,.65.6l3.6.26A.56.56,0,0,0,704.14,654Z"/><path class="cls-11" d="M694.29,671.1h0a.54.54,0,0,0,.64-.49V649.15a.64.64,0,0,0-.64-.59h0a.56.56,0,0,0-.64.51v21.42A.68.68,0,0,0,694.29,671.1Z"/><path class="cls-11" d="M696.71,653.49h0a.66.66,0,0,0-.64-.6l-3.54-.25a.55.55,0,0,0-.64.5h0a.64.64,0,0,0,.64.59l3.54.26A.55.55,0,0,0,696.71,653.49Z"/><path class="cls-11" d="M687,670.42h0a.53.53,0,0,0,.63-.49V648.67a.64.64,0,0,0-.63-.59h0a.55.55,0,0,0-.63.5v21.24A.66.66,0,0,0,687,670.42Z"/><path class="cls-11" d="M689.41,653h0a.65.65,0,0,0-.63-.59l-3.48-.25a.54.54,0,0,0-.62.5h0a.64.64,0,0,0,.62.59l3.48.25A.54.54,0,0,0,689.41,653Z"/><path class="cls-11" d="M679.92,669.75h0a.51.51,0,0,0,.61-.48V648.19a.62.62,0,0,0-.61-.58h0a.54.54,0,0,0-.62.5v21A.65.65,0,0,0,679.92,669.75Z"/><path class="cls-11" d="M682.25,652.45h0a.65.65,0,0,0-.62-.59l-3.42-.24a.53.53,0,0,0-.61.49h0a.64.64,0,0,0,.61.59l3.42.24A.53.53,0,0,0,682.25,652.45Z"/><path class="cls-11" d="M672.91,669.1h0a.51.51,0,0,0,.61-.48v-20.9a.62.62,0,0,0-.61-.57h0a.53.53,0,0,0-.6.49v20.87A.64.64,0,0,0,672.91,669.1Z"/><path class="cls-11" d="M675.21,651.94h0a.64.64,0,0,0-.61-.58l-3.36-.24a.53.53,0,0,0-.6.49h0a.62.62,0,0,0,.6.58l3.36.24A.53.53,0,0,0,675.21,651.94Z"/><path class="cls-11" d="M666,668.45h0a.5.5,0,0,0,.59-.47V647.26a.62.62,0,0,0-.59-.57h0a.53.53,0,0,0-.6.49v20.69A.63.63,0,0,0,666,668.45Z"/><path class="cls-11" d="M668.29,651.44h0a.62.62,0,0,0-.6-.57l-3.3-.24a.52.52,0,0,0-.59.49h0a.61.61,0,0,0,.59.57l3.3.24A.52.52,0,0,0,668.29,651.44Z"/><path class="cls-11" d="M659.27,667.82h0a.5.5,0,0,0,.59-.47V646.81a.6.6,0,0,0-.59-.56h0a.51.51,0,0,0-.58.48v20.51A.62.62,0,0,0,659.27,667.82Z"/><path class="cls-11" d="M661.49,651h0a.6.6,0,0,0-.59-.57l-3.24-.24a.52.52,0,0,0-.59.49h0a.6.6,0,0,0,.59.56l3.24.24A.51.51,0,0,0,661.49,651Z"/><path class="cls-11" d="M652.63,667.2h0a.5.5,0,0,0,.58-.47V646.37a.6.6,0,0,0-.58-.56h0a.51.51,0,0,0-.58.48v20.33A.62.62,0,0,0,652.63,667.2Z"/><path class="cls-11" d="M654.81,650.47h0a.61.61,0,0,0-.58-.56l-3.19-.23a.51.51,0,0,0-.58.48h0a.6.6,0,0,0,.58.56l3.19.24A.52.52,0,0,0,654.81,650.47Z"/><path class="cls-11" d="M646.09,666.59h0a.49.49,0,0,0,.57-.47V645.93a.58.58,0,0,0-.57-.55h0a.49.49,0,0,0-.56.47V666A.61.61,0,0,0,646.09,666.59Z"/><path class="cls-11" d="M648.23,650h0a.6.6,0,0,0-.57-.56l-3.13-.22a.51.51,0,0,0-.57.48h0a.59.59,0,0,0,.57.55l3.13.23A.5.5,0,0,0,648.23,650Z"/><path class="cls-11" d="M639.67,666h0a.48.48,0,0,0,.56-.46v-20a.58.58,0,0,0-.56-.55h0a.5.5,0,0,0-.56.48v20A.59.59,0,0,0,639.67,666Z"/><path class="cls-11" d="M641.77,649.54h0a.59.59,0,0,0-.56-.56l-3.08-.22a.5.5,0,0,0-.56.48h0a.59.59,0,0,0,.56.55l3.08.22A.5.5,0,0,0,641.77,649.54Z"/><path class="cls-11" d="M633.35,665.39h0a.47.47,0,0,0,.55-.46V645.08a.58.58,0,0,0-.55-.55h0a.49.49,0,0,0-.55.47v19.83A.6.6,0,0,0,633.35,665.39Z"/><path class="cls-11" d="M635.42,649.08h0a.58.58,0,0,0-.55-.55l-3-.21a.47.47,0,0,0-.55.46h0a.58.58,0,0,0,.55.55l3,.22A.49.49,0,0,0,635.42,649.08Z"/><path class="cls-11" d="M760.52,662.81h0a.75.75,0,0,0-.75-.65l-128.21-9.82a.48.48,0,0,0-.54.47h0a.58.58,0,0,0,.54.55l128.21,10C760.19,663.38,760.52,663.14,760.52,662.81Z"/></g></g></g></g></svg>