<svg id="Cover" xmlns="http://www.w3.org/2000/svg" xmlns:xlink="http://www.w3.org/1999/xlink" viewBox="0 0 359 315.44"><defs><style>.cls-1{fill:none;}.cls-2{clip-path:url(#clip-path);}.cls-3{fill:#e6eef0;}.cls-4{fill:#f2f6f7;}.cls-5{fill:#d8e3e6;}.cls-6{fill:#c7d6db;}.cls-7{fill:#ccdbe0;}.cls-8{fill:#e1e9eb;}.cls-9{fill:#e0e9eb;}.cls-10{fill:#b9c6cc;}.cls-11{fill:#d3dcde;}.cls-12{fill:#fff;}.cls-13{fill:#dce4e6;}.cls-14{fill:url(#linear-gradient);}.cls-15{fill:url(#linear-gradient-2);}.cls-16{fill:#f08300;}.cls-17{fill:#e36302;}.cls-18{fill:url(#linear-gradient-3);}.cls-19{fill:url(#linear-gradient-4);}.cls-20{fill:url(#linear-gradient-5);}.cls-21{fill:url(#linear-gradient-6);}.cls-22{fill:url(#linear-gradient-7);}.cls-23{fill:url(#linear-gradient-8);}.cls-24{fill:#f0a822;}.cls-25{fill:url(#linear-gradient-9);}.cls-26{fill:url(#linear-gradient-10);}.cls-27{fill:url(#linear-gradient-11);}.cls-28{fill:url(#linear-gradient-12);}.cls-29{fill:url(#linear-gradient-13);}.cls-30{fill:url(#linear-gradient-14);}.cls-31{fill:url(#linear-gradient-15);}.cls-32{fill:url(#linear-gradient-16);}.cls-33{fill:url(#linear-gradient-17);}.cls-34{fill:url(#linear-gradient-18);}.cls-35{fill:#130f2f;}.cls-36{fill:#6c301e;}.cls-37{fill:url(#linear-gradient-19);}.cls-38{fill:url(#linear-gradient-20);}.cls-39{fill:url(#linear-gradient-21);}.cls-40{fill:url(#linear-gradient-22);}.cls-41{fill:url(#linear-gradient-23);}.cls-42{fill:url(#linear-gradient-24);}.cls-43{fill:url(#linear-gradient-25);}.cls-44{fill:url(#linear-gradient-26);}.cls-45{fill:url(#linear-gradient-27);}.cls-46{fill:url(#linear-gradient-28);}.cls-47{fill:url(#linear-gradient-29);}.cls-48{fill:url(#linear-gradient-30);}.cls-49{fill:url(#linear-gradient-31);}.cls-50{fill:url(#linear-gradient-32);}.cls-51{fill:url(#linear-gradient-33);}.cls-52{fill:url(#linear-gradient-34);}.cls-53{fill:url(#linear-gradient-35);}.cls-54{fill:url(#linear-gradient-36);}.cls-55{fill:url(#linear-gradient-37);}.cls-56{fill:url(#linear-gradient-38);}.cls-57{fill:url(#linear-gradient-39);}.cls-58{fill:url(#linear-gradient-40);}.cls-59{fill:url(#linear-gradient-41);}.cls-60{fill:url(#linear-gradient-42);}.cls-61{fill:url(#linear-gradient-43);}.cls-62{fill:url(#linear-gradient-44);}.cls-63{fill:url(#linear-gradient-45);}.cls-64{fill:url(#linear-gradient-46);}.cls-65{fill:url(#linear-gradient-47);}.cls-66{fill:url(#linear-gradient-48);}.cls-67{fill:url(#linear-gradient-49);}.cls-68{fill:url(#linear-gradient-50);}.cls-69{fill:url(#linear-gradient-51);}.cls-70{fill:url(#linear-gradient-52);}.cls-71{fill:url(#linear-gradient-53);}.cls-72{fill:url(#linear-gradient-54);}.cls-73{fill:url(#linear-gradient-55);}.cls-74{fill:url(#linear-gradient-56);}.cls-75{fill:url(#linear-gradient-57);}.cls-76{fill:url(#linear-gradient-58);}.cls-77{fill:url(#linear-gradient-59);}.cls-78{fill:url(#linear-gradient-60);}.cls-79{fill:url(#linear-gradient-61);}.cls-80{fill:url(#linear-gradient-62);}.cls-81{fill:url(#linear-gradient-63);}.cls-82{fill:url(#linear-gradient-64);}.cls-83{fill:url(#linear-gradient-65);}.cls-84{fill:url(#linear-gradient-66);}.cls-85{fill:url(#linear-gradient-67);}.cls-86{fill:url(#linear-gradient-68);}.cls-87{fill:url(#linear-gradient-69);}</style><clipPath id="clip-path"><rect class="cls-1" y="-52.8" width="359" height="368.24"/></clipPath><linearGradient id="linear-gradient" x1="84.26" y1="164.14" x2="84.26" y2="222.71" gradientUnits="userSpaceOnUse"><stop offset="0.65" stop-color="#f0a400"/><stop offset="0.73" stop-color="#ef9f00"/><stop offset="0.82" stop-color="#ec9201"/><stop offset="0.92" stop-color="#e87c01"/><stop offset="1" stop-color="#e36302"/></linearGradient><linearGradient id="linear-gradient-2" x1="84.26" y1="222.71" x2="84.26" y2="164.14" gradientUnits="userSpaceOnUse"><stop offset="0" stop-color="#f0a400"/><stop offset="0.24" stop-color="#eb8901"/><stop offset="0.5" stop-color="#e67401"/><stop offset="0.76" stop-color="#e46702"/><stop offset="1" stop-color="#e36302"/></linearGradient><linearGradient id="linear-gradient-3" x1="66.95" y1="134.64" x2="101.64" y2="169.33" gradientUnits="userSpaceOnUse"><stop offset="0" stop-color="#6c301e"/><stop offset="0.5" stop-color="#4f1a1e"/><stop offset="1" stop-color="#6c301e"/></linearGradient><linearGradient id="linear-gradient-4" x1="72.03" y1="226.12" x2="96.62" y2="226.12" gradientUnits="userSpaceOnUse"><stop offset="0" stop-color="#e36302"/><stop offset="0.5" stop-color="#f0a400"/><stop offset="0.62" stop-color="#ef9f00"/><stop offset="0.75" stop-color="#ec9201"/><stop offset="0.88" stop-color="#e87c01"/><stop offset="1" stop-color="#e36302"/></linearGradient><linearGradient id="linear-gradient-5" x1="84.32" y1="229.54" x2="84.32" y2="236.36" gradientUnits="userSpaceOnUse"><stop offset="0.27" stop-color="#4f1a1e"/><stop offset="0.73" stop-color="#6c301e"/></linearGradient><linearGradient id="linear-gradient-6" x1="66.32" y1="239.78" x2="102.32" y2="239.78" xlink:href="#linear-gradient-4"/><linearGradient id="linear-gradient-7" x1="84.32" y1="243.19" x2="84.32" y2="245.83" xlink:href="#linear-gradient-5"/><linearGradient id="linear-gradient-8" x1="61.64" y1="174.67" x2="107" y2="129.31" gradientUnits="userSpaceOnUse"><stop offset="0.27" stop-color="#f0a400"/><stop offset="0.55" stop-color="#e36302"/><stop offset="0.91" stop-color="#f0a400"/></linearGradient><linearGradient id="linear-gradient-9" x1="84.34" y1="152.97" x2="108.48" y2="152.97" gradientUnits="userSpaceOnUse"><stop offset="0" stop-color="#f0a400"/><stop offset="0.23" stop-color="#ef9f00"/><stop offset="0.5" stop-color="#ec9201"/><stop offset="0.77" stop-color="#e87c01"/><stop offset="1" stop-color="#e36302"/></linearGradient><linearGradient id="linear-gradient-10" x1="89.45" y1="153.75" x2="97.55" y2="131.06" gradientUnits="userSpaceOnUse"><stop offset="0.26" stop-color="#f0a400"/><stop offset="0.44" stop-color="#ef9f00"/><stop offset="0.63" stop-color="#ec9201"/><stop offset="0.83" stop-color="#e87c01"/><stop offset="1" stop-color="#e36302"/></linearGradient><linearGradient id="linear-gradient-11" x1="94.13" y1="149.63" x2="99.42" y2="163.29" xlink:href="#linear-gradient-9"/><linearGradient id="linear-gradient-12" x1="71.45" y1="152.66" x2="61.49" y2="156.71" xlink:href="#linear-gradient-9"/><linearGradient id="linear-gradient-13" x1="78" y1="147.18" x2="67.43" y2="133.44" xlink:href="#linear-gradient-9"/><linearGradient id="linear-gradient-14" x1="79.01" y1="152.68" x2="58.75" y2="164.52" xlink:href="#linear-gradient-9"/><linearGradient id="linear-gradient-15" x1="75.96" y1="143.63" x2="82.63" y2="136.96" xlink:href="#linear-gradient-9"/><linearGradient id="linear-gradient-16" x1="89.38" y1="139.37" x2="94.09" y2="131.21" gradientUnits="userSpaceOnUse"><stop offset="0" stop-color="#f0a400"/><stop offset="0.22" stop-color="#ef9f00"/><stop offset="0.46" stop-color="#ec9201"/><stop offset="0.72" stop-color="#e87c01"/><stop offset="0.93" stop-color="#e36302"/></linearGradient><linearGradient id="linear-gradient-17" x1="84.34" y1="175.7" x2="92.47" y2="175.7" xlink:href="#linear-gradient-9"/><linearGradient id="linear-gradient-18" x1="100.58" y1="178.47" x2="67.56" y2="172.9" xlink:href="#linear-gradient-9"/><linearGradient id="linear-gradient-19" x1="287.85" y1="155.85" x2="297.85" y2="155.85" gradientUnits="userSpaceOnUse"><stop offset="0.31" stop-color="#4f1a1e"/><stop offset="0.73" stop-color="#6c301e"/></linearGradient><linearGradient id="linear-gradient-20" x1="282.28" y1="183.32" x2="295.92" y2="183.32" xlink:href="#linear-gradient-19"/><linearGradient id="linear-gradient-21" x1="259.55" y1="169" x2="281.58" y2="169" xlink:href="#linear-gradient-19"/><linearGradient id="linear-gradient-22" x1="253.12" y1="147.48" x2="266.03" y2="147.48" xlink:href="#linear-gradient-19"/><linearGradient id="linear-gradient-23" x1="268.39" y1="135.25" x2="291.03" y2="135.25" xlink:href="#linear-gradient-19"/><linearGradient id="linear-gradient-24" x1="278.43" y1="210.24" x2="288.98" y2="210.24" xlink:href="#linear-gradient-19"/><linearGradient id="linear-gradient-25" x1="253.2" y1="153.99" x2="253.2" y2="175.24" xlink:href="#linear-gradient-19"/><linearGradient id="linear-gradient-26" x1="264.56" y1="178.23" x2="264.56" y2="200.98" xlink:href="#linear-gradient-19"/><linearGradient id="linear-gradient-27" x1="268.24" y1="205.33" x2="268.24" y2="228.99" xlink:href="#linear-gradient-19"/><linearGradient id="linear-gradient-28" x1="298.16" y1="128.04" x2="298.16" y2="149.28" xlink:href="#linear-gradient-19"/><linearGradient id="linear-gradient-29" x1="275.68" y1="121.01" x2="275.68" y2="130.35" xlink:href="#linear-gradient-19"/><linearGradient id="linear-gradient-30" x1="253.2" y1="128.04" x2="253.2" y2="149.29" xlink:href="#linear-gradient-19"/><linearGradient id="linear-gradient-31" x1="285.54" y1="170.91" x2="298.23" y2="168.73" gradientUnits="userSpaceOnUse"><stop offset="0.44" stop-color="#b96e2b"/><stop offset="1" stop-color="#9e472c"/></linearGradient><linearGradient id="linear-gradient-32" x1="285.62" y1="163.32" x2="304.36" y2="163.32" xlink:href="#linear-gradient-19"/><linearGradient id="linear-gradient-33" x1="294.24" y1="152.29" x2="307.02" y2="150.66" xlink:href="#linear-gradient-31"/><linearGradient id="linear-gradient-34" x1="280.48" y1="164.36" x2="286.71" y2="175.64" xlink:href="#linear-gradient-31"/><linearGradient id="linear-gradient-35" x1="265.72" y1="155.84" x2="256.27" y2="164.59" xlink:href="#linear-gradient-31"/><linearGradient id="linear-gradient-36" x1="271.91" y1="141.59" x2="262.5" y2="132.79" xlink:href="#linear-gradient-31"/><linearGradient id="linear-gradient-37" x1="285.19" y1="147.52" x2="294.36" y2="138.47" xlink:href="#linear-gradient-31"/><linearGradient id="linear-gradient-38" x1="279.2" y1="197.06" x2="292.05" y2="196.17" xlink:href="#linear-gradient-31"/><linearGradient id="linear-gradient-39" x1="276.22" y1="225.14" x2="288.89" y2="222.78" xlink:href="#linear-gradient-31"/><linearGradient id="linear-gradient-40" x1="251.92" y1="168.84" x2="267.79" y2="184.72" xlink:href="#linear-gradient-31"/><linearGradient id="linear-gradient-41" x1="259.79" y1="196.02" x2="274.05" y2="210.28" xlink:href="#linear-gradient-31"/><linearGradient id="linear-gradient-42" x1="262.49" y1="224.14" x2="276.75" y2="238.4" xlink:href="#linear-gradient-31"/><linearGradient id="linear-gradient-43" x1="280.71" y1="121.15" x2="296.71" y2="137.15" xlink:href="#linear-gradient-31"/><linearGradient id="linear-gradient-44" x1="258.1" y1="124.45" x2="267.21" y2="133.56" xlink:href="#linear-gradient-31"/><linearGradient id="linear-gradient-45" x1="242.99" y1="144.9" x2="256.46" y2="158.38" xlink:href="#linear-gradient-31"/><linearGradient id="linear-gradient-46" x1="263.38" y1="226.03" x2="287.97" y2="226.03" gradientUnits="userSpaceOnUse"><stop offset="0" stop-color="#6c301e"/><stop offset="0.5" stop-color="#b96e2b"/><stop offset="1" stop-color="#6c301e"/></linearGradient><linearGradient id="linear-gradient-47" x1="275.68" y1="229.44" x2="275.68" y2="236.27" xlink:href="#linear-gradient-5"/><linearGradient id="linear-gradient-48" x1="257.68" y1="239.69" x2="293.68" y2="239.69" xlink:href="#linear-gradient-46"/><linearGradient id="linear-gradient-49" x1="275.68" y1="243.1" x2="275.68" y2="245.74" xlink:href="#linear-gradient-5"/><linearGradient id="linear-gradient-50" x1="166.23" y1="222.71" x2="166.23" y2="176.28" gradientUnits="userSpaceOnUse"><stop offset="0" stop-color="#879196"/><stop offset="0.14" stop-color="#929ea3"/><stop offset="0.47" stop-color="#a9babd"/><stop offset="0.67" stop-color="#b1c4c7"/><stop offset="0.77" stop-color="#aec0c3"/><stop offset="0.86" stop-color="#a5b5b8"/><stop offset="0.94" stop-color="#95a2a6"/><stop offset="1" stop-color="#879196"/></linearGradient><linearGradient id="linear-gradient-51" x1="169.75" y1="222.9" x2="169.75" y2="179.99" xlink:href="#linear-gradient-50"/><linearGradient id="linear-gradient-52" x1="172.48" y1="223.07" x2="172.48" y2="181.25" xlink:href="#linear-gradient-50"/><linearGradient id="linear-gradient-53" x1="174.13" y1="223.25" x2="174.13" y2="181.99" xlink:href="#linear-gradient-50"/><linearGradient id="linear-gradient-54" x1="176.19" y1="223.43" x2="176.19" y2="180.87" xlink:href="#linear-gradient-50"/><linearGradient id="linear-gradient-55" x1="177.92" y1="223.61" x2="177.92" y2="181.87" xlink:href="#linear-gradient-50"/><linearGradient id="linear-gradient-56" x1="179.72" y1="223.79" x2="179.72" y2="181.35" xlink:href="#linear-gradient-50"/><linearGradient id="linear-gradient-57" x1="181.53" y1="223.96" x2="181.53" y2="180.62" xlink:href="#linear-gradient-50"/><linearGradient id="linear-gradient-58" x1="183.68" y1="224.14" x2="183.68" y2="179.1" xlink:href="#linear-gradient-50"/><linearGradient id="linear-gradient-59" x1="193.8" y1="222.71" x2="193.8" y2="176.28" gradientUnits="userSpaceOnUse"><stop offset="0" stop-color="#879196"/><stop offset="0.21" stop-color="#9dacb0"/><stop offset="0.44" stop-color="#b1c4c7"/><stop offset="0.8" stop-color="#93a0a4"/><stop offset="1" stop-color="#879196"/></linearGradient><linearGradient id="linear-gradient-60" x1="192.17" y1="223" x2="192.17" y2="176.45" xlink:href="#linear-gradient-59"/><linearGradient id="linear-gradient-61" x1="190.74" y1="223.29" x2="190.74" y2="175.82" xlink:href="#linear-gradient-59"/><linearGradient id="linear-gradient-62" x1="188.65" y1="223.57" x2="188.65" y2="176.79" xlink:href="#linear-gradient-59"/><linearGradient id="linear-gradient-63" x1="186.32" y1="223.86" x2="186.32" y2="177.84" xlink:href="#linear-gradient-59"/><linearGradient id="linear-gradient-64" x1="183.68" y1="224.14" x2="183.68" y2="179.1" xlink:href="#linear-gradient-59"/><linearGradient id="linear-gradient-65" x1="167.72" y1="226.13" x2="192.31" y2="226.13" gradientUnits="userSpaceOnUse"><stop offset="0" stop-color="#879196"/><stop offset="0.5" stop-color="#b1c4c7"/><stop offset="1" stop-color="#879196"/></linearGradient><linearGradient id="linear-gradient-66" x1="180.01" y1="229.54" x2="180.01" y2="236.37" gradientUnits="userSpaceOnUse"><stop offset="0.27" stop-color="#15193d"/><stop offset="0.73" stop-color="#2d2f47"/></linearGradient><linearGradient id="linear-gradient-67" x1="162.02" y1="239.78" x2="198.01" y2="239.78" xlink:href="#linear-gradient-65"/><linearGradient id="linear-gradient-68" x1="180.01" y1="243.19" x2="180.01" y2="245.83" xlink:href="#linear-gradient-66"/><linearGradient id="linear-gradient-69" x1="157.36" y1="173.84" x2="202.67" y2="128.54" gradientUnits="userSpaceOnUse"><stop offset="0.27" stop-color="#b1c4c7"/><stop offset="0.53" stop-color="#879196"/><stop offset="0.83" stop-color="#b1c4c7"/></linearGradient></defs><g class="cls-2"><rect class="cls-3" x="0.2" y="-52.8" width="358.8" height="368.01"/><polygon class="cls-4" points="193.96 -52.8 161.72 -52.8 -2.65 173.16 -2.65 345.14 359.93 345.14 359.93 173.16 193.96 -52.8"/><polygon class="cls-3" points="46.59 257.01 27 334.52 336.46 334.52 310.69 257.01 46.59 257.01"/><path class="cls-5" d="M97.31,292.23h0a5.55,5.55,0,0,0,5.55-5.55v-9.17a6.28,6.28,0,0,1,6.27-6.28h0a6.28,6.28,0,0,0,6.28-6.27V254.5H91.34l.43,32.27A5.55,5.55,0,0,0,97.31,292.23Z"/><polygon class="cls-6" points="91.6 267.5 115.41 261.02 115.41 257.07 91.38 257.07 91.6 267.5"/><path class="cls-5" d="M241.69,292.23h0a5.55,5.55,0,0,0,5.55-5.55v-9.17a6.28,6.28,0,0,1,6.27-6.28h0a6.28,6.28,0,0,0,6.28-6.27V254.5H235.72l.43,32.27A5.55,5.55,0,0,0,241.69,292.23Z"/><polygon class="cls-6" points="235.98 267.5 259.79 261.02 259.79 257.07 235.76 257.07 235.98 267.5"/><rect class="cls-6" x="46.59" y="246.07" width="264.11" height="11"/><path class="cls-7" d="M372.77-9.22H252.62a4.94,4.94,0,0,0-4.94,4.94V19.48l1.21,1.66a3.44,3.44,0,0,1,.67,1.84L253,81.18a3.45,3.45,0,0,0,3.33,3.25l38.27,1.33a3.51,3.51,0,0,1,2.68,1.41l1,1.42h74.51a3.46,3.46,0,0,0,3.46-3.46V-5.76A3.46,3.46,0,0,0,372.77-9.22Z"/><path class="cls-8" d="M252.62,88.59h45.64L247.68,19.48V83.65A4.94,4.94,0,0,0,252.62,88.59Z"/><polygon class="cls-8" points="366.13 79.37 366.13 0 257.78 0 257.78 33.28 291.52 79.37 366.13 79.37"/><polygon class="cls-3" points="291.52 79.37 257.78 33.28 257.78 79.37 291.52 79.37"/><path class="cls-4" d="M257.78,79.37h33.74l-19.31-29a63.12,63.12,0,0,0-14.43,9.49Z"/><path class="cls-4" d="M302.3,47.46c-9.85-1.72-19.42-2-30.09,2.91l19.31,29h74.61V70.72C352.09,70.72,312.68,49.28,302.3,47.46Z"/><circle class="cls-4" cx="346.92" cy="39.69" r="12.58"/><path class="cls-9" d="M6.66,160.36l-26.85,36.91c7.92-3.56,12.06-.94,17.62-5.76,4.9-4.24,4.16-8.42,8.23-13.89a5.61,5.61,0,0,0-3.13-1.2,30.19,30.19,0,0,1,5.28-1.32c.26-.27.53-.54.82-.81a60.66,60.66,0,0,1,9-7.21S12.78,161.55,6.66,160.36Z"/><path class="cls-7" d="M-9.08,163.23c-9,6-11.49,27.25-24.14,43.19,1.16.63,2.85-3.22,9.46-7.25a31.65,31.65,0,0,1,3.57-1.9L6.66,160.36A21,21,0,0,0-9.08,163.23Z"/><path class="cls-10" d="M-34.51,203.42a.26.26,0,0,1-.17,0,.28.28,0,0,1-.06-.39c7.66-10.41,13.53-18,19.16-23.43,6-5.85,11.59-9,17.49-10a.28.28,0,0,1,.09.55c-5.79.92-11.25,4-17.19,9.8-5.6,5.44-11.46,13-19.1,23.36A.28.28,0,0,1-34.51,203.42Z"/><path class="cls-1" d="M33.06,308.18l.55-2.07c-1.13-.12-2.18-.18-3.1-.21C30.88,306.27,31.84,307.09,33.06,308.18Z"/><path class="cls-11" d="M29.3,325.21c5.53-2.39,6.15-7.48,8.58-12.44-1.62-1.71-3.39-3.33-4.82-4.59l-4.55,17.34C28.77,325.43,29,325.33,29.3,325.21Z"/><path class="cls-5" d="M85.32,280.15c-.49-.93-4.36.05-7.82.33-7.11.58-12.81-1.74-17.91-4.39-2.77.87-5.43,2-6.14,2.24a18.33,18.33,0,0,1,2.95-4,45.26,45.26,0,0,0-13.25-4.63L33.61,306.1a32.13,32.13,0,0,1,8.88,2A20.8,20.8,0,0,1,47.13,305c7.67-3.83,11.8-1.11,18.49-6.14a17.22,17.22,0,0,0,2.28-2c-2.38-1.62-5.1-3-5.72-3.45a22.12,22.12,0,0,1,7.93.59,30.58,30.58,0,0,1,5.65-6.07C81.18,283.24,85.89,281.21,85.32,280.15Z"/><path class="cls-9" d="M38.9,269.92c-2.76.8-2.17,2-5.49,4.52-.48.37-1,.77-1.72,1.21a25.53,25.53,0,0,1-7.1,3.24c-5.45,1.55-10.3,1-16.75,3.42-2.52.93-12.82,5.13-17.77,14.82-6,11.82-2.45,28.59,4.63,31.21,3.57,1.33,5.07-2,13.54-3.55h0C17.7,323.1,21.43,326.29,26,326a9.5,9.5,0,0,0,2.54-.52l4.55-17.34c-1.22-1.09-2.18-1.91-2.55-2.28.92,0,2,.09,3.1.21l9.54-36.38A9,9,0,0,0,38.9,269.92Z"/><path class="cls-9" d="M26.74,186.6c-.33-.73-4.88,3.36-12.91,6.25-9.55,3.44-11.93.88-16,4.14-5.94,4.7-2.49,11.15-9,17.79-4.68,4.77-7.91,2.94-12.12,7-7.94,7.67-7.82,25.2-1.93,28.31,6.25,3.29,21.86-8.16,28.93-22.15,3.25-6.43,3.5-9.85,4.94-14.08-1.81.06-3.38.21-3.86.21a16.1,16.1,0,0,1,5.17-3.47,46.38,46.38,0,0,1,3.59-6.24C19.56,195.28,30.72,195.26,26.74,186.6Z"/><path class="cls-6" d="M11,295.3c.79-.63,1.52-1.27,4.12-1.27.23-.28.46-.57.68-.88,3.36-4.69,2.62-8.43,2.08-13-4.2.56-8.31.6-13.43,2.1-2.52.73-12.82,4-17.77,11.65-5.08,7.82-3.34,18.4,1.57,22.77a29.51,29.51,0,0,1,4.32-7.1c7-8.66,15.14-9.67,20.7-13.82A13.57,13.57,0,0,0,11,295.3Z"/><path class="cls-9" d="M28.29,243.68c-18.95,18.19-47.16,21.8-53.43,34.72-7.93,16.3,5.25,38.41,11.07,37.74,2.74-.31,2.28-5.15,7.64-12.26,6.9-9.17,13.11-8.34,18.26-13-2.35-.78-4.8-1.29-5.41-1.5,1.87-.88,4.87-2.13,8.08-1.6l0-.05c3.49-5.21,2.83-9.55,2.82-15.08a68,68,0,0,0-6.82.62c1.42-1.51,3.76-3.78,7-4.45a36.22,36.22,0,0,1,3-11.58C24.52,247.78,29.37,245.35,28.29,243.68Z"/><path class="cls-10" d="M-6.23,328.37l-.11,0a.28.28,0,0,1-.15-.37c6.13-14.11,12.6-24.09,19.78-30.52A37,37,0,0,1,33,288.09c3.47-.58,7.75-1.19,12.3-1.84,6-.86,12.16-1.74,17.65-2.7a.27.27,0,0,1,.32.22.28.28,0,0,1-.23.33c-5.5,1-11.68,1.84-17.67,2.7-4.53.65-8.82,1.26-12.28,1.84-12.27,2-25.5,8.25-39.11,39.56A.27.27,0,0,1-6.23,328.37Z"/><path class="cls-10" d="M50.61,298.67a.33.33,0,0,1-.16-.05c-.13-.09-13.58-9-21.28-9.16a.28.28,0,0,1,0-.56h0c7.87.19,21,8.89,21.58,9.26a.27.27,0,0,1,.08.38A.28.28,0,0,1,50.61,298.67Z"/><path class="cls-10" d="M.41,315.31a.25.25,0,0,1-.21-.1.27.27,0,0,1,0-.39c3.15-2.56,8.07-4.29,13.14-4.61,5.66-.36,10.58,1.05,13.86,4a.29.29,0,0,1,0,.4.28.28,0,0,1-.39,0c-3.17-2.82-7.95-4.19-13.45-3.83-5,.31-9.76,2-12.83,4.48A.28.28,0,0,1,.41,315.31Z"/><path class="cls-10" d="M-15.19,315.31a.29.29,0,0,1-.26-.16,38.86,38.86,0,0,1-3.55-23c1-6.2,3.75-11.52,7.28-14.23A130.46,130.46,0,0,1-.63,270.59c6.83-4.2,13.29-8.16,17.08-13.94a.28.28,0,0,1,.39-.08.28.28,0,0,1,.08.38c-3.87,5.89-10.37,9.88-17.26,14.11a128.56,128.56,0,0,0-11,7.32c-3.42,2.63-6.07,7.82-7.07,13.88a38.2,38.2,0,0,0,3.51,22.65.28.28,0,0,1-.14.37A.2.2,0,0,1-15.19,315.31Z"/><path class="cls-10" d="M-16.35,284.51a.27.27,0,0,1-.24-.14.27.27,0,0,1,.1-.38c6.65-3.95,22-5.61,22.62-5.68a.28.28,0,1,1,.06.55c-.16,0-15.85,1.72-22.4,5.61A.23.23,0,0,1-16.35,284.51Z"/><path class="cls-10" d="M-24.16,250.93h-.08a.27.27,0,0,1-.18-.35c7.38-23.89,8.3-25.74,16.4-32.94a60,60,0,0,0,7.15-8c1-1.29,2.08-2.63,3.19-3.9a.27.27,0,0,1,.39,0,.28.28,0,0,1,0,.39c-1.1,1.26-2.15,2.6-3.17,3.89a62.32,62.32,0,0,1-7.22,8c-8,7.1-8.9,8.94-16.24,32.69A.28.28,0,0,1-24.16,250.93Z"/><path class="cls-10" d="M-13.32,226.67a.32.32,0,0,1-.22-.1.28.28,0,0,1,0-.39c4.84-4,16.09-6.77,16.56-6.89a.29.29,0,0,1,.34.21.28.28,0,0,1-.21.33c-.11,0-11.6,2.87-16.33,6.78A.32.32,0,0,1-13.32,226.67Z"/><path class="cls-7" d="M345,357.19a77.55,77.55,0,0,1-4,24.54h11.33l.59-2.06a.22.22,0,0,0-.09-.21l-.27-.23.09-.34c.18-.72.36-1.46.52-2.19l.08-.33.33-.08a.25.25,0,0,0,.17-.19h0c.19-.76.33-1.56.47-2.33l.15-.88a.22.22,0,0,0-.08-.23l-.28-.2.06-.34c.13-.73.24-1.48.35-2.22l.05-.34.33-.11a.23.23,0,0,0,.15-.19c0-.39.09-.78.14-1.17.09-.68.19-1.4.26-2.09a.26.26,0,0,0-.12-.23l-.29-.18,0-.35c.06-.74.12-1.5.17-2.25l0-.34.32-.13a.27.27,0,0,0,.15-.21v0c0-.39.05-.78.06-1.2,0-.14,0-.28,0-.41l0-1.66a.24.24,0,0,0-.12-.2l-.3-.16v-.34c0-.38,0-.75,0-1.12s0-.76,0-1.14v-.34l.3-.16a.24.24,0,0,0,.12-.21l0-1.65c0-.13,0-.25,0-.37,0-.43,0-.84-.06-1.25h0a.26.26,0,0,0-.15-.21l-.32-.14,0-.34c-.05-.74-.11-1.5-.18-2.25l0-.34.3-.18a.29.29,0,0,0,.12-.23c-.08-.7-.17-1.42-.26-2.11l-.15-1.15a.21.21,0,0,0-.15-.19l-.32-.11-.05-.34c-.11-.74-.23-1.49-.35-2.23l-.06-.33.27-.21a.22.22,0,0,0,.09-.22l-.15-.86c-.14-.78-.28-1.58-.48-2.36h0a.24.24,0,0,0-.18-.18l-.32-.08-.08-.34c-.17-.73-.34-1.47-.52-2.19l-.09-.34.27-.22a.24.24,0,0,0,.08-.23l-.91-3.18a.2.2,0,0,0-.17-.16l-.35-.05-.11-.34c-.21-.7-.45-1.42-.69-2.14l-.11-.32.24-.24a.24.24,0,0,0,.05-.24c-.07-.19-.13-.38-.19-.56-.11-.35-.22-.67-.34-1l-.61-1.54a.24.24,0,0,0-.2-.15l-.34,0-.12-.31c-.28-.7-.57-1.4-.86-2.09l-.14-.31.22-.27a.21.21,0,0,0,0-.23c-.17-.36-.33-.71-.49-1.07-.28-.63-.58-1.29-.88-1.93a.25.25,0,0,0-.22-.13h-.35l-.15-.31c-.34-.68-.68-1.36-1-2l-.16-.3.2-.28a.27.27,0,0,0,0-.26c-.33-.62-.69-1.24-1-1.84-.2-.34-.4-.68-.59-1a.21.21,0,0,0-.19-.11h0l-.34,0-.18-.29c-.38-.64-.78-1.29-1.18-1.92l-.18-.29.17-.3a.23.23,0,0,0,0-.24l-.9-1.4c-.18-.29-.38-.56-.58-.85l-.35-.48a.22.22,0,0,0-.19-.1h0l-.33,0-.2-.28c-.44-.63-.89-1.24-1.32-1.82l-.22-.28.17-.32a.21.21,0,0,0,0-.23l-2.06-2.61a.2.2,0,0,0-.16-.07h-.06l-.34.08-.22-.26c-.48-.58-1-1.15-1.47-1.72l-.22-.25.12-.32a.23.23,0,0,0,0-.25l-.53-.62-.56-.59-1.15-1.2a.24.24,0,0,0-.16-.07h-.07l-.33.1-.24-.24c-.52-.54-1-1.07-1.59-1.6l-.25-.24.11-.32a.24.24,0,0,0-.07-.24l-1-.95,4.73,22.27A77.5,77.5,0,0,1,345,357.19Z"/><path class="cls-6" d="M189.09,357.19a77.94,77.94,0,0,1,143.12-42.74l-4.73-22.27-.19-.19-.6-.56-.61-.53a.27.27,0,0,0-.17-.06h-.08l-.32.13-.26-.23c-.56-.49-1.14-1-1.71-1.46l-.27-.22.09-.34a.23.23,0,0,0-.07-.23l-2.6-2.05a.3.3,0,0,0-.14-.05.17.17,0,0,0-.1,0l-.31.16-.28-.21L318,285.06l-.28-.2.05-.33a.26.26,0,0,0-.11-.24c-.77-.57-1.61-1.1-2.41-1.61l-.32-.21a.28.28,0,0,0-.13,0,.15.15,0,0,0-.11,0l-.29.17-.29-.18-1.92-1.18-.3-.18,0-.34a.24.24,0,0,0-.11-.21c-.35-.19-.69-.4-1-.59-.6-.35-1.22-.71-1.84-1a.2.2,0,0,0-.11,0,.33.33,0,0,0-.14,0l-.28.2-.31-.16q-1-.51-2-1l-.31-.15v-.35a.25.25,0,0,0-.13-.22c-.64-.3-1.29-.6-1.93-.88l-1.06-.48a.18.18,0,0,0-.1,0,.19.19,0,0,0-.14.05l-.26.22-.32-.13c-.69-.3-1.39-.59-2.08-.87l-.32-.12,0-.34a.26.26,0,0,0-.15-.2l-1.54-.6-1-.35-.55-.19h-.08a.28.28,0,0,0-.17.07l-.24.23-.32-.11c-.71-.24-1.43-.47-2.14-.69l-.34-.11-.05-.34a.21.21,0,0,0-.16-.18l-3.19-.91h0a.25.25,0,0,0-.17.08l-.22.27-.34-.08-2.19-.53-.33-.07-.09-.33a.24.24,0,0,0-.18-.18h0c-.76-.19-1.56-.33-2.33-.47l-.88-.15h-.05a.24.24,0,0,0-.18.09l-.21.27-.33-.05c-.74-.13-1.49-.25-2.23-.35l-.34,0-.11-.33a.22.22,0,0,0-.18-.15l-1.17-.15c-.69-.09-1.4-.18-2.1-.25h0a.27.27,0,0,0-.22.12l-.18.29-.34,0c-.75-.07-1.5-.12-2.25-.17l-.34,0-.14-.32a.26.26,0,0,0-.21-.15h0c-.39,0-.79-.05-1.21-.06h-.4l-1.67,0a.24.24,0,0,0-.2.12l-.16.3h-2.94l-.16-.3a.22.22,0,0,0-.2-.12l-1.66,0h-.37c-.43,0-.84,0-1.24.06h0a.27.27,0,0,0-.21.15l-.13.32-.34,0-2.25.17-.35,0-.18-.3a.24.24,0,0,0-.21-.12h0c-.71.07-1.42.17-2.11.26l-1.16.14a.25.25,0,0,0-.19.15l-.1.33-.35,0c-.73.11-1.48.22-2.22.35l-.34.06-.2-.27a.23.23,0,0,0-.19-.1h0l-.85.15c-.78.14-1.59.28-2.36.48h0a.24.24,0,0,0-.18.17l-.09.33-.33.08c-.73.16-1.47.34-2.19.52l-.34.09-.23-.27a.24.24,0,0,0-.17-.09h-.05l-3.19.91a.23.23,0,0,0-.16.17l-.05.35-.33.1c-.71.22-1.43.46-2.14.7l-.32.11-.25-.24a.23.23,0,0,0-.16-.06h-.08l-.56.19-1,.34-1.54.61a.23.23,0,0,0-.15.2l0,.33-.32.13-2.08.86-.32.14-.26-.23a.24.24,0,0,0-.14-.05l-.1,0-1.07.49c-.63.28-1.29.58-1.92.88a.26.26,0,0,0-.14.22v.34l-.31.16-2,1-.31.16-.28-.2a.23.23,0,0,0-.14,0l-.11,0c-.62.33-1.24.69-1.84,1l-1,.59a.22.22,0,0,0-.12.21l0,.34-.3.18c-.63.38-1.28.77-1.92,1.18l-.29.18-.29-.17a.16.16,0,0,0-.12,0,.25.25,0,0,0-.12,0l-1.41.9c-.28.18-.56.38-.85.59l-.48.34a.25.25,0,0,0-.1.23l.05.33-.28.2c-.62.44-1.23.88-1.82,1.32l-.28.21-.31-.16a.17.17,0,0,0-.1,0,.21.21,0,0,0-.13,0l-2.62,2.06a.23.23,0,0,0-.06.22l.09.34-.27.22c-.57.48-1.15,1-1.71,1.47l-.26.22-.32-.12a.11.11,0,0,0-.08,0,.27.27,0,0,0-.17.06l-.61.53-.59.56-1.2,1.15a.23.23,0,0,0-.07.23l.11.33-.25.23c-.53.52-1.07,1.06-1.59,1.6l-.24.24-.33-.1h-.06a.21.21,0,0,0-.17.08l-1.14,1.19-.56.6-.54.61a.23.23,0,0,0,0,.25l.13.32-.23.26c-.49.56-1,1.14-1.46,1.71l-.23.27-.34-.09h-.06a.23.23,0,0,0-.17.08l-2,2.6a.21.21,0,0,0,0,.24l.17.31-.21.28c-.44.59-.88,1.2-1.33,1.82l-.19.28-.34-.05h0a.28.28,0,0,0-.21.11c-.57.77-1.1,1.6-1.61,2.4l-.2.33a.23.23,0,0,0,0,.24l.17.29-.18.29c-.4.64-.8,1.28-1.18,1.92l-.17.3-.35,0h0a.26.26,0,0,0-.2.11c-.19.35-.39.69-.58,1-.35.61-.71,1.23-1,1.85a.25.25,0,0,0,0,.25l.2.28-.16.31c-.34.65-.69,1.32-1,2l-.16.31h-.34a.25.25,0,0,0-.22.13c-.3.64-.6,1.29-.89,1.93l-.48,1.06a.26.26,0,0,0,0,.24l.23.26-.14.32c-.29.69-.58,1.39-.86,2.08l-.13.32-.34,0a.24.24,0,0,0-.19.15l-.61,1.54c-.12.32-.23.66-.34,1s-.13.38-.19.56a.23.23,0,0,0,.05.24l.24.25-.11.32c-.24.71-.47,1.43-.7,2.14l-.1.34-.35.05a.2.2,0,0,0-.17.15l-.91,3.2a.21.21,0,0,0,.08.22l.27.22-.09.34c-.18.72-.35,1.46-.52,2.19l-.07.33-.33.09a.24.24,0,0,0-.18.18h0c-.2.76-.34,1.56-.47,2.33-.05.29-.1.59-.16.88a.23.23,0,0,0,.09.23l.27.2-.06.34c-.12.74-.24,1.49-.35,2.23l-.05.34-.32.11a.22.22,0,0,0-.15.18l-.15,1.17c-.09.69-.18,1.4-.25,2.1a.25.25,0,0,0,.12.23l.29.18,0,.34q-.11,1.13-.18,2.25l0,.34-.31.14a.22.22,0,0,0-.15.21h0c0,.39,0,.79-.06,1.2,0,.14,0,.28,0,.41l0,1.66a.22.22,0,0,0,.11.21l.31.16v2.94l-.3.15a.21.21,0,0,0-.12.21l0,1.66c0,.12,0,.24,0,.37,0,.43,0,.84.06,1.24h0a.24.24,0,0,0,.15.22l.31.13,0,.34c0,.75.11,1.51.18,2.25l0,.34-.29.19a.22.22,0,0,0-.12.22c.07.7.16,1.42.25,2.11l.15,1.16a.2.2,0,0,0,.15.18l.33.11,0,.34c.1.74.22,1.49.35,2.23l.05.34-.27.2a.24.24,0,0,0-.09.22c.06.29.11.58.16.86.13.78.27,1.59.47,2.36h0a.24.24,0,0,0,.18.18l.33.09.07.33c.17.73.35,1.47.53,2.19l.08.34-.27.23a.21.21,0,0,0-.07.22l.57,2h11.33A77.55,77.55,0,0,1,189.09,357.19Z"/><g id="Spokes_Back" data-name="Spokes Back"><path class="cls-12" d="M345.09,363.75H290.23l-11.7-7.45,10.13-10.12L342,334.35a.46.46,0,0,0,.33-.57h0a.43.43,0,0,0-.51-.3l-52,11.52,37.76-37.76a.43.43,0,0,0,0-.59h0a.44.44,0,0,0-.65,0l-38.75,38.75-14.3,3.17V335.14L304,288a.45.45,0,0,0-.17-.63h0a.45.45,0,0,0-.58.15l-29.31,46V278.94a.44.44,0,0,0-.4-.44h0a.44.44,0,0,0-.48.44v55.94l-7.18,11.28-9.46-9.46-12.12-54.64a.44.44,0,0,0-.56-.33h0a.45.45,0,0,0-.3.52l11.81,53.28-38.58-38.59a.45.45,0,0,0-.6,0h0a.44.44,0,0,0,0,.65l39.57,39.58,2.9,13.07H243.82l-46.28-29.48a.44.44,0,0,0-.63.17h0a.44.44,0,0,0,.16.57l45.1,28.73H188.85a.45.45,0,0,0-.44.41h0a.44.44,0,0,0,.44.47h54.71l12.07,7.69-9.8,9.81-53.64,11.89a.43.43,0,0,0-.32.56h0a.45.45,0,0,0,.52.3l52.26-11.59-37.73,37.74a.42.42,0,0,0,0,.59h0a.44.44,0,0,0,.65,0l38.72-38.73,13.22-2.93v14.79l-28.82,45.26a.43.43,0,0,0,.17.62h0a.44.44,0,0,0,.58-.16L259.49,383v52.22a.44.44,0,0,0,.4.44h0a.44.44,0,0,0,.48-.44V381.55l8-12.49,10.48,10.48,11.6,52.35a.45.45,0,0,0,.57.32h0a.45.45,0,0,0,.29-.52l-11.3-51,36.91,36.91a.44.44,0,0,0,.59,0h0a.44.44,0,0,0,0-.65l-37.9-37.9-3.2-14.45H290l46.16,29.41a.44.44,0,0,0,.63-.17h0a.44.44,0,0,0-.15-.58l-45-28.66h53.46a.44.44,0,0,0,.44-.4h0A.45.45,0,0,0,345.09,363.75Zm-71.18-14.31L287,346.53l-9.28,9.28-3.85-2.45Zm3.21,7-2.05,2.05-.87-3.91Zm-3.21,1,.21.92-.21.32Zm.64,2.87.77,3.46h-3.59l1.13-1.77Zm-12.15,2.83,1.49,1.49-3.51.78v-3.55Zm-2-3.28v-.94l.27,1.21Zm2.58,2.58-1.13-1.13L260.65,356l1.59-2.5,1.84-1.83,2.3-.51h2.35l2.19,1.39,2.1,2.1v5.45l-.86,1.36-1.75,1.75-2.65.58h-2.71Zm7-12.11,3-.67v3.15l-1.54-1Zm3-13.77v12.19l-3.78.84-2.76-2.76Zm-7,11,2.22,2.22-1.93.42h-2Zm-9.25-9.26,8.6,8.61-2.09,3.29h-3.88Zm2.75,27.27-12,2.67,8.95-9,3.09,2Zm0-5.38-2.44-1.56,2.44-2.44Zm-3.21-2-11.07-7h13.45l.85,3.82Zm4-4-.68-3.07h3.11l-1.14,1.78Zm.13,25.71V366.3l4.26-.94,3.06,3.06Zm7.81-12.25-2.52-2.52,2.19-.49h2.24Zm10.27,10.27-9.63-9.63,2.33-3.65h4.36Zm-2.23-14.17-.93-4.21,2.59-2.59,10.68,6.8Z"/></g><g id="Spokes_Front" data-name="Spokes Front"><path class="cls-12" d="M303.37,426.52l-39.78-62.46,78,17.3a.44.44,0,0,0,.52-.29h0a.45.45,0,0,0-.32-.57l-72.27-16,67.41-43a.44.44,0,0,0,.16-.57h0a.44.44,0,0,0-.63-.17l-63.28,40.32,17.47-78.82a.45.45,0,0,0-.3-.52h0a.43.43,0,0,0-.56.33l-16.11,72.65-42.86-67.28a.45.45,0,0,0-.58-.15h0a.45.45,0,0,0-.17.63l40,62.8-77.91-17.27a.43.43,0,0,0-.51.3h0a.44.44,0,0,0,.33.56l72.72,16.12-67.3,42.88a.43.43,0,0,0-.15.57h0a.44.44,0,0,0,.63.17l62-39.48-17.09,77.11a.45.45,0,0,0,.3.52h0a.44.44,0,0,0,.57-.33l16-72.33,43,67.43a.46.46,0,0,0,.58.16h0A.43.43,0,0,0,303.37,426.52Zm-43.43-68.18,1-4.42,5-3.19,4.82,1.07,2.66,4.16-1.29,5.81-3.82,2.43-5.39-1.2Z"/><path class="cls-12" d="M327.11,407.49l-56.38-56.37h74.42a.45.45,0,0,0,.44-.48h0a.45.45,0,0,0-.44-.41H265.42L318,297.6a.45.45,0,0,0,0-.65h0a.45.45,0,0,0-.6,0L261,353.35V278.93a.44.44,0,0,0-.47-.44h0a.45.45,0,0,0-.41.44v80.73l-53.08-53.08a.44.44,0,0,0-.65,0h0a.44.44,0,0,0,0,.59L263,363.75H188.91a.45.45,0,0,0-.44.48h0a.44.44,0,0,0,.44.4h80L216.5,417a.43.43,0,0,0,0,.65h0a.45.45,0,0,0,.6,0l56.54-56.55v74.07a.44.44,0,0,0,.48.44h0a.44.44,0,0,0,.4-.44v-79l51.92,51.91a.44.44,0,0,0,.65,0h0A.45.45,0,0,0,327.11,407.49Zm-53.44-47.65-3.91,3.91h-5.53l-3.2-3.2v-5.94l3.5-3.49h4.94l4.2,4.2Z"/></g><path class="cls-4" d="M267,277.46a79.73,79.73,0,1,0,79.73,79.73A79.73,79.73,0,0,0,267,277.46Zm0,157.12a77.4,77.4,0,1,1,77.4-77.39A77.39,77.39,0,0,1,267,434.58Z"/><path class="cls-12" d="M341.3,312a.78.78,0,0,0,.67.38l.16,0,.94-.17-.13-.22-.1-.17-.8.15H342a.37.37,0,0,1-.31-.17l-.65-1.06a.36.36,0,0,1,.06-.44,8.47,8.47,0,0,0,.62-.71l.06-.11a.23.23,0,0,0,0-.24l-.16-.24a6.76,6.76,0,0,1-.83,1,.8.8,0,0,0-.11,1Z"/><path class="cls-12" d="M337.57,303.29a5.94,5.94,0,0,1-.75,1.08.78.78,0,0,0,0,1l.74,1a.79.79,0,0,0,.64.32l.21,0,.87-.24h0l-.14-.2L339,306l-.77.2-.09,0a.38.38,0,0,1-.3-.15l-.74-1a.36.36,0,0,1,0-.45c.17-.21.42-.53.63-.85v0a.2.2,0,0,0,0-.23Z"/><path class="cls-12" d="M344.08,316.88c.12.23.23.46.34.7l.2.4a.77.77,0,0,0,.7.44h.09l1-.1-.11-.23-.09-.18-.8.09h-.05a.37.37,0,0,1-.32-.2c-.18-.37-.35-.75-.55-1.11a.35.35,0,0,1,.08-.44,6.54,6.54,0,0,0,.67-.65l.08-.1a.27.27,0,0,0,0-.26l-.14-.25a7,7,0,0,1-.91.94A.77.77,0,0,0,344.08,316.88Z"/><path class="cls-12" d="M333.31,301a.77.77,0,0,0,.6.29.86.86,0,0,0,.27-.05l.91-.32-.16-.2-.13-.15-.76.27-.13,0a.37.37,0,0,1-.28-.13l-.79-.95a.39.39,0,0,1,0-.45,6.76,6.76,0,0,0,.49-.78l.05-.12a.23.23,0,0,0,0-.25l-.19-.22a6.76,6.76,0,0,1-.65,1.12.8.8,0,0,0,0,1Z"/><path class="cls-12" d="M311.64,282.58l1.06.64a.78.78,0,0,0,.41.12.79.79,0,0,0,.49-.17l.75-.58-.2-.13-.18-.11-.63.48a.4.4,0,0,1-.23.08.45.45,0,0,1-.19-.05l-1.06-.64a.37.37,0,0,1-.16-.42,8.39,8.39,0,0,0,.25-1v-.07a.24.24,0,0,0-.11-.21l-.27-.15a6.93,6.93,0,0,1-.28,1.27A.78.78,0,0,0,311.64,282.58Z"/><path class="cls-12" d="M305.67,279.3c.3.14.59.29.89.45l.19.11a.8.8,0,0,0,.9-.11l.72-.65h0l-.23-.12-.18-.09-.6.54a.34.34,0,0,1-.24.09.35.35,0,0,1-.17,0c-.36-.19-.72-.4-1.1-.57a.34.34,0,0,1-.19-.4c0-.23.12-.57.16-.92v-.13a.25.25,0,0,0-.13-.22l-.26-.12a6.24,6.24,0,0,1-.19,1.3A.79.79,0,0,0,305.67,279.3Z"/><path class="cls-12" d="M317.36,286.3l1,.74a.81.81,0,0,0,.47.16.83.83,0,0,0,.43-.13l.82-.53-.21-.16-.16-.11-.68.44a.37.37,0,0,1-.42,0l-1-.74a.38.38,0,0,1-.12-.43,8.28,8.28,0,0,0,.29-.85l0-.15a.26.26,0,0,0-.11-.24l-.23-.16a5.38,5.38,0,0,1-.38,1.23A.81.81,0,0,0,317.36,286.3Z"/><path class="cls-12" d="M322.77,290.49l.34.28a7.12,7.12,0,0,1,.58.49.77.77,0,0,0,.53.21.75.75,0,0,0,.38-.1l.82-.44h0l-.19-.17-.15-.13-.71.38a.33.33,0,0,1-.17,0A.38.38,0,0,1,324,291c-.29-.28-.63-.53-.94-.79a.37.37,0,0,1-.1-.44,7,7,0,0,0,.4-.92l0-.07a.23.23,0,0,0-.07-.23l-.25-.19a6,6,0,0,1-.48,1.22A.79.79,0,0,0,322.77,290.49Z"/><path class="cls-12" d="M328.69,295.94a.79.79,0,0,0,.56.23.8.8,0,0,0,.34-.07l.83-.38h0l-.18-.18-.14-.15-.73.33a.41.41,0,0,1-.16,0,.33.33,0,0,1-.25-.1l-.88-.88a.36.36,0,0,1-.06-.44,8.35,8.35,0,0,0,.46-.87l0-.08a.24.24,0,0,0-.07-.24l-.21-.2a6.44,6.44,0,0,1-.57,1.17.79.79,0,0,0,.12,1Z"/><path class="cls-12" d="M214.22,287.41a.78.78,0,0,0,.51.18.74.74,0,0,0,.47-.16l1-.74a.8.8,0,0,0,.29-.85c-.08-.29-.16-.58-.23-.87v0l-.21.14-.16.12c.06.26.13.51.2.77a.37.37,0,0,1-.14.39l-1,.74a.33.33,0,0,1-.21.07.35.35,0,0,1-.24-.08,7,7,0,0,0-.85-.63h0a.17.17,0,0,0-.1,0,.21.21,0,0,0-.13,0l-.25.2A5.62,5.62,0,0,1,214.22,287.41Z"/><path class="cls-12" d="M220.41,283.7a.82.82,0,0,0,.41-.12l1.06-.65a.8.8,0,0,0,.36-.83l-.18-.94-.22.13-.17.1.15.79a.38.38,0,0,1-.16.39l-1.06.64a.35.35,0,0,1-.19.06.38.38,0,0,1-.26-.11c-.17-.16-.43-.41-.7-.62l-.11-.06a.16.16,0,0,0-.12,0,.25.25,0,0,0-.12,0l-.25.16a5.87,5.87,0,0,1,1,.83A.83.83,0,0,0,220.41,283.7Z"/><path class="cls-12" d="M225.78,280a.78.78,0,0,0,.58.27.7.7,0,0,0,.38-.1l.69-.35.41-.19a.79.79,0,0,0,.43-.79c0-.32-.07-.65-.1-1l-.24.12-.17.09c0,.27.05.54.08.8a.36.36,0,0,1-.2.37c-.37.18-.74.35-1.1.55a.39.39,0,0,1-.18,0,.35.35,0,0,1-.26-.12c-.16-.18-.4-.44-.65-.67l-.11-.08a.23.23,0,0,0-.14,0l-.11,0-.26.14A6.94,6.94,0,0,1,225.78,280Z"/><path class="cls-12" d="M208.9,291.75a.74.74,0,0,0,.45.15.83.83,0,0,0,.51-.18l1-.8a.78.78,0,0,0,.23-.87c-.11-.3-.21-.61-.32-.91l-.2.16-.15.13.27.76a.37.37,0,0,1-.1.4l-1,.8a.41.41,0,0,1-.24.08.42.42,0,0,1-.21-.06,6.54,6.54,0,0,0-.77-.49l-.13-.05a.11.11,0,0,0-.08,0,.27.27,0,0,0-.17.06l-.22.19A6.41,6.41,0,0,1,208.9,291.75Z"/><path class="cls-12" d="M232,277a.81.81,0,0,0,.64.32.85.85,0,0,0,.31-.06l1.13-.49a.82.82,0,0,0,.49-.77c0-.31,0-.63,0-.94l-.23.09-.2.08,0,.79a.37.37,0,0,1-.22.36l-1.14.48-.14,0a.37.37,0,0,1-.29-.14,8.6,8.6,0,0,0-.64-.78l-.06,0a.24.24,0,0,0-.14-.05l-.1,0-.27.13A6.47,6.47,0,0,1,232,277Z"/><path class="cls-12" d="M204,296.53a.77.77,0,0,0,1-.12l.88-.88a.79.79,0,0,0,.15-.89c-.12-.27-.25-.55-.37-.83l0,0-.18.17-.14.15c.1.24.21.49.32.73a.35.35,0,0,1-.07.41l-.87.88a.36.36,0,0,1-.26.11.45.45,0,0,1-.19-.05,8.08,8.08,0,0,0-.86-.46l-.09,0h-.06a.21.21,0,0,0-.17.08l-.21.21A6.14,6.14,0,0,1,204,296.53Z"/><path class="cls-12" d="M190.6,312.27a.26.26,0,0,0-.2.11l-.15.27a6.69,6.69,0,0,1,1.28.28.61.61,0,0,0,.24,0,.8.8,0,0,0,.67-.38l.64-1.06a.82.82,0,0,0-.06-.91l-.58-.74-.13.2-.11.18.49.63a.38.38,0,0,1,0,.42l-.64,1.06a.34.34,0,0,1-.3.17.25.25,0,0,1-.12,0,8.36,8.36,0,0,0-1-.24h-.09Z"/><path class="cls-12" d="M195.52,307.19a.81.81,0,0,0,.64-.32l.74-1a.82.82,0,0,0,0-.91c-.18-.26-.35-.54-.52-.81l-.16.21-.12.16.45.68a.36.36,0,0,1,0,.41l-.74,1a.38.38,0,0,1-.3.15.35.35,0,0,1-.14,0c-.21-.09-.53-.2-.84-.3l-.16,0h0a.28.28,0,0,0-.21.11l-.15.22a8.27,8.27,0,0,1,1.23.38A.8.8,0,0,0,195.52,307.19Z"/><path class="cls-12" d="M199.39,301.67a.85.85,0,0,0,.35.08.76.76,0,0,0,.6-.29c.1-.11.19-.22.28-.34s.33-.4.5-.58a.79.79,0,0,0,.11-.91l-.44-.82v0l-.17.19-.13.15c.12.24.25.47.38.7a.36.36,0,0,1-.05.41c-.29.3-.53.64-.8.95a.34.34,0,0,1-.27.13.29.29,0,0,1-.16,0,9.81,9.81,0,0,0-.92-.39l-.08,0h-.06a.23.23,0,0,0-.17.08l-.19.25A5.74,5.74,0,0,1,199.39,301.67Z"/><path class="cls-12" d="M251.65,271a.8.8,0,0,0,.73.48h.12l1.23-.19a.8.8,0,0,0,.65-.63c.06-.31.13-.62.2-.93h0l-.26,0-.19,0c-.06.26-.12.53-.17.79a.36.36,0,0,1-.3.29l-1.22.19h-.06a.38.38,0,0,1-.34-.23,7.86,7.86,0,0,0-.41-.84l-.07-.1a.23.23,0,0,0-.19-.1h0l-.28.05A7,7,0,0,1,251.65,271Z"/><path class="cls-12" d="M279,270.49a.79.79,0,0,0,.67.71l1.23.19H281a.8.8,0,0,0,.7-.4c.15-.28.31-.56.47-.83l-.24,0-.21,0-.39.7a.4.4,0,0,1-.33.19H281l-1.22-.18a.35.35,0,0,1-.31-.33,9.7,9.7,0,0,0-.14-1l0-.07a.22.22,0,0,0-.18-.15l-.3,0A6,6,0,0,1,279,270.49Z"/><path class="cls-12" d="M286.41,272.43l1.2.31.19,0a.77.77,0,0,0,.65-.35l.55-.8-.25-.06-.19-.05c-.15.23-.31.45-.46.67a.34.34,0,0,1-.3.16h-.09l-1.2-.3a.39.39,0,0,1-.28-.36,7.67,7.67,0,0,0-.05-.89l0-.15a.24.24,0,0,0-.18-.18h0l-.27-.06a7,7,0,0,1,.13,1.29A.78.78,0,0,0,286.41,272.43Z"/><path class="cls-12" d="M272.2,269.81a.77.77,0,0,0,.73.65l.77.07.44,0h.08a.79.79,0,0,0,.71-.46q.19-.44.42-.87l-.26,0h-.2c-.12.24-.23.49-.35.73a.36.36,0,0,1-.32.21h0L273,270a.34.34,0,0,1-.33-.29c0-.23-.11-.58-.2-.91l-.06-.12a.26.26,0,0,0-.21-.15h0l-.28,0A5.81,5.81,0,0,1,272.2,269.81Z"/><path class="cls-12" d="M293,274.23l1.18.36a1,1,0,0,0,.24,0,.78.78,0,0,0,.62-.29l.56-.7,0,0-.23-.08-.2-.06-.5.61a.35.35,0,0,1-.28.14l-.12,0-1.18-.36a.36.36,0,0,1-.25-.37,8.7,8.7,0,0,0,0-1v0a.21.21,0,0,0-.16-.18l-.29-.08a6.09,6.09,0,0,1,0,1.31A.8.8,0,0,0,293,274.23Z"/><path class="cls-12" d="M238.36,274.47a.79.79,0,0,0,.67.37l.24,0,1.18-.38a.79.79,0,0,0,.55-.72c0-.32,0-.64.05-1l-.25.07-.18.06c0,.27,0,.54-.05.81a.35.35,0,0,1-.25.34l-1.18.37H239a.37.37,0,0,1-.31-.17c-.12-.19-.31-.47-.51-.73l-.12-.12a.23.23,0,0,0-.16-.06h-.08l-.27.09A6.48,6.48,0,0,1,238.36,274.47Z"/><path class="cls-12" d="M265.32,269.69a.79.79,0,0,0,.77.6h1.24a.81.81,0,0,0,.74-.52l.33-.86v0H268c-.1.25-.2.5-.29.75a.37.37,0,0,1-.34.24h-1.24a.35.35,0,0,1-.35-.27,8.56,8.56,0,0,0-.29-.94l-.05-.08a.22.22,0,0,0-.2-.12h-.3A6.43,6.43,0,0,1,265.32,269.69Z"/><path class="cls-12" d="M299.43,276.51l1.14.48a.77.77,0,0,0,.3.06.79.79,0,0,0,.58-.25c.22-.24.44-.47.67-.7l-.24-.1-.18-.08c-.19.2-.38.39-.56.59a.39.39,0,0,1-.27.11.34.34,0,0,1-.14,0l-1.14-.48a.38.38,0,0,1-.22-.39c0-.24.08-.58.09-.92v-.14a.26.26,0,0,0-.15-.2l-.27-.1a7,7,0,0,1-.08,1.29A.78.78,0,0,0,299.43,276.51Z"/><path class="cls-12" d="M244.94,272.49a.77.77,0,0,0,.69.42.64.64,0,0,0,.2,0l.43-.11.75-.18a.8.8,0,0,0,.62-.67c0-.3.08-.6.12-.91v0l-.24.06-.2.05c0,.26-.07.52-.11.79a.35.35,0,0,1-.28.3c-.4.08-.8.2-1.2.3h-.09a.34.34,0,0,1-.31-.19,9,9,0,0,0-.51-.85l-.06-.07a.24.24,0,0,0-.17-.09h-.05l-.3.09A5.8,5.8,0,0,1,244.94,272.49Z"/><path class="cls-12" d="M259.2,270.61h.08c.28,0,.55-.05.84-.07l.38,0a.79.79,0,0,0,.71-.56c.08-.31.18-.62.27-.92h0l-.25,0H261c-.08.26-.16.52-.23.78a.39.39,0,0,1-.33.26c-.41,0-.82,0-1.23.08h0a.35.35,0,0,1-.34-.24,6.85,6.85,0,0,0-.34-.86l-.07-.12a.24.24,0,0,0-.21-.12h0l-.29,0a7.36,7.36,0,0,1,.52,1.21A.77.77,0,0,0,259.2,270.61Z"/><path class="cls-13" d="M366.85,260.73l-28.27,10.18-5.24-14.55a4.37,4.37,0,0,1,4-5.85l24-.44a2.28,2.28,0,0,1,2.19,1.51Z"/><rect class="cls-13" x="357.32" y="262.4" width="30.04" height="115.81" transform="matrix(0.94, -0.34, 0.34, 0.94, -86.51, 145.14)"/><polygon class="cls-6" points="351.01 305.42 373.62 279.54 373.09 278.06 370.1 277.05 348.74 299.11 351.01 305.42"/><path class="cls-10" d="M349.49,264.7a1.51,1.51,0,0,1-.62-.14,1.54,1.54,0,0,1-.76-.83l-2.74-7.63a.29.29,0,0,1,.17-.36.28.28,0,0,1,.35.17l2.75,7.63a.88.88,0,0,0,.47.51.83.83,0,0,0,.69,0l7.07-2.54a.92.92,0,0,0,.55-1.16l-2.24-6.2a.29.29,0,0,1,.17-.36.28.28,0,0,1,.36.17l2.23,6.2a1.46,1.46,0,0,1-.88,1.87L350,264.61A1.43,1.43,0,0,1,349.49,264.7Z"/><path class="cls-10" d="M383.43,378.15l-.1-.26L344,268.67l3.17-1.14.09.26L386.6,377ZM344.7,269l39.06,108.44,2.12-.76L346.82,268.24Z"/><path class="cls-10" d="M397.52,373.08l-.1-.26L358.08,263.59l3.17-1.14.09.26,39.34,109.23ZM358.79,263.93l39.06,108.44,2.12-.77L360.91,263.17Z"/><path class="cls-10" d="M334.69,260.39a.28.28,0,0,1-.26-.17.29.29,0,0,1,.15-.37l5-2.19a40.6,40.6,0,0,1,8.21-2.38l6.8-1.22a2.92,2.92,0,0,0,2.22-3.85.28.28,0,1,1,.52-.19,3.42,3.42,0,0,1-.26,2.91,3.47,3.47,0,0,1-2.39,1.68l-6.79,1.22a39.86,39.86,0,0,0-8.09,2.34l-5,2.19A.23.23,0,0,1,334.69,260.39Z"/><path class="cls-10" d="M352,262a2.89,2.89,0,0,1-1.25-.28,2.94,2.94,0,0,1-1.41-3.92,2.95,2.95,0,0,1,3.91-1.41,2.94,2.94,0,0,1,1.52,1.67h0a2.88,2.88,0,0,1-.11,2.25A2.92,2.92,0,0,1,353,261.8,3.14,3.14,0,0,1,352,262Zm0-5.33a2.56,2.56,0,0,0-.81.14,2.4,2.4,0,0,0-1.43,3.06,2.39,2.39,0,0,0,4.49-1.62h0a2.4,2.4,0,0,0-1.23-1.35A2.45,2.45,0,0,0,352,256.64Z"/><path class="cls-7" d="M272.52,354.36l53.16-40.89,24.87-19.35L363,284.44l6.21-4.84.78-.6.17-.14.16-.11.31-.22a10.9,10.9,0,0,1,1.32-.78l.35-.17.4-.18.9-.39,1.8-.8-2.6-5.85-1.79.8-.9.41-.5.22-.54.26a18.75,18.75,0,0,0-2.06,1.24l-.49.35-.24.18-.21.17-.78.61-6.18,4.88-12.37,9.76L322,308.77,269.1,350c-1.35,1.05-3.3,2.87-5.05,4.57a17.11,17.11,0,0,0-4.85,8.82c-.12.55-.25,1.14-.4,1.78a6.24,6.24,0,0,0-.15,1.6l11.05-3.4C269.14,360.2,270,356.26,272.52,354.36Z"/><path class="cls-13" d="M357.55,221.16l-.34.12-2,.71-1.79.63a2.14,2.14,0,0,0-1.32,2.73h0a2.14,2.14,0,0,0,2.74,1.31l.63-.22,4.61,13.11,6.06-2.12L361,222.81A2.7,2.7,0,0,0,357.55,221.16Z"/><rect class="cls-7" x="339.52" y="221.72" width="2.88" height="5.98" transform="translate(-55.19 125.64) rotate(-19.35)"/><path class="cls-7" d="M365.5,212.93l-2.72.95,1.9,5.42-18.12,8.4a1.3,1.3,0,0,1-1.77-.83,3,3,0,0,0-.3-.73,2.88,2.88,0,0,0-5.21,2.4,2.78,2.78,0,0,0,1.72,1.74l1.33.34a5.28,5.28,0,0,0,3.33-.25l21-9.64a1.66,1.66,0,0,0,.83-2.14v0h0Z"/><path class="cls-7" d="M318.59,217.83c.32-4.84,6.1-7.23,11.94-7.82,8.06-.81,9.25.37,18.39-.1,10.15-.51,13.29-2.43,21.17-2.54,2.87,0,5.15,2.76,5.17,5.47s-3.08,4.48-5.59,4.73c-7,.69-10.14-1-17.8.72-7.15,1.6-9.85,4.74-13.7,7.16-3.44,2.16-7.62,2.06-12.23.48C322.37,224.7,318.35,221.41,318.59,217.83Z"/><circle class="cls-13" cx="341.95" cy="227.53" r="1.44"/><path class="cls-14" d="M111.44,164.14H57.09C76.2,187,75.2,209.68,75.2,222.71H93.32C93.32,209.68,92.32,187,111.44,164.14Z"/><path class="cls-15" d="M103.42,164.14H65.11c11.12,22.9,15.66,45.54,15.66,58.57h7C87.75,209.68,92.29,187,103.42,164.14Z"/><path class="cls-16" d="M118.33,154.27l-1.26-.32A1.81,1.81,0,0,1,116,152.1h-.14s0-.07,0-.11,0-.08,0-.12H116a1.79,1.79,0,0,1,1.11-1.84l1.26-.33a1.16,1.16,0,0,0-.2-2.09l-1.31-.07a1.3,1.3,0,0,1-.9-.49,2.15,2.15,0,0,1-.54-1.11l-.13,0c0-.08,0-.16,0-.23l.14,0a2.3,2.3,0,0,1,.06-1.23,1.4,1.4,0,0,1,.66-.8l1.18-.56a1,1,0,0,0,.33-1.2,1.3,1.3,0,0,0-.39-.62.73.73,0,0,0-.55-.2l-1.3.19a1.32,1.32,0,0,1-1-.3,2.22,2.22,0,0,1-.74-1l-.13.05-.09-.21.13-.05a2.23,2.23,0,0,1-.18-1.22,1.37,1.37,0,0,1,.49-.91l1-.79a1,1,0,0,0,.08-1.24,1.25,1.25,0,0,0-.51-.53.69.69,0,0,0-.57-.08l-1.23.43a1.34,1.34,0,0,1-1-.1,2.17,2.17,0,0,1-.92-.82l-.11.08-.13-.2.12-.08a2.19,2.19,0,0,1-.42-1.15,1.66,1.66,0,0,1,.06-.55,1,1,0,0,1,.25-.44l.87-1a1.17,1.17,0,0,0-1.34-1.62l-1.12.67a1.34,1.34,0,0,1-.49.15h-.26a1.35,1.35,0,0,1-.28,0,2.18,2.18,0,0,1-1.06-.63l-.1.1-.16-.17.1-.09a2.18,2.18,0,0,1-.63-1.06c0-.1,0-.19,0-.28a1.22,1.22,0,0,1,0-.27,1.34,1.34,0,0,1,.15-.48c.23-.37.45-.75.67-1.12a1,1,0,0,0-.39-1.18,1,1,0,0,0-1.24-.16l-1,.87a1,1,0,0,1-.44.24,1.66,1.66,0,0,1-.55.07,2.25,2.25,0,0,1-1.16-.42l-.07.12-.2-.13.08-.11a2.23,2.23,0,0,1-.82-.92,1.3,1.3,0,0,1-.1-1l.43-1.23a.72.72,0,0,0-.08-.58,1.29,1.29,0,0,0-.53-.5,1,1,0,0,0-1.24.08l-.79,1a1.38,1.38,0,0,1-.91.5,2.31,2.31,0,0,1-1.22-.18l0,.12-.22-.08,0-.13a2.24,2.24,0,0,1-1-.74,1.32,1.32,0,0,1-.3-1c.06-.44.13-.87.18-1.3a.7.7,0,0,0-.19-.55,1.27,1.27,0,0,0-.62-.39,1,1,0,0,0-1.2.33l-.57,1.17a1.33,1.33,0,0,1-.79.67,2.3,2.3,0,0,1-1.23.06l0,.13-.23,0,0-.13a2.19,2.19,0,0,1-1.11-.54,1.3,1.3,0,0,1-.49-.9c0-.44,0-.87-.08-1.31a1,1,0,0,0-1-.76,1,1,0,0,0-1.11.56c-.11.42-.22.84-.32,1.26a1.79,1.79,0,0,1-1.84,1.11v.13h-.24v-.13a1.79,1.79,0,0,1-1.84-1.11c-.1-.42-.21-.84-.32-1.26a1,1,0,0,0-1.11-.56,1,1,0,0,0-1,.76c0,.44-.06.87-.08,1.31a1.33,1.33,0,0,1-.48.9,2.26,2.26,0,0,1-1.12.54l0,.13-.23,0,0-.13a2.3,2.3,0,0,1-1.23-.06,1.33,1.33,0,0,1-.79-.67l-.57-1.17a1,1,0,0,0-1.2-.33,1.27,1.27,0,0,0-.62.39.7.7,0,0,0-.19.55c.05.43.12.86.18,1.3a1.32,1.32,0,0,1-.3,1,2.24,2.24,0,0,1-1,.74l0,.13-.22.08,0-.12A2.31,2.31,0,0,1,71,123a1.38,1.38,0,0,1-.91-.5l-.79-1A1,1,0,0,0,68,121.4a1.29,1.29,0,0,0-.53.5.72.72,0,0,0-.08.58l.43,1.23a1.3,1.3,0,0,1-.1,1,2.23,2.23,0,0,1-.82.92l.08.11-.2.13-.07-.12a2.25,2.25,0,0,1-1.16.42,1.66,1.66,0,0,1-.55-.07,1,1,0,0,1-.44-.24l-1-.87a1,1,0,0,0-1.24.16,1,1,0,0,0-.39,1.18c.22.37.44.75.67,1.12a1.17,1.17,0,0,1,.15.48,1.22,1.22,0,0,1,0,.27c0,.09,0,.18,0,.28a2.18,2.18,0,0,1-.63,1.06l.1.09-.16.17-.1-.1a2.18,2.18,0,0,1-1.06.63,1.35,1.35,0,0,1-.28,0h-.26a1.34,1.34,0,0,1-.49-.15l-1.12-.67a1.17,1.17,0,0,0-1.34,1.62l.87,1a1,1,0,0,1,.25.44,1.66,1.66,0,0,1,.06.55,2.26,2.26,0,0,1-.41,1.15l.11.08-.13.2-.11-.08a2.17,2.17,0,0,1-.92.82,1.34,1.34,0,0,1-1,.1L54.86,135a.69.69,0,0,0-.57.08,1.25,1.25,0,0,0-.51.53,1,1,0,0,0,.09,1.24l1,.79a1.37,1.37,0,0,1,.49.91,2.23,2.23,0,0,1-.18,1.22l.13.05-.09.21-.12-.05a2.31,2.31,0,0,1-.75,1,1.32,1.32,0,0,1-1,.3l-1.3-.19a.73.73,0,0,0-.55.2,1.38,1.38,0,0,0-.39.62,1,1,0,0,0,.33,1.2l1.18.56a1.4,1.4,0,0,1,.66.8,2.3,2.3,0,0,1,.06,1.23l.14,0c0,.07,0,.15,0,.23l-.13,0a2.15,2.15,0,0,1-.54,1.11,1.3,1.3,0,0,1-.9.49l-1.31.07a1.16,1.16,0,0,0-.2,2.09l1.26.33a1.79,1.79,0,0,1,1.11,1.84h.14s0,.08,0,.12,0,.08,0,.11h-.14A1.81,1.81,0,0,1,51.67,154l-1.26.32a1,1,0,0,0-.56,1.11c.06.54.39,1,.76,1l1.31.08a1.29,1.29,0,0,1,.9.48,2.19,2.19,0,0,1,.54,1.11l.13,0c0,.07,0,.15,0,.23l-.14,0a2.3,2.3,0,0,1-.06,1.23,1.37,1.37,0,0,1-.66.8c-.4.19-.79.37-1.18.57a1,1,0,0,0-.33,1.19,1.41,1.41,0,0,0,.39.63.72.72,0,0,0,.55.19l1.3-.18a1.32,1.32,0,0,1,1,.3,2.22,2.22,0,0,1,.75,1l.12-.05.09.22-.13.05a2.22,2.22,0,0,1,.18,1.22,1.37,1.37,0,0,1-.49.91l-1,.78a1,1,0,0,0-.09,1.24,1.27,1.27,0,0,0,.51.54.73.73,0,0,0,.57.08l1.23-.44a1.39,1.39,0,0,1,1,.1,2.32,2.32,0,0,1,.92.82l.11-.07.13.19-.11.08a2.3,2.3,0,0,1,.41,1.16,1.57,1.57,0,0,1-.06.54,1.11,1.11,0,0,1-.25.45l-.87,1a1,1,0,0,0,.16,1.23,1,1,0,0,0,1.18.39c.38-.21.75-.44,1.12-.66a1,1,0,0,1,.49-.15h.26a1.37,1.37,0,0,1,.28.05,2.24,2.24,0,0,1,1.06.62l.1-.09.16.16-.1.1a2.14,2.14,0,0,1,.63,1.06,2.33,2.33,0,0,1,0,.28,1.27,1.27,0,0,1-.15.74L62,177.62A1.16,1.16,0,0,0,63.6,179l1-.87a1.26,1.26,0,0,1,.44-.24,1.66,1.66,0,0,1,.55-.06,2.24,2.24,0,0,1,1.16.41l.07-.11.2.13-.08.11a2.17,2.17,0,0,1,.82.92,1.27,1.27,0,0,1,.1,1c-.14.41-.29.82-.43,1.24a.7.7,0,0,0,.08.57,1.31,1.31,0,0,0,.53.51,1,1,0,0,0,1.24-.09c.27-.34.53-.69.79-1A1.33,1.33,0,0,1,71,181a2.22,2.22,0,0,1,1.22.18l0-.13.22.09,0,.12a2.26,2.26,0,0,1,1,.75,1.3,1.3,0,0,1,.3,1c-.06.43-.13.86-.18,1.3a.7.7,0,0,0,.19.54,1.27,1.27,0,0,0,.62.39,1,1,0,0,0,1.2-.32l.57-1.18a1.35,1.35,0,0,1,.79-.66,2.21,2.21,0,0,1,1.23-.06l0-.14.23.05,0,.13a2.25,2.25,0,0,1,1.12.53,1.37,1.37,0,0,1,.48.91c0,.43,0,.87.08,1.3s.44.71,1,.77a1,1,0,0,0,1.11-.56c.11-.42.22-.84.32-1.27a1.8,1.8,0,0,1,1.84-1.1v-.14h.24v.14a1.8,1.8,0,0,1,1.84,1.1c.1.43.21.85.32,1.27a1,1,0,0,0,1.11.56c.54-.06,1-.4,1-.77s.06-.87.08-1.3a1.34,1.34,0,0,1,.49-.91,2.18,2.18,0,0,1,1.11-.53l0-.13.23-.05,0,.14a2.21,2.21,0,0,1,1.23.06,1.35,1.35,0,0,1,.79.66l.57,1.18a1,1,0,0,0,1.2.32,1.27,1.27,0,0,0,.62-.39.7.7,0,0,0,.19-.54c0-.44-.12-.87-.18-1.3a1.3,1.3,0,0,1,.3-1,2.26,2.26,0,0,1,1-.75l0-.12.22-.09,0,.13a2.22,2.22,0,0,1,1.22-.18,1.33,1.33,0,0,1,.91.49c.26.35.52.7.79,1a1,1,0,0,0,1.24.09,1.31,1.31,0,0,0,.53-.51.7.7,0,0,0,.08-.57c-.14-.42-.29-.83-.43-1.24a1.27,1.27,0,0,1,.1-1,2.17,2.17,0,0,1,.82-.92l-.08-.11.2-.13.07.11a2.24,2.24,0,0,1,1.16-.41,1.66,1.66,0,0,1,.55.06,1.26,1.26,0,0,1,.44.24l1,.87a1.16,1.16,0,0,0,1.63-1.33l-.67-1.13A1.29,1.29,0,0,1,106,176a1.13,1.13,0,0,1,0-.26,2.33,2.33,0,0,1,0-.28,2.14,2.14,0,0,1,.63-1.06l-.1-.1.16-.16.1.09a2.24,2.24,0,0,1,1.06-.62,1.37,1.37,0,0,1,.28-.05h.26a1,1,0,0,1,.49.15c.37.22.74.45,1.12.66a1,1,0,0,0,1.18-.39,1,1,0,0,0,.16-1.23l-.87-1a1.11,1.11,0,0,1-.25-.45,1.57,1.57,0,0,1-.06-.54,2.22,2.22,0,0,1,.42-1.16l-.12-.08.13-.19.11.07a2.32,2.32,0,0,1,.92-.82,1.39,1.39,0,0,1,1-.1l1.23.44a.73.73,0,0,0,.57-.08,1.27,1.27,0,0,0,.51-.54,1,1,0,0,0-.08-1.24l-1-.78a1.37,1.37,0,0,1-.49-.91,2.22,2.22,0,0,1,.18-1.22l-.13-.05.09-.22.13.05a2.13,2.13,0,0,1,.74-1,1.32,1.32,0,0,1,1-.3l1.3.18a.72.72,0,0,0,.55-.19,1.35,1.35,0,0,0,.39-.62,1,1,0,0,0-.33-1.2c-.39-.2-.78-.38-1.18-.57a1.37,1.37,0,0,1-.66-.8,2.3,2.3,0,0,1-.06-1.23l-.14,0c0-.08,0-.16,0-.23l.13,0a2.19,2.19,0,0,1,.54-1.11,1.29,1.29,0,0,1,.9-.48l1.31-.08c.37,0,.7-.44.76-1A1,1,0,0,0,118.33,154.27Z"/><circle class="cls-17" cx="84.26" cy="151.99" r="27.17"/><path class="cls-18" d="M108.27,154.23l-1.18-.35a1.23,1.23,0,0,1-.73-.64,2.32,2.32,0,0,1-.27-1.14h-.26c0-.06,0-.12,0-.18v0h.26a2.35,2.35,0,0,1,.27-1.15,1.3,1.3,0,0,1,.73-.64l1.18-.34a.65.65,0,0,0,.39-.39,1.48,1.48,0,0,0,.08-.71,1.51,1.51,0,0,0-.1-.38,1.17,1.17,0,0,0-.17-.29.65.65,0,0,0-.48-.27l-1.22,0a1.31,1.31,0,0,1-.88-.42,2.29,2.29,0,0,1-.34-.46,2.39,2.39,0,0,1-.13-.28,2.47,2.47,0,0,1-.1-.29l-.23.06-.06-.22.23-.06a2.22,2.22,0,0,1-.1-.61,2.13,2.13,0,0,1,0-.57,1.27,1.27,0,0,1,.53-.81l1-.65a.69.69,0,0,0,.26-.48,1.25,1.25,0,0,0-.11-.72c-.22-.48-.63-.79-1-.7l-1.19.32a1.27,1.27,0,0,1-1-.17,2.44,2.44,0,0,1-.46-.35,2,2,0,0,1-.37-.49l-.19.12a2,2,0,0,0-.11-.2l.18-.11a2.18,2.18,0,0,1-.26-.56,2.86,2.86,0,0,1-.07-.28,1.33,1.33,0,0,1,0-.28,1.21,1.21,0,0,1,.29-.92l.82-.91a1.17,1.17,0,0,0-1.3-1.6l-1,.62a1.24,1.24,0,0,1-1,.1,2,2,0,0,1-.53-.21,2.43,2.43,0,0,1-.49-.37l-.13.14-.17-.15.13-.14a2.93,2.93,0,0,1-.4-.47,2.4,2.4,0,0,1-.25-.51,1.29,1.29,0,0,1,0-1c.19-.36.37-.73.55-1.09a.65.65,0,0,0,0-.56,1.36,1.36,0,0,0-.46-.54,1,1,0,0,0-1.2-.09c-.29.29-.57.58-.85.88a.94.94,0,0,1-.39.25l-.25.07a1.09,1.09,0,0,1-.26,0A2.83,2.83,0,0,1,95,133l-.29-.1-.29-.13-.07.15-.2-.1.07-.15a2.3,2.3,0,0,1-.51-.35,1.88,1.88,0,0,1-.38-.42,1.29,1.29,0,0,1-.23-.95c.08-.39.16-.79.23-1.19a.63.63,0,0,0-.17-.53,1.29,1.29,0,0,0-.59-.4,1,1,0,0,0-1.18.23c-.2.36-.39.72-.58,1.08a1.26,1.26,0,0,1-.78.59,2.43,2.43,0,0,1-.56.09,2.14,2.14,0,0,1-.61-.06l0,.15-.22,0,0-.15a2.3,2.3,0,0,1-1.07-.49,1.24,1.24,0,0,1-.48-.85c0-.4-.06-.81-.1-1.22a.68.68,0,0,0-.3-.46,1.44,1.44,0,0,0-.69-.22,1.59,1.59,0,0,0-.38,0,1,1,0,0,0-.32.11A.64.64,0,0,0,85,128c-.1.39-.18.79-.27,1.19a1.23,1.23,0,0,1-.59.77,2,2,0,0,1-.51.24,2.87,2.87,0,0,1-.61.11v.14h-.22v-.13a2.14,2.14,0,0,1-.62,0,1.88,1.88,0,0,1-.54-.16,1.26,1.26,0,0,1-.69-.69l-.42-1.14c-.12-.33-.61-.5-1.14-.4s-.9.47-.89.81,0,.82.07,1.22a1.27,1.27,0,0,1-.36.91,2.61,2.61,0,0,1-.43.37,2.42,2.42,0,0,1-.56.27l0,.12-.21.08,0-.13a2.19,2.19,0,0,1-1.17.13,1.21,1.21,0,0,1-.85-.47l-.72-1a.67.67,0,0,0-.5-.24,1.47,1.47,0,0,0-.7.17c-.48.24-.74.7-.63,1l.39,1.16a1.25,1.25,0,0,1-.1,1,2.24,2.24,0,0,1-.31.47l-.22.21-.24.2.07.1-.19.13-.07-.1a2.47,2.47,0,0,1-1.09.44,1.49,1.49,0,0,1-.52,0,1.13,1.13,0,0,1-.43-.2c-.31-.26-.63-.51-.95-.76a.71.71,0,0,0-.55-.09,1.15,1.15,0,0,0-.32.12,1.26,1.26,0,0,0-.31.22,1.44,1.44,0,0,0-.38.61.62.62,0,0,0,0,.55l.69,1a1.21,1.21,0,0,1,.16,1,2.18,2.18,0,0,1-.51,1.06l.1.08-.14.18-.1-.08a2.39,2.39,0,0,1-.93.71,1.29,1.29,0,0,1-1,0c-.37-.17-.75-.32-1.12-.48s-.78.11-1.07.56a1,1,0,0,0,0,1.2c.31.27.61.53.93.79a1.23,1.23,0,0,1,.42.88,2.23,2.23,0,0,1,0,.57,2.34,2.34,0,0,1-.18.59l.13.05-.09.21-.13-.06a2.25,2.25,0,0,1-.71.95,1.26,1.26,0,0,1-.92.3c-.4-.06-.81-.11-1.21-.15a.65.65,0,0,0-.52.2,1.56,1.56,0,0,0-.36.62,1,1,0,0,0,.32,1.16c.37.18.74.34,1.11.5a1.1,1.1,0,0,1,.38.29,1.53,1.53,0,0,1,.14.21,1.08,1.08,0,0,1,.12.24,2,2,0,0,1,.13.55,3.22,3.22,0,0,1,0,.62l.15,0,0,.22-.15,0a2.2,2.2,0,0,1-.16.6,1.83,1.83,0,0,1-.27.5,1.28,1.28,0,0,1-.81.54c-.41.05-.81.12-1.21.18s-.61.49-.62,1,.28,1,.62,1l1.21.19a1.23,1.23,0,0,1,.81.53,2.19,2.19,0,0,1,.27.5,2.41,2.41,0,0,1,.16.6l.17,0,0,.22-.17,0a3.24,3.24,0,0,1,0,.62,1.85,1.85,0,0,1-.13.55,1.15,1.15,0,0,1-.12.25,1.43,1.43,0,0,1-.14.2.9.9,0,0,1-.38.29l-1.11.5a1,1,0,0,0-.32,1.16,1.54,1.54,0,0,0,.36.63.69.69,0,0,0,.52.2l1.21-.15a1.26,1.26,0,0,1,.92.3,2.28,2.28,0,0,1,.71.94l.18-.08.09.21-.18.08a2.11,2.11,0,0,1,.18.59,2.15,2.15,0,0,1,0,.56,1.24,1.24,0,0,1-.42.89l-.93.78a1,1,0,0,0,0,1.2c.29.46.75.69,1.07.56l1.12-.47a1.29,1.29,0,0,1,1,0,2.33,2.33,0,0,1,.93.72l.17-.14.14.18-.17.13a2.22,2.22,0,0,1,.51,1.06,1.21,1.21,0,0,1-.16,1l-.69,1a.61.61,0,0,0,0,.55,1.41,1.41,0,0,0,.38.6,1.66,1.66,0,0,0,.31.23,1.52,1.52,0,0,0,.32.11.64.64,0,0,0,.55-.09l.95-.75a1,1,0,0,1,.43-.2,1.49,1.49,0,0,1,.52,0,2.44,2.44,0,0,1,1.09.43l.14-.19.18.13-.13.19.24.2.22.22a1.82,1.82,0,0,1,.31.47,1.24,1.24,0,0,1,.1,1l-.39,1.15a1,1,0,0,0,.63,1,1.36,1.36,0,0,0,.7.17.64.64,0,0,0,.5-.24c.24-.33.48-.65.72-1a1.29,1.29,0,0,1,.85-.47,2.3,2.3,0,0,1,1.17.13l.09-.24.21.07-.09.24a2.44,2.44,0,0,1,.56.28,2.56,2.56,0,0,1,.43.36,1.27,1.27,0,0,1,.36.91c0,.41,0,.82-.07,1.22s.37.7.89.82a1,1,0,0,0,1.14-.4l.42-1.15a1.33,1.33,0,0,1,.69-.69,1.88,1.88,0,0,1,.54-.16,2.14,2.14,0,0,1,.62,0l0-.27H83l0,.27a3.68,3.68,0,0,1,.61.11,2,2,0,0,1,.51.24,1.25,1.25,0,0,1,.59.78c.09.39.17.79.27,1.19a.62.62,0,0,0,.36.41,1.33,1.33,0,0,0,.32.12,1.6,1.6,0,0,0,.38,0,1.44,1.44,0,0,0,.69-.22.68.68,0,0,0,.3-.46c0-.41.07-.81.1-1.22a1.22,1.22,0,0,1,.48-.84,2.22,2.22,0,0,1,1.07-.5l-.06-.28.22,0,.06.27a2.56,2.56,0,0,1,.61,0,2.43,2.43,0,0,1,.56.09,1.22,1.22,0,0,1,.78.58c.19.36.38.72.58,1.08a1,1,0,0,0,1.18.24,1.3,1.3,0,0,0,.59-.41.61.61,0,0,0,.17-.52c-.07-.4-.15-.8-.23-1.2a1.32,1.32,0,0,1,.23-.95,2.13,2.13,0,0,1,.38-.42,2.7,2.7,0,0,1,.51-.35l-.13-.25.2-.1.13.25.29-.13L95,171a1.88,1.88,0,0,1,.57-.06,1.09,1.09,0,0,1,.26,0,1,1,0,0,1,.25.06,1,1,0,0,1,.39.26c.28.29.56.59.85.88a1,1,0,0,0,1.2-.09,1.39,1.39,0,0,0,.46-.55.63.63,0,0,0,0-.55c-.18-.37-.36-.73-.55-1.09a1.29,1.29,0,0,1,0-1,2.26,2.26,0,0,1,.25-.52,3.38,3.38,0,0,1,.4-.46l-.19-.22.16-.15.2.21a2.06,2.06,0,0,1,.49-.36,2,2,0,0,1,.53-.22,1.28,1.28,0,0,1,1,.1l1,.62a1,1,0,0,0,1.13-.41,1,1,0,0,0,.17-1.19l-.82-.9a1.53,1.53,0,0,1-.26-1.2c0-.1,0-.19.07-.29a2.18,2.18,0,0,1,.26-.56l-.24-.15a1.18,1.18,0,0,0,.11-.19l.25.15a2,2,0,0,1,.37-.49,3,3,0,0,1,.46-.35,1.27,1.27,0,0,1,1-.17l1.19.32c.34.09.75-.21,1-.7a1.22,1.22,0,0,0,.11-.71.65.65,0,0,0-.26-.48l-1-.65a1.27,1.27,0,0,1-.53-.82,2.09,2.09,0,0,1,0-.56,2.29,2.29,0,0,1,.1-.62l-.26-.07.06-.21.26.07a2.64,2.64,0,0,1,.1-.3,1.69,1.69,0,0,1,.13-.27,2,2,0,0,1,.34-.46,1.26,1.26,0,0,1,.88-.42l1.22,0a.72.72,0,0,0,.48-.27,1.46,1.46,0,0,0,.17-.3,1.44,1.44,0,0,0,.1-.37,1.47,1.47,0,0,0-.08-.71A.65.65,0,0,0,108.27,154.23Zm-23.9,15.7A17.95,17.95,0,1,1,102.32,152,17.95,17.95,0,0,1,84.37,169.93Z"/><path class="cls-19" d="M96.62,229.54H72v-5.28a1.54,1.54,0,0,1,1.54-1.55h21.5a1.55,1.55,0,0,1,1.55,1.55Z"/><path class="cls-20" d="M96.62,236.36H72a4.88,4.88,0,0,0,0-6.82H96.62a4.87,4.87,0,0,0,0,6.82Z"/><path class="cls-21" d="M102.32,243.19h-36v-5.28a1.56,1.56,0,0,1,1.55-1.55h32.9a1.56,1.56,0,0,1,1.55,1.55Z"/><path class="cls-22" d="M66.32,243.19h36a0,0,0,0,1,0,0v1.67a1,1,0,0,1-1,1H67.29a1,1,0,0,1-1-1v-1.67A0,0,0,0,1,66.32,243.19Z"/><path class="cls-23" d="M107,129.31a32.07,32.07,0,1,0-27.88,54.33l-.53-8.16A24.12,24.12,0,0,1,60.2,152.65c0-.21,0-.42,0-.63a24.15,24.15,0,1,1,48.3,0c0,.18,0,.35,0,.53a23.88,23.88,0,0,1-1.87,8.83,24.23,24.23,0,0,1-16.56,14.11l-.53,8.15A32.08,32.08,0,0,0,107,129.31Z"/><rect class="cls-24" x="84.33" y="151.99" height="0.03"/><polygon class="cls-24" points="84.34 152.02 84.35 152.02 84.34 152.01 84.34 152.02"/><path class="cls-25" d="M84.34,152h0l23.52,5.45a23.49,23.49,0,0,0,.61-4.92,1.42,1.42,0,0,1-1.66.85l-9.11-2.2a5,5,0,0,1-3.35-2.74l-10,3.51Z"/><polygon class="cls-24" points="84.37 151.97 84.32 151.99 84.34 152.01 84.37 151.97"/><path class="cls-26" d="M94.36,148.46a5,5,0,0,1,.38-4.89l5.23-7.76a1.45,1.45,0,0,1,1.79-.52,24.52,24.52,0,0,0-4-3.37L84.37,152Z"/><polygon class="cls-24" points="84.28 152.03 84.34 152.02 84.32 151.99 84.28 152.03"/><path class="cls-27" d="M84.35,152l8.12,8.16a5,5,0,0,1,4.5-1.13l9.64,2.33a23.48,23.48,0,0,0,1.26-3.91Z"/><path class="cls-28" d="M84.32,152h0l-10-3.51A4.93,4.93,0,0,1,71,151.2l-9.14,2.21a1.44,1.44,0,0,1-1.64-.76,24,24,0,0,0,.61,4.82L84.28,152Z"/><path class="cls-29" d="M71,131.92a24.22,24.22,0,0,0-4,3.31,1.44,1.44,0,0,1,1.72.55L74,143.57a5,5,0,0,1,.37,4.91l10,3.51Z"/><path class="cls-30" d="M60.81,157.47a23.48,23.48,0,0,0,1.26,3.91l9.61-2.32a5,5,0,0,1,4.49,1.12L84.28,152Z"/><path class="cls-31" d="M80.21,138.9l-5-7.49a1.46,1.46,0,0,1,.13-1.79,24.31,24.31,0,0,0-4.34,2.3L84.32,152V141.1A4.93,4.93,0,0,1,80.21,138.9Z"/><path class="cls-32" d="M93.37,129.61a1.44,1.44,0,0,1,.15,1.81l-5,7.48a5,5,0,0,1-4.14,2.21h0V152l13.42-20.07A25,25,0,0,0,93.37,129.61Z"/><path class="cls-1" d="M90.05,175.49a24.23,24.23,0,0,0,16.56-14.11,23.88,23.88,0,0,0,1.87-8.83c0-.18,0-.35,0-.53a24.15,24.15,0,1,0-48.3,0c0,.21,0,.42,0,.63a24.13,24.13,0,0,0,24.14,23.52A24.39,24.39,0,0,0,90.05,175.49Z"/><path class="cls-33" d="M84.35,152h0v47.36a4.15,4.15,0,0,0,4.13-3.89l1-11.85.53-8.15.77-11.92a4.92,4.92,0,0,1,1.65-3.39Z"/><path class="cls-34" d="M84.28,152l-8.11,8.15a5,5,0,0,1,1.66,3.4l.76,11.9.53,8.16,1,11.85a4.16,4.16,0,0,0,4.15,3.89h0V152Z"/><path class="cls-35" d="M88.76,152.21v.15s0,0,0,.07v.13c0,.06,0,.13,0,.2a3.91,3.91,0,0,1-.14.68c0,.1-.06.2-.1.3a2.09,2.09,0,0,1-.08.23,4.38,4.38,0,0,1-2.65,2.43h0l2,2a.21.21,0,0,1,0,.31h0l-1.41,1.41h0a.21.21,0,0,1-.31,0l-4.62-4.62-.16-.15-.07-.08,0-.05a4.31,4.31,0,0,1-1-1.62,4.23,4.23,0,0,1-.17-.68s0-.09,0-.13v-.06a.41.41,0,0,1,0-.11c0-.12,0-.23,0-.35a1.27,1.27,0,0,1,0-.2,1.09,1.09,0,0,1,0-.18c0-.1,0-.21,0-.32l0-.17c0-.11,0-.22.09-.34s0-.1,0-.16a4.22,4.22,0,0,1,.18-.45h0l0-.11a.41.41,0,0,0,0-.09l.12-.22.06-.1a4.23,4.23,0,0,1,.52-.68s0,0,0,0l.07-.06.1-.11L86,144.37a.21.21,0,0,1,.31,0h0l1.41,1.41a.23.23,0,0,1,0,.31l-2,2a4.37,4.37,0,0,1,2.77,2.8,3.44,3.44,0,0,1,.16.69l0,.16s0,.09,0,.13,0,.08,0,.12v.07a.62.62,0,0,1,0,.13Zm-2.44-.05a1.95,1.95,0,0,0-3.81-.5.5.5,0,0,0,0,.13l0,.17a1.23,1.23,0,0,0,0,.19v.18a1.93,1.93,0,0,0,.57,1.29,2,2,0,0,0,2.76,0,1.9,1.9,0,0,0,.45-.7,2.76,2.76,0,0,0,.08-.27v0s0-.05,0-.07,0-.14,0-.21Z"/><circle class="cls-36" cx="84.26" cy="194.66" r="2.34"/><path class="cls-37" d="M297.17,162.9a4.56,4.56,0,0,0-.44-2.15,9.72,9.72,0,0,1-.93-4.63v-.24a9.76,9.76,0,0,1,1.39-4.52,4.78,4.78,0,0,0,.64-2.09,4.66,4.66,0,1,0-9.31-.52A4.57,4.57,0,0,0,289,151a9.8,9.8,0,0,1,.93,4.65v.21a9.72,9.72,0,0,1-1.39,4.53,4.66,4.66,0,1,0,8.67,2.55Z"/><path class="cls-38" d="M291.39,191.26a4.65,4.65,0,0,0,.15-2.18,9.69,9.69,0,0,1,.34-4.72l.07-.23a10,10,0,0,1,2.54-4,4.6,4.6,0,0,0,1.18-1.84,4.66,4.66,0,1,0-9-.73,9.81,9.81,0,0,1-.33,4.72l-.07.21a9.68,9.68,0,0,1-2.54,4,4.72,4.72,0,0,0-1.2,1.91,4.66,4.66,0,1,0,8.87,2.86Z"/><path class="cls-39" d="M262.47,170.66a4.53,4.53,0,0,0,2.16.32,9.85,9.85,0,0,1,4.68.7l.22.1a9.72,9.72,0,0,1,3.78,2.84,4.54,4.54,0,0,0,1.75,1.31,4.66,4.66,0,1,0,3.66-8.57,4.58,4.58,0,0,0-2.23-.34,9.89,9.89,0,0,1-4.69-.71l-.2-.08a9.75,9.75,0,0,1-3.78-2.85,4.67,4.67,0,0,0-7.91,1.16A4.67,4.67,0,0,0,262.47,170.66Z"/><path class="cls-40" d="M256.85,139.68a4.6,4.6,0,0,0,0,2.18,9.83,9.83,0,0,1-.07,4.73l-.07.24a9.86,9.86,0,0,1-2.31,4.12,4.52,4.52,0,0,0-1.07,1.9,4.66,4.66,0,1,0,9,.24,9.75,9.75,0,0,1,.07-4.74l.06-.21a9.73,9.73,0,0,1,2.31-4.13,4.57,4.57,0,0,0,1.1-2,4.66,4.66,0,1,0-9-2.37Z"/><path class="cls-41" d="M287.5,132.49a4.77,4.77,0,0,0-2.19,0,9.83,9.83,0,0,1-4.73-.05l-.23-.06a9.91,9.91,0,0,1-4.14-2.3A4.48,4.48,0,0,0,274.3,129a4.66,4.66,0,1,0-2.44,9,4.52,4.52,0,0,0,2.25,0,9.75,9.75,0,0,1,4.74.05l.21.06a9.89,9.89,0,0,1,4.14,2.29,4.54,4.54,0,0,0,2,1.09,4.66,4.66,0,1,0,2.33-9Z"/><path class="cls-42" d="M287.74,217.45a4.58,4.58,0,0,0-.35-2.16,9.86,9.86,0,0,1-.75-4.67l0-.25a9.87,9.87,0,0,1,1.56-4.45,4.63,4.63,0,0,0,.73-2.07,4.66,4.66,0,1,0-9.28-.89,4.63,4.63,0,0,0,.35,2.23,9.88,9.88,0,0,1,.75,4.68l0,.22a9.69,9.69,0,0,1-1.57,4.46,4.66,4.66,0,1,0,8.56,2.9Z"/><path class="cls-43" d="M260.65,168.19a4.69,4.69,0,0,0-1.53-1.57,9.77,9.77,0,0,1-3.29-3.38l-.13-.22a9.76,9.76,0,0,1-1.29-4.54,4.51,4.51,0,0,0-.59-2.11,4.66,4.66,0,1,0-8.1,4.61,4.61,4.61,0,0,0,1.56,1.63,9.76,9.76,0,0,1,3.31,3.39l.11.19a9.84,9.84,0,0,1,1.29,4.55,4.55,4.55,0,0,0,.62,2.17,4.66,4.66,0,1,0,8-4.72Z"/><path class="cls-44" d="M270.62,195.22a4.71,4.71,0,0,0-1-1.95,9.88,9.88,0,0,1-2.15-4.21l-.05-.24a9.67,9.67,0,0,1,.11-4.72,4.75,4.75,0,0,0,.05-2.19,4.66,4.66,0,1,0-9.1,2,4.52,4.52,0,0,0,1,2,9.7,9.7,0,0,1,2.15,4.22l.05.21a9.71,9.71,0,0,1-.11,4.73,4.67,4.67,0,0,0,5.55,5.76A4.67,4.67,0,0,0,270.62,195.22Z"/><path class="cls-45" d="M273.38,224.13a4.58,4.58,0,0,0-.61-2.11,13,13,0,0,1-1.83-5.12v-.24a9.75,9.75,0,0,1,1-4.62,4.5,4.5,0,0,0,.47-2.13,4.66,4.66,0,1,0-9.32.22,4.79,4.79,0,0,0,.61,2.17,9.75,9.75,0,0,1,1.31,4.56v.21c.05,1.61.23,3.76-.48,5.2a4.66,4.66,0,1,0,8.84,1.86Z"/><path class="cls-46" d="M305.61,142.23a4.66,4.66,0,0,0-1.53-1.56,9.74,9.74,0,0,1-3.3-3.39l-.12-.21a9.84,9.84,0,0,1-1.29-4.55,4.59,4.59,0,0,0-.59-2.1,4.66,4.66,0,1,0-8.1,4.61,4.58,4.58,0,0,0,1.56,1.62,9.79,9.79,0,0,1,3.31,3.4l.11.19a9.67,9.67,0,0,1,1.28,4.55,4.66,4.66,0,1,0,8.67-2.56Z"/><path class="cls-47" d="M282.5,121a4.63,4.63,0,0,0-2.12.54,9.76,9.76,0,0,1-4.58,1.16h-.25a9.79,9.79,0,0,1-4.58-1.16,4.57,4.57,0,0,0-2.12-.54,4.67,4.67,0,1,0-.06,9.33,4.59,4.59,0,0,0,2.19-.55,9.84,9.84,0,0,1,4.6-1.16h.21a9.65,9.65,0,0,1,4.59,1.16,4.73,4.73,0,0,0,2.19.54,4.66,4.66,0,1,0-.07-9.32Z"/><path class="cls-48" d="M245.75,142.24a4.6,4.6,0,0,1,1.53-1.57,9.8,9.8,0,0,0,3.29-3.39l.13-.21a9.91,9.91,0,0,0,1.28-4.55,4.66,4.66,0,1,1,8.7,2.51,4.69,4.69,0,0,1-1.57,1.62,9.77,9.77,0,0,0-3.3,3.4l-.11.19a9.8,9.8,0,0,0-1.29,4.55,4.59,4.59,0,0,1-.62,2.16,4.66,4.66,0,1,1-8-4.71Z"/><path class="cls-49" d="M295.91,177a4.6,4.6,0,0,0-.35-2.16,9.85,9.85,0,0,1-.74-4.67l0-.25a9.65,9.65,0,0,1,1.57-4.45,4.66,4.66,0,1,0-8.55-3,4.6,4.6,0,0,0,.34,2.22,9.79,9.79,0,0,1,.74,4.69l0,.21a9.88,9.88,0,0,1-1.57,4.46,4.57,4.57,0,0,0-.74,2.13,4.66,4.66,0,1,0,9.29.79Z"/><path class="cls-36" d="M292.52,165.46h-.24a2.5,2.5,0,0,1-1.69-.89,2.47,2.47,0,0,1-.57-1.83,2.5,2.5,0,1,1,4.09,2.15A2.45,2.45,0,0,1,292.52,165.46Zm0-4.07a1.53,1.53,0,0,0-1,.37,1.57,1.57,0,0,0,.86,2.76h0a1.57,1.57,0,0,0,1.14-.35,1.59,1.59,0,0,0,.56-1.07,1.58,1.58,0,0,0-1.42-1.7Z"/><path class="cls-36" d="M291.26,179.17a2.5,2.5,0,0,1-1.86-.82h0a2.5,2.5,0,0,1,.19-3.53,2.47,2.47,0,0,1,1.8-.64,2.49,2.49,0,0,1,1.54,4.35A2.46,2.46,0,0,1,291.26,179.17Zm-1.16-1.44a1.54,1.54,0,0,0,1.08.51,1.57,1.57,0,0,0,1.13-.4,1.56,1.56,0,0,0,.51-1.08,1.52,1.52,0,0,0-.4-1.13,1.56,1.56,0,0,0-2.21-.12,1.61,1.61,0,0,0-.52,1.09,1.56,1.56,0,0,0,.41,1.13Z"/><path class="cls-50" d="M293.72,171.49a4.69,4.69,0,0,0,1.06-1.92,9.72,9.72,0,0,1,2.29-4.14l.17-.17a9.7,9.7,0,0,1,4-2.55,4.51,4.51,0,0,0,1.84-1.18,4.66,4.66,0,1,0-6.75-6.42,4.57,4.57,0,0,0-1.1,2,9.78,9.78,0,0,1-2.3,4.15l-.15.16a9.8,9.8,0,0,1-4,2.55,4.56,4.56,0,0,0-1.89,1.22,4.66,4.66,0,1,0,6.84,6.34Z"/><path class="cls-51" d="M304.33,158.86a4.51,4.51,0,0,0-.25-2.17,9.76,9.76,0,0,1-.53-4.7l0-.24a9.89,9.89,0,0,1,1.77-4.38,4.62,4.62,0,0,0,.82-2,4.66,4.66,0,1,0-9,.92,9.82,9.82,0,0,1,.54,4.71l0,.22a9.77,9.77,0,0,1-1.77,4.39,4.59,4.59,0,0,0-.83,2.09,4.66,4.66,0,1,0,9.24,1.19Z"/><path class="cls-52" d="M278.1,176.17a4.76,4.76,0,0,0,1.93-1,9.8,9.8,0,0,1,4.16-2.23l.24-.06a10,10,0,0,1,4.73,0,4.59,4.59,0,0,0,2.18,0,4.66,4.66,0,1,0-2.18-9.07,4.6,4.6,0,0,0-2,1.06,9.85,9.85,0,0,1-4.17,2.24l-.22,0a9.83,9.83,0,0,1-4.73,0,4.75,4.75,0,0,0-2.25,0,4.67,4.67,0,1,0,2.31,9Z"/><path class="cls-53" d="M253.69,156.36a4.51,4.51,0,0,0,1.47,1.62,9.86,9.86,0,0,1,3.16,3.51l.11.22a9.76,9.76,0,0,1,1.12,4.59,4.66,4.66,0,1,0,8.78-2.17,4.52,4.52,0,0,0-1.5-1.68,9.75,9.75,0,0,1-3.17-3.52l-.1-.19a9.83,9.83,0,0,1-1.12-4.6,4.55,4.55,0,0,0-.54-2.19,4.66,4.66,0,1,0-8.21,4.41Z"/><path class="cls-54" d="M270.53,129.62A4.65,4.65,0,0,0,269,131.2a9.82,9.82,0,0,1-3.28,3.41l-.2.13a9.87,9.87,0,0,1-4.5,1.44,4.74,4.74,0,0,0-2.09.66,4.66,4.66,0,1,0,6.45,6.33,9.77,9.77,0,0,1,3.28-3.42l.19-.12a9.87,9.87,0,0,1,4.51-1.44,4.65,4.65,0,0,0,3.62-7.12A4.67,4.67,0,0,0,270.53,129.62Z"/><path class="cls-55" d="M297.21,146.62a4.55,4.55,0,0,0-1.53-1.58,9.79,9.79,0,0,1-3.27-3.41l-.12-.21a9.73,9.73,0,0,1-1.27-4.55,4.66,4.66,0,1,0-8.71,2.45,4.53,4.53,0,0,0,1.56,1.63,9.8,9.8,0,0,1,3.29,3.42l.1.19a9.74,9.74,0,0,1,1.27,4.56,4.6,4.6,0,0,0,.6,2.16,4.66,4.66,0,1,0,8.08-4.66Z"/><path class="cls-56" d="M288.9,204.21a4.6,4.6,0,0,0-.13-2.19,9.93,9.93,0,0,1-.26-4.72l.05-.24a9.85,9.85,0,0,1,2-4.27,4.73,4.73,0,0,0,.94-2,4.66,4.66,0,1,0-9.14-1.84,4.73,4.73,0,0,0,.11,2.25,9.73,9.73,0,0,1,.27,4.73l0,.21a9.74,9.74,0,0,1-2,4.28,4.66,4.66,0,1,0,8.21,3.77Z"/><path class="cls-57" d="M286.67,231.13a4.59,4.59,0,0,0-.37-2.16,9.69,9.69,0,0,1-.8-4.66l0-.25a9.68,9.68,0,0,1,1.51-4.47,4.72,4.72,0,0,0,.7-2.07,4.66,4.66,0,1,0-8.92,1.43,9.8,9.8,0,0,1,.81,4.68l0,.21a9.68,9.68,0,0,1-1.51,4.48,4.74,4.74,0,0,0-.72,2.14,4.66,4.66,0,1,0,9.3.67Z"/><path class="cls-58" d="M267.13,180.69a4.67,4.67,0,0,0-1.45-1.63,9.73,9.73,0,0,1-3.14-3.54l-.11-.22a9.79,9.79,0,0,1-1.08-4.6,4.66,4.66,0,1,0-8.8,2.11A4.61,4.61,0,0,0,254,174.5a9.67,9.67,0,0,1,3.14,3.55l.1.19a9.68,9.68,0,0,1,1.08,4.6,4.66,4.66,0,1,0,8.77-2.15Z"/><path class="cls-59" d="M272.38,209.36a4.62,4.62,0,0,0-.79-2,9.8,9.8,0,0,1-1.71-4.41l0-.24a9.88,9.88,0,0,1,.6-4.69,4.77,4.77,0,0,0,.28-2.17,4.67,4.67,0,1,0-9.27,1.07,4.75,4.75,0,0,0,.81,2.11,9.72,9.72,0,0,1,1.71,4.42l0,.21a9.8,9.8,0,0,1-.6,4.7,4.52,4.52,0,0,0-.27,2.23,4.66,4.66,0,1,0,9.24-1.19Z"/><path class="cls-60" d="M275.08,237.48a4.63,4.63,0,0,0-.8-2,9.78,9.78,0,0,1-1.7-4.41l0-.25a9.71,9.71,0,0,1,.59-4.68,4.52,4.52,0,0,0,.28-2.17,4.66,4.66,0,1,0-9.26,1.07,4.6,4.6,0,0,0,.81,2.1,9.88,9.88,0,0,1,1.71,4.42l0,.22a9.74,9.74,0,0,1-.59,4.69,4.66,4.66,0,1,0,9,1Z"/><path class="cls-61" d="M297,128.52a4.76,4.76,0,0,0-2.11-.59,9.71,9.71,0,0,1-4.55-1.28l-.21-.13a9.8,9.8,0,0,1-3.39-3.29,4.6,4.6,0,0,0-1.57-1.53,4.66,4.66,0,1,0-2.54,8.67,9.88,9.88,0,0,1,4.56,1.29l.19.11a9.74,9.74,0,0,1,3.39,3.3,4.75,4.75,0,0,0,1.62,1.56,4.66,4.66,0,1,0,4.61-8.11Z"/><path class="cls-62" d="M266.23,121.55a4.79,4.79,0,0,0-1.57,1.53,9.74,9.74,0,0,1-3.39,3.3l-.21.12a9.8,9.8,0,0,1-4.55,1.29,4.75,4.75,0,0,0-2.1.59,4.66,4.66,0,1,0,6.23,6.54,9.77,9.77,0,0,1,3.4-3.3l.19-.11a9.8,9.8,0,0,1,4.55-1.29,4.71,4.71,0,0,0,2.16-.62,4.66,4.66,0,1,0-4.71-8Z"/><path class="cls-63" d="M245.06,144.81a4.57,4.57,0,0,0,.54,2.12,9.83,9.83,0,0,1,1.16,4.59v.24a9.76,9.76,0,0,1-1.16,4.58,4.76,4.76,0,0,0-.54,2.12,4.67,4.67,0,1,0,8.78-2.13,9.8,9.8,0,0,1-1.16-4.59v-.22a9.76,9.76,0,0,1,1.16-4.58,4.76,4.76,0,0,0,.54-2.19,4.66,4.66,0,1,0-9.32.06Z"/><path class="cls-35" d="M280.07,151.63v.07a.19.19,0,0,1,0,.08v.2a1.5,1.5,0,0,0,0,.2,5.12,5.12,0,0,1-.14.68,2.64,2.64,0,0,1-.1.3,1.55,1.55,0,0,1-.08.23,4.42,4.42,0,0,1-2.65,2.44h0l2,2a.21.21,0,0,1,0,.31h0l-1.41,1.4h0a.23.23,0,0,1-.31,0l-4.62-4.63-.16-.15-.07-.08,0,0a4.35,4.35,0,0,1-.95-1.63,4,4,0,0,1-.17-.68s0-.08,0-.13v-.06a.37.37,0,0,1,0-.11c0-.11,0-.23,0-.34v-.21a1,1,0,0,0,0-.17c0-.11,0-.22,0-.32l0-.17a3.38,3.38,0,0,1,.08-.34,1,1,0,0,0,.05-.16,3.66,3.66,0,0,1,.18-.46h0a.54.54,0,0,0,.05-.11l0-.09.12-.22.06-.1a4.74,4.74,0,0,1,.51-.67l0,0,.07-.07.1-.1,4.68-4.68a.22.22,0,0,1,.3,0h0l1.41,1.41a.23.23,0,0,1,0,.31l-2,2a4.34,4.34,0,0,1,2.77,2.8,3.35,3.35,0,0,1,.16.68l0,.16s0,.09,0,.13,0,.08,0,.12v.08s0,.08,0,.12Zm-2.44,0a2,2,0,0,0-3.81-.5.65.65,0,0,0,0,.13,1.13,1.13,0,0,0,0,.18,1.1,1.1,0,0,0,0,.18v.19a1.93,1.93,0,0,0,.57,1.29,2,2,0,0,0,2.76,0,1.86,1.86,0,0,0,.45-.71,2.58,2.58,0,0,0,.08-.26v0s0-.05,0-.08,0-.13,0-.2Z"/><path class="cls-64" d="M264.82,222.62h21.72a1.44,1.44,0,0,1,1.44,1.44v5.39a0,0,0,0,1,0,0H263.38a0,0,0,0,1,0,0v-5.39A1.44,1.44,0,0,1,264.82,222.62Z"/><path class="cls-65" d="M288,236.27H263.38a4.88,4.88,0,0,0,0-6.83H288a4.9,4.9,0,0,0,0,6.83Z"/><path class="cls-66" d="M259.12,236.27h33.12a1.44,1.44,0,0,1,1.44,1.44v5.39a0,0,0,0,1,0,0h-36a0,0,0,0,1,0,0v-5.39A1.44,1.44,0,0,1,259.12,236.27Z"/><path class="cls-67" d="M257.68,243.1h36a0,0,0,0,1,0,0v1.74a.89.89,0,0,1-.89.89H258.58a.89.89,0,0,1-.89-.89V243.1A0,0,0,0,1,257.68,243.1Z"/><path class="cls-36" d="M256.69,173.16a2.5,2.5,0,1,1,2.22-3.64,2.5,2.5,0,0,1-1.07,3.36A2.5,2.5,0,0,1,256.69,173.16Zm0-4.06a1.53,1.53,0,0,0-.72.17,1.57,1.57,0,0,0,1.44,2.79h0a1.58,1.58,0,0,0,.67-2.12A1.58,1.58,0,0,0,256.69,169.1Z"/><path class="cls-36" d="M263,185.39a2.5,2.5,0,0,1-2.11-3.83,2.5,2.5,0,0,1,4.55.78,2.5,2.5,0,0,1-1.88,3h0A2.67,2.67,0,0,1,263,185.39Zm0-4.06a1.47,1.47,0,0,0-.36,0,1.52,1.52,0,0,0-1,.69,1.49,1.49,0,0,0-.2,1.18,1.57,1.57,0,1,0,1.53-1.91Z"/><path class="cls-36" d="M266.09,198.82a2.51,2.51,0,0,1-2.48-2.2,2.5,2.5,0,1,1,4.45,1.24,2.45,2.45,0,0,1-1.67.94Zm0-4.07h-.19a1.57,1.57,0,0,0-.77,2.79,1.53,1.53,0,0,0,1.15.32,1.56,1.56,0,0,0,1.05-.59,1.57,1.57,0,0,0-1.24-2.53Z"/><path class="cls-36" d="M267.76,212.49a2.5,2.5,0,0,1-.3-5,2.49,2.49,0,0,1,2.78,2.18,2.5,2.5,0,0,1-2.17,2.78h0Zm0-4.07h-.19a1.57,1.57,0,1,0,1.75,1.37A1.58,1.58,0,0,0,267.76,208.42Z"/><path class="cls-36" d="M282.74,128.21a2.54,2.54,0,0,1-1.25-.33,2.51,2.51,0,0,1-.91-3.42,2.44,2.44,0,0,1,1.52-1.16,2.41,2.41,0,0,1,1.89.25,2.5,2.5,0,0,1-1.25,4.66Zm0-4.07a1.57,1.57,0,0,0-1.35.79,1.54,1.54,0,0,0-.16,1.19,1.58,1.58,0,0,0,.73.95,1.54,1.54,0,0,0,1.19.15,1.51,1.51,0,0,0,1-.73,1.57,1.57,0,0,0-.57-2.14A1.61,1.61,0,0,0,282.74,124.14Z"/><path class="cls-36" d="M294.67,135.09a2.54,2.54,0,0,1-1.25-.33,2.5,2.5,0,1,1,3.42-.92h0a2.55,2.55,0,0,1-1.52,1.17A2.89,2.89,0,0,1,294.67,135.09Zm0-4.07a1.39,1.39,0,0,0-.4.06,1.53,1.53,0,0,0-.95.73,1.56,1.56,0,0,0,.57,2.14,1.54,1.54,0,0,0,1.19.15,1.51,1.51,0,0,0,.95-.73h0a1.58,1.58,0,0,0-.57-2.14A1.7,1.7,0,0,0,294.67,131Z"/><path class="cls-36" d="M256.69,135a2.52,2.52,0,0,1-2.17-1.25,2.5,2.5,0,0,1,2.82-3.66,2.5,2.5,0,0,1,1.76,3.06,2.49,2.49,0,0,1-1.16,1.52A2.54,2.54,0,0,1,256.69,135Zm0-4.07a1.55,1.55,0,0,0-.78.21,1.57,1.57,0,0,0-.58,2.14,1.51,1.51,0,0,0,.95.73,1.54,1.54,0,0,0,1.19-.15,1.58,1.58,0,0,0,.58-2.14h0a1.57,1.57,0,0,0-1-.73A1.39,1.39,0,0,0,256.69,130.88Z"/><path class="cls-36" d="M268.62,128.06a2.5,2.5,0,1,1,2.16-3.75h0a2.49,2.49,0,0,1-.92,3.41A2.44,2.44,0,0,1,268.62,128.06Zm0-4.07a1.57,1.57,0,0,0-1.51,1.16,1.54,1.54,0,0,0,.16,1.19,1.56,1.56,0,1,0,2.71-1.56h0A1.56,1.56,0,0,0,268.61,124Z"/><path class="cls-36" d="M249.72,161a2.5,2.5,0,1,1,2.5-2.5A2.51,2.51,0,0,1,249.72,161Zm0-4.07a1.57,1.57,0,1,0,1.57,1.57A1.57,1.57,0,0,0,249.72,157Z"/><path class="cls-36" d="M249.72,147.25a2.5,2.5,0,1,1,2.5-2.5A2.5,2.5,0,0,1,249.72,147.25Zm0-4.07a1.57,1.57,0,1,0,1.56,1.57A1.57,1.57,0,0,0,249.72,143.18Z"/><path class="cls-36" d="M301.56,147.15l-.34,0h0a2.5,2.5,0,0,1-1.18-4.47,2.54,2.54,0,0,1,1.86-.49,2.51,2.51,0,0,1,1.65,1A2.45,2.45,0,0,1,304,145,2.5,2.5,0,0,1,301.56,147.15Zm-.21-1a1.57,1.57,0,0,0,1.46-2.5,1.61,1.61,0,0,0-1-.6,1.54,1.54,0,0,0-1.16.3,1.57,1.57,0,0,0-.6,1,1.55,1.55,0,0,0,1.34,1.76Z"/><path class="cls-36" d="M299.71,160.8a2.49,2.49,0,0,1-1.93-.91h0a2.5,2.5,0,1,1,3.85-3.18,2.42,2.42,0,0,1,.56,1.83,2.48,2.48,0,0,1-2.48,2.26Zm-1.21-1.5a1.57,1.57,0,1,0,.21-2.21,1.57,1.57,0,0,0-.21,2.21Z"/><path class="cls-36" d="M290.28,170.84a2.51,2.51,0,0,1-2.43-1.9h0a2.5,2.5,0,1,1,4.57.69,2.51,2.51,0,0,1-1.54,1.14A2.46,2.46,0,0,1,290.28,170.84Zm-1.52-2.12a1.58,1.58,0,0,0,1.9,1.14,1.57,1.57,0,1,0-1.9-1.14Z"/><path class="cls-36" d="M276.91,174.16a2.47,2.47,0,0,1-1.2-.31,2.5,2.5,0,1,1,2.41-4.38,2.46,2.46,0,0,1,1.19,1.49,2.43,2.43,0,0,1-.21,1.9A2.49,2.49,0,0,1,276.91,174.16Zm0-4.07a1.59,1.59,0,0,0-1.38.81,1.56,1.56,0,0,0,.62,2.13,1.55,1.55,0,0,0,1.19.13,1.56,1.56,0,0,0,.32-2.87A1.48,1.48,0,0,0,276.92,170.09Z"/><path class="cls-36" d="M264.22,168.8a2.5,2.5,0,0,1-1.18-4.71h0a2.51,2.51,0,0,1,2.34,4.43A2.54,2.54,0,0,1,264.22,168.8Zm-.74-3.88a1.57,1.57,0,1,0,2.12.65,1.57,1.57,0,0,0-2.12-.65Z"/><path class="cls-36" d="M257.78,156.63a2.35,2.35,0,0,1-.64-.09,2.44,2.44,0,0,1-1.52-1.16,2.48,2.48,0,0,1-.26-1.9,2.51,2.51,0,0,1,3.06-1.77h0a2.5,2.5,0,0,1-.64,4.92Zm0-4.07a1.56,1.56,0,0,0-1.51,1.16,1.54,1.54,0,0,0,.15,1.19,1.57,1.57,0,0,0,1,.73,1.56,1.56,0,0,0,1.19-.16,1.53,1.53,0,0,0,.72-.95,1.57,1.57,0,0,0-1.11-1.92h0A1.83,1.83,0,0,0,257.78,152.56Z"/><path class="cls-36" d="M261.37,143.33a2.76,2.76,0,0,1-.57-.06,2.54,2.54,0,0,1-1.56-1.12,2.5,2.5,0,0,1,.8-3.44,2.52,2.52,0,0,1,3.45.8,2.5,2.5,0,0,1,.31,1.89,2.44,2.44,0,0,1-1.11,1.55A2.5,2.5,0,0,1,261.37,143.33Zm0-4.07a1.51,1.51,0,0,0-.82.24,1.57,1.57,0,1,0,1.65,2.66,1.58,1.58,0,0,0,.51-2.16h0a1.63,1.63,0,0,0-1-.7A2.2,2.2,0,0,0,261.36,139.26Z"/><path class="cls-36" d="M273.06,136a2.59,2.59,0,0,1-.48,0,2.5,2.5,0,0,1-2-2.93,2.5,2.5,0,0,1,4.52-.93,2.52,2.52,0,0,1,.39,1.87h0a2.49,2.49,0,0,1-2.45,2Zm0-4.07a1.56,1.56,0,0,0-.88.28,1.54,1.54,0,0,0-.66,1,1.52,1.52,0,0,0,.25,1.17,1.54,1.54,0,0,0,1,.66,1.56,1.56,0,0,0,1.83-1.24h0a1.56,1.56,0,0,0-1.25-1.83A1.36,1.36,0,0,0,273.05,132Z"/><path class="cls-36" d="M286.37,139.51a2.49,2.49,0,1,1,2.41-1.84,2.53,2.53,0,0,1-1.18,1.52h0A2.48,2.48,0,0,1,286.37,139.51Zm0-4.06a1.53,1.53,0,0,0-.77.2,1.56,1.56,0,0,0,.36,2.87,1.5,1.5,0,0,0,1.19-.15h0a1.55,1.55,0,0,0,.59-2.13A1.57,1.57,0,0,0,286.36,135.45Z"/><path class="cls-36" d="M293.19,151.48a2.22,2.22,0,0,1-.57-.07,2.47,2.47,0,1,1,.57.07Zm0-4.07a1.56,1.56,0,1,0,.35,0A1.45,1.45,0,0,0,293.19,147.41Z"/><path class="cls-36" d="M287,192.36a2.61,2.61,0,0,1-.48-.05h0a2.5,2.5,0,0,1-2-2.93,2.52,2.52,0,0,1,2.93-2,2.52,2.52,0,0,1,2,2.94,2.47,2.47,0,0,1-1.06,1.59A2.5,2.5,0,0,1,287,192.36Zm-.31-1a1.57,1.57,0,1,0-1.23-1.84,1.56,1.56,0,0,0,1.23,1.84Z"/><path class="cls-36" d="M284.32,205.88a2.5,2.5,0,0,1-2-1h0a2.5,2.5,0,1,1,3.49.54A2.45,2.45,0,0,1,284.32,205.88Zm-1.27-1.58a1.57,1.57,0,0,0,2.53-1.85,1.53,1.53,0,0,0-1-.62,1.59,1.59,0,0,0-1.16.28,1.57,1.57,0,0,0-.34,2.19Z"/><path class="cls-36" d="M283.09,219.59h-.19a2.5,2.5,0,0,1,.39-5,2.5,2.5,0,0,1-.2,5Zm0-4.06a1.51,1.51,0,1,0,.12,0Z"/><path class="cls-68" d="M171.57,222.71h-1.22v-1.84c0-10.66.09-26.76-9.47-44l1.07-.6c9.72,17.51,9.66,33.81,9.62,44.59Z"/><path class="cls-69" d="M172,222.9l-1.22,0c0-1.83.09-3.77.16-5.83.35-10.4.78-23.33-3.71-36.67l1.16-.39c4.57,13.55,4.13,26.61,3.77,37.1C172,219.14,172,221.08,172,222.9Z"/><path class="cls-70" d="M172.34,223.07l-1.22,0c.07-3.52.36-7.31.67-11.33.71-9.33,1.52-19.91-.14-30.27l1.21-.2c1.68,10.51.87,21.16.15,30.56C172.71,215.81,172.42,219.59,172.34,223.07Z"/><path class="cls-71" d="M172.72,223.25l-1.22,0a187.87,187.87,0,0,1,1.91-18.74A186.67,186.67,0,0,0,175.54,182h1.23a192.56,192.56,0,0,1-2.14,22.64A186.66,186.66,0,0,0,172.72,223.25Z"/><path class="cls-72" d="M173.11,223.43l-1.23,0c.35-9.25,2.51-19.16,4.61-28.75,1-4.8,2-9.34,2.8-13.77l1.21.21c-.78,4.46-1.77,9-2.82,13.82C175.6,204.44,173.45,214.3,173.11,223.43Z"/><path class="cls-73" d="M173.49,223.61l-1.22-.05c.64-14.62,6.13-30.26,10.14-41.69l1.16.41C179.58,193.63,174.12,209.17,173.49,223.61Z"/><path class="cls-74" d="M173.88,223.79l-1.23-.06c.63-12.83,5-27.09,13-42.38l1.09.57C178.84,197.05,174.49,211.14,173.88,223.79Z"/><path class="cls-75" d="M174.26,224,173,223.9c.77-14.45,6.44-29.82,16-43.28l1,.71C180.61,194.6,175,209.74,174.26,224Z"/><path class="cls-76" d="M174.65,224.14l-1.23-.07c.92-16.17,8.07-32.56,19.62-45l.89.83C182.58,192.14,175.55,208.25,174.65,224.14Z"/><path class="cls-77" d="M189.68,222.71h-1.22c0-.59,0-1.21,0-1.84,0-10.78-.09-27.08,9.63-44.59l1.07.6c-9.56,17.23-9.51,33.33-9.47,44Z"/><path class="cls-78" d="M186.68,223l-1.23,0c.22-11.79,1.75-29.45,12.41-46.53l1,.65C188.4,193.92,186.89,211.35,186.68,223Z"/><path class="cls-79" d="M183.67,223.29l-1.23,0c.4-12.35,3.43-30.6,15.61-47.43l1,.72C187.05,193.11,184.06,211.11,183.67,223.29Z"/><path class="cls-80" d="M180.66,223.57l-1.22,0a81.12,81.12,0,0,1,17.46-46.73l1,.76A79.84,79.84,0,0,0,180.66,223.57Z"/><path class="cls-81" d="M177.65,223.86l-1.22-.07a77.48,77.48,0,0,1,18.86-45.95l.92.8A76.29,76.29,0,0,0,177.65,223.86Z"/><path class="cls-82" d="M174.65,224.14l-1.23-.07c.92-16.17,8.07-32.56,19.62-45l.89.83C182.58,192.14,175.55,208.25,174.65,224.14Z"/><path class="cls-83" d="M192.31,229.54H167.72v-5.25a1.58,1.58,0,0,1,1.58-1.58h21.43a1.58,1.58,0,0,1,1.58,1.58Z"/><path class="cls-84" d="M192.31,236.37H167.72a4.88,4.88,0,0,0,0-6.83h24.59a4.88,4.88,0,0,0,0,6.83Z"/><path class="cls-85" d="M198,243.19H162V238a1.58,1.58,0,0,1,1.58-1.58h32.83A1.58,1.58,0,0,1,198,238Z"/><path class="cls-86" d="M162,243.19h36a0,0,0,0,1,0,0v1.65a1,1,0,0,1-1,1H163a1,1,0,0,1-1-1v-1.65A0,0,0,0,1,162,243.19Z"/><path class="cls-35" d="M184.06,151.1v.29s0,0,0,.06a1.23,1.23,0,0,1,0,.2,3.89,3.89,0,0,1-.13.68l-.1.3-.09.23a4.43,4.43,0,0,1-2.64,2.44h0l2,2a.23.23,0,0,1,0,.31h0l-1.4,1.4h0a.22.22,0,0,1-.3,0l-4.63-4.63-.15-.15-.08-.08,0,0a4.51,4.51,0,0,1-1-1.63,5.17,5.17,0,0,1-.16-.68s0-.08,0-.13v-.06s0-.07,0-.11,0-.23,0-.34V151c0-.06,0-.11,0-.17s0-.21,0-.32l0-.17c0-.11,0-.23.08-.34s0-.11.05-.16.11-.31.17-.46h0a1.17,1.17,0,0,0,0-.11l.05-.09.12-.22.06-.1a4.74,4.74,0,0,1,.51-.67l0,0,.07-.07.1-.1,4.67-4.67a.21.21,0,0,1,.31,0h0l1.4,1.41a.21.21,0,0,1,0,.31l-2,2a4.41,4.41,0,0,1,2.77,2.8,4.3,4.3,0,0,1,.16.69.77.77,0,0,1,0,.15.66.66,0,0,1,0,.14.41.41,0,0,1,0,.11.22.22,0,0,1,0,.08v.15Zm-2.44,0a2,2,0,0,0-3.81-.5l0,.13a1.16,1.16,0,0,0,0,.18,1.09,1.09,0,0,0,0,.18.6.6,0,0,0,0,.19,1.94,1.94,0,0,0,3.32,1.29,2,2,0,0,0,.46-.71,2.5,2.5,0,0,0,.07-.26s0,0,0,0,0-.05,0-.08a1.23,1.23,0,0,0,0-.2A.6.6,0,0,0,181.62,151.05Z"/><path class="cls-87" d="M210.73,151.19a1.34,1.34,0,0,1,1.32-1.35,32.13,32.13,0,0,0-8.43-20.35,1.35,1.35,0,0,1-1.91-1.91,32.11,32.11,0,0,0-20.35-8.42,1.35,1.35,0,0,1-2.69,0,32.13,32.13,0,0,0-20.35,8.43,1.35,1.35,0,0,1-1.91,1.9A32.17,32.17,0,0,0,148,149.84a1.35,1.35,0,0,1,0,2.7,32.13,32.13,0,0,0,8.43,20.35,1.35,1.35,0,0,1,1.91,1.91,32.11,32.11,0,0,0,20.35,8.42,1.35,1.35,0,0,1,2.69,0A31.81,31.81,0,0,0,196,179a32.56,32.56,0,0,0,5.67-4.15,1.35,1.35,0,0,1,1.91-1.91,32.17,32.17,0,0,0,8.43-20.35A1.34,1.34,0,0,1,210.73,151.19Zm-3-9.58a2.53,2.53,0,0,1,.58.55,3,3,0,0,1,.21.35,3,3,0,0,1,.14.39l.23.79.18.79a.27.27,0,0,1-.46.27,24.93,24.93,0,0,0-4.46-3.62.64.64,0,0,1-.21-.88.7.7,0,0,1,.9-.29l.74.37.72.4.72.43C207.29,141.3,207.52,141.46,207.76,141.61Zm-1.52-4.69.38.73c.12.24.25.48.36.73a.28.28,0,0,1-.39.37,25.84,25.84,0,0,0-5.15-2.58.63.63,0,0,1-.38-.81.71.71,0,0,1,.82-.48c.52.14,1.05.28,1.58.44s1,.35,1.59.55A2.34,2.34,0,0,1,206.24,136.92Zm-5.91-6.18.84.11a2.36,2.36,0,0,1,.76.26,2.4,2.4,0,0,1,.63.52l.53.62.5.64a.27.27,0,0,1-.3.44,25.25,25.25,0,0,0-5.58-1.41.64.64,0,0,1-.55-.71.69.69,0,0,1,.7-.64l.82,0,.82.07Zm-30.17,20.45A9.86,9.86,0,1,1,180,161,9.85,9.85,0,0,1,170.16,151.19Zm4.15,23.41a24.09,24.09,0,0,1-12.59-7.74,2.14,2.14,0,0,1-.23-2.48l4.5-7.8a1.44,1.44,0,0,1,2.49,0l8.41,14.56A2.35,2.35,0,0,1,174.31,174.6Zm8.83-43.36a2.35,2.35,0,0,1,2.57-3.46,24.07,24.07,0,0,1,12.6,7.74,2.14,2.14,0,0,1,.23,2.48l-4.5,7.8a1.44,1.44,0,0,1-2.49,0Zm13.16-4.46a2.36,2.36,0,0,1,1.53.45l.64.51c.22.17.43.33.64.51a.27.27,0,0,1-.2.49,26.09,26.09,0,0,0-5.76-.18.65.65,0,0,1-.69-.58.71.71,0,0,1,.55-.78l1.62-.26C195.18,126.87,195.73,126.82,196.3,126.78Zm-7.22-2.41.79-.28c.27-.09.53-.17.8-.24a2.17,2.17,0,0,1,.8-.09,2,2,0,0,1,.79.21l.74.34.73.37a.27.27,0,0,1-.09.52,25.36,25.36,0,0,0-5.65,1.06.54.54,0,0,1-.25,0,.5.5,0,0,1-.24-.06.66.66,0,0,1-.32-.37.7.7,0,0,1,.37-.87l.76-.33Zm-6.67-.87.69-.45c.47-.29,1-.58,1.45-.86a2.41,2.41,0,0,1,1.57-.23l.8.19c.26.06.53.11.79.19a.28.28,0,0,1,0,.54,26.1,26.1,0,0,0-5.3,2.26.63.63,0,0,1-.87-.24.7.7,0,0,1,.17-.93Zm-6.56.73c.36-.4.73-.79,1.13-1.19s.8-.76,1.23-1.14a2.43,2.43,0,0,1,.32-.24l.37-.17a2.64,2.64,0,0,1,.8-.15c.27,0,.54,0,.81,0l.82,0a.27.27,0,0,1,.14.51,25.68,25.68,0,0,0-4.69,3.35.64.64,0,0,1-.9,0A.71.71,0,0,1,175.85,124.23Zm-5.7,1.53c.13-.24.27-.48.41-.71l.44-.7c.15-.23.3-.47.46-.7L172,123a2.38,2.38,0,0,1,.59-.55,2.17,2.17,0,0,1,.75-.31c.27-.06.53-.13.8-.18l.8-.15a.28.28,0,0,1,.25.48l-.55.5c-.19.17-.37.33-.54.51l-1,1c-.32.36-.62.73-.92,1.08s-.58.75-.85,1.12a.64.64,0,0,1-.88.16A.7.7,0,0,1,170.15,125.76Zm-5.23,2.71c.16-.51.33-1,.52-1.55s.4-1,.63-1.56a2.36,2.36,0,0,1,1.12-1.13l.74-.34c.25-.11.5-.23.75-.32a.28.28,0,0,1,.35.41,25.21,25.21,0,0,0-2.85,5,.64.64,0,0,1-.84.34A.75.75,0,0,1,165,129,.64.64,0,0,1,164.92,128.47Zm10.67-1a2.14,2.14,0,0,1,2.26,1l4.51,7.8a1.43,1.43,0,0,1-1.24,2.15H164.31a2.34,2.34,0,0,1-1.69-4A24,24,0,0,1,175.59,127.51Zm-15.13,3.93c0-.27.07-.54.11-.82s.07-.55.12-.83.11-.54.16-.82a2.31,2.31,0,0,1,.3-.75,2.6,2.6,0,0,1,.55-.6c.42-.34.87-.65,1.31-1a.28.28,0,0,1,.43.33,24.88,24.88,0,0,0-1.71,5.5.64.64,0,0,1-.74.51.69.69,0,0,1-.6-.73C160.41,132,160.43,131.71,160.46,131.44Zm-3.4.67.53-.62c.18-.21.36-.41.55-.61a.28.28,0,0,1,.49.23,25.88,25.88,0,0,0-.5,5.74.63.63,0,0,1-.62.65.68.68,0,0,1-.48-.15.63.63,0,0,1-.26-.44c-.07-.53-.13-1.08-.18-1.63s-.06-1.11-.07-1.68A2.39,2.39,0,0,1,157.06,132.11Zm.23,11.08a2.14,2.14,0,0,1,2-1.45h9a1.44,1.44,0,0,1,1.24,2.15l-8.41,14.57a2.35,2.35,0,0,1-4.29-.53,24.18,24.18,0,0,1-1-6.74A23.79,23.79,0,0,1,157.29,143.19Zm-4-4.93a2.67,2.67,0,0,1,.25-.77c.24-.49.52-1,.79-1.43a.27.27,0,0,1,.52.12,25,25,0,0,0,.76,5.7.66.66,0,0,1-.46.78.69.69,0,0,1-.85-.42c-.21-.51-.37-1-.53-1.55-.08-.27-.16-.54-.23-.81s-.14-.54-.2-.81A2.44,2.44,0,0,1,153.24,138.26Zm-2.08,5.25.23-.79.11-.39.13-.39a.28.28,0,0,1,.54,0,25.87,25.87,0,0,0,2,5.41.63.63,0,0,1-.28.85.69.69,0,0,1-.92-.22l-.43-.69-.22-.36c-.07-.11-.13-.23-.2-.35l-.4-.74c-.12-.25-.26-.5-.38-.75a2.3,2.3,0,0,1-.2-.78A2.22,2.22,0,0,1,151.16,143.51Zm-1,6.38c0-.27,0-.54.05-.81l.07-.82a.27.27,0,0,1,.52-.11,25.5,25.5,0,0,0,3.09,4.86.65.65,0,0,1-.1.9.7.7,0,0,1-.95,0l-1.13-1.19c-.36-.42-.71-.85-1.07-1.29a2.1,2.1,0,0,1-.37-.71A2.73,2.73,0,0,1,150.19,149.89Zm.69,7.21a2.61,2.61,0,0,1-.27-.77l-.07-.4,0-.2,0-.21-.1-.81a.27.27,0,0,1,.48-.22,24.91,24.91,0,0,0,4,4.09.64.64,0,0,1,.23.43.7.7,0,0,1-.12.47h0a.69.69,0,0,1-.93.18c-.48-.28-.91-.6-1.36-.92l-.34-.24c-.12-.09-.23-.17-.33-.26l-.66-.53A2.34,2.34,0,0,1,150.88,157.1Zm2.59,6.61a2.14,2.14,0,0,1-.63-.49,2.08,2.08,0,0,1-.44-.69l-.3-.76-.15-.38-.13-.38a.28.28,0,0,1,.43-.33,25.08,25.08,0,0,0,4.83,3.12.64.64,0,0,1,.3.86.69.69,0,0,1-.86.38l-.77-.29-.38-.15-.38-.17-.76-.34C154,164,153.71,163.85,153.47,163.71Zm3.32,5.41a2.24,2.24,0,0,1-1.3-.92l-.24-.33-.22-.34-.44-.69a.28.28,0,0,1,.35-.41,25.69,25.69,0,0,0,5.4,2,.68.68,0,0,1,.39.29.66.66,0,0,1,.08.48.69.69,0,0,1-.77.56l-.4,0-.4-.07-.82-.14C157.87,169.4,157.34,169.26,156.79,169.12Zm5.24,4.6c-.28,0-.57,0-.85,0a2.61,2.61,0,0,1-.77-.18,2.38,2.38,0,0,1-.69-.44c-.39-.38-.8-.75-1.17-1.15a.28.28,0,0,1,.26-.47,25.6,25.6,0,0,0,5.7.81.62.62,0,0,1,.62.65.68.68,0,0,1-.63.7c-.26,0-.54,0-.81.06s-.55,0-.83,0Zm6.07,3.16c-.54.14-1.08.24-1.64.34a2.21,2.21,0,0,1-1.56-.29l-.36-.2-.34-.22-.69-.44a.28.28,0,0,1,.15-.52,25.61,25.61,0,0,0,5.74-.44.64.64,0,0,1,.47.1.6.6,0,0,1,.28.4.7.7,0,0,1-.46.83l-.4.12-.39.11Zm5.05,2.31-.39.18-.39.16a2.53,2.53,0,0,1-.78.17,2.88,2.88,0,0,1-.41,0,2.92,2.92,0,0,1-.4-.1c-.51-.18-1-.34-1.54-.55a.27.27,0,0,1,0-.53,26.1,26.1,0,0,0,5.5-1.66.64.64,0,0,1,.85.31.71.71,0,0,1-.27.91c-.47.27-1,.54-1.45.78Zm8.09-.75c-.4.35-.82.71-1.25,1.06s-.88.67-1.34,1a2.44,2.44,0,0,1-1.55.39c-.54-.05-1.08-.13-1.62-.2a.28.28,0,0,1-.08-.53,26.42,26.42,0,0,0,5-2.82.63.63,0,0,1,.89.14.7.7,0,0,1,.15.49A.65.65,0,0,1,181.24,178.44Zm5.83-.9a25,25,0,0,1-2.09,2.57,2,2,0,0,1-.64.49,2.89,2.89,0,0,1-.79.23c-.53.08-1.08.1-1.62.15a.28.28,0,0,1-.2-.5c.41-.3.81-.59,1.19-.89s.76-.63,1.12-.94c.18-.15.35-.32.53-.48l.51-.5c.33-.32.65-.68,1-1a.58.58,0,0,1,.43-.2.65.65,0,0,1,.47.15h0A.7.7,0,0,1,187.07,177.54Zm5.5-2.14c-.21.5-.44,1-.69,1.5l-.38.74-.21.37-.21.36a2.16,2.16,0,0,1-.52.61,1.78,1.78,0,0,1-.33.23,3.17,3.17,0,0,1-.38.17l-.78.26-.19.06-.2.06-.39.11a.27.27,0,0,1-.3-.44,25.14,25.14,0,0,0,3.38-4.66.63.63,0,0,1,.87-.25A.69.69,0,0,1,192.57,175.4Zm4.56-1.66c-.06.28-.14.54-.22.81l-.24.81a3,3,0,0,1-.16.37,2.37,2.37,0,0,1-.22.33,2.42,2.42,0,0,1-.61.54l-.18.11-.17.11-.36.2-.7.41a.28.28,0,0,1-.39-.38,25.82,25.82,0,0,0,2.29-5.28.65.65,0,0,1,.79-.43.71.71,0,0,1,.52.8C197.38,172.67,197.26,173.2,197.13,173.74Zm.28-5.89a24,24,0,0,1-13,7,2.14,2.14,0,0,1-2.26-1l-4.51-7.8a1.43,1.43,0,0,1,1.24-2.15h16.81A2.34,2.34,0,0,1,197.41,167.85Zm4.16,1.68c0,.55,0,1.13-.1,1.68a2.32,2.32,0,0,1-.7,1.43l-.59.56c-.2.19-.41.36-.62.54a.27.27,0,0,1-.45-.28,25.69,25.69,0,0,0,1.11-5.64.64.64,0,0,1,.68-.6.7.7,0,0,1,.67.67C201.59,168.43,201.6,169,201.57,169.53Zm-.86-8.89h-9a1.44,1.44,0,0,1-1.24-2.15l8.41-14.57a2.35,2.35,0,0,1,4.29.53,24.09,24.09,0,0,1-.41,14.74A2.14,2.14,0,0,1,200.71,160.64Zm4.51,6.29a2.36,2.36,0,0,1-.32.75c-.14.23-.31.45-.47.67L204,169a.28.28,0,0,1-.51-.18,25,25,0,0,0-.13-5.76.66.66,0,0,1,.54-.72.71.71,0,0,1,.81.51c.07.27.12.52.18.79s.12.54.17.81.1.55.14.83.08.55.11.83a1.88,1.88,0,0,1,0,.41A1.78,1.78,0,0,1,205.22,166.93Zm2.64-5-.3.76c-.1.25-.22.49-.33.74a.27.27,0,0,1-.53-.06,25.83,25.83,0,0,0-1.36-5.59.64.64,0,0,1,.36-.82.7.7,0,0,1,.9.32l.36.73c.12.25.22.5.33.76.21.51.43,1,.61,1.56A2.27,2.27,0,0,1,207.86,162Zm1.67-6.24c-.1.53-.19,1.07-.29,1.6a.28.28,0,0,1-.54.06,26.17,26.17,0,0,0-2.54-5.17.63.63,0,0,1,.19-.88.7.7,0,0,1,.94.12c.33.42.67.86,1,1.31s.63.91.94,1.39A2.48,2.48,0,0,1,209.53,155.71Zm-.18-4.65a26.12,26.12,0,0,0-3.58-4.51.64.64,0,0,1,0-.9.71.71,0,0,1,1-.08c.42.34.83.69,1.25,1.06l.61.57.59.6a2.51,2.51,0,0,1,.26.31,1.55,1.55,0,0,1,.19.36,2.54,2.54,0,0,1,.19.79l0,.41v.4l0,.82A.28.28,0,0,1,209.35,151.06Z"/></g></svg>