<svg xmlns="http://www.w3.org/2000/svg" xmlns:xlink="http://www.w3.org/1999/xlink" viewBox="0 0 64 64"><defs><style>.cls-1{fill:url(#linear-gradient);}</style><linearGradient id="linear-gradient" x1="10.98" y1="53.02" x2="53.02" y2="10.98" gradientUnits="userSpaceOnUse"><stop offset="0.27" stop-color="#b1c4c7"/><stop offset="0.53" stop-color="#879196"/><stop offset="0.83" stop-color="#b1c4c7"/></linearGradient></defs><g id="Icons"><path class="cls-1" d="M60.49,32a1.25,1.25,0,0,1,1.23-1.25,29.62,29.62,0,0,0-4-13.62,30.59,30.59,0,0,0-3.86-5.26,1.25,1.25,0,0,1-1.77-1.77A29.79,29.79,0,0,0,33.25,2.28a1.25,1.25,0,0,1-2.5,0,29.62,29.62,0,0,0-13.62,4,30.59,30.59,0,0,0-5.26,3.86,1.25,1.25,0,0,1-1.77,1.77A29.79,29.79,0,0,0,2.28,30.75a1.25,1.25,0,0,1,0,2.5,29.62,29.62,0,0,0,4,13.62,30.59,30.59,0,0,0,3.86,5.26,1.25,1.25,0,0,1,1.77,1.77,29.79,29.79,0,0,0,18.88,7.82,1.25,1.25,0,0,1,2.5,0,29.62,29.62,0,0,0,13.62-4,30.59,30.59,0,0,0,5.26-3.86,1.25,1.25,0,0,1,1.77-1.77,29.79,29.79,0,0,0,7.82-18.88A1.25,1.25,0,0,1,60.49,32Zm-2.75-8.89a2.22,2.22,0,0,1,.54.52l.11.15a1.3,1.3,0,0,1,.08.17,2.24,2.24,0,0,1,.14.36l.2.73.18.74a.26.26,0,0,1-.43.25,23.53,23.53,0,0,0-4.14-3.37.59.59,0,0,1-.2-.81.65.65,0,0,1,.84-.26c.23.11.46.22.68.34l.67.37.67.39Zm-1.41-4.34c.12.22.24.44.35.67s.24.45.34.68a.25.25,0,0,1-.36.34,23.46,23.46,0,0,0-4.78-2.39.6.6,0,0,1-.36-.76.65.65,0,0,1,.77-.44c.48.12,1,.26,1.47.41s1,.32,1.47.51A2.14,2.14,0,0,1,56.33,18.77ZM50.85,13l.77.11a2.07,2.07,0,0,1,1.29.72l.5.58.46.59a.25.25,0,0,1-.28.41,23.23,23.23,0,0,0-5.17-1.31.6.6,0,0,1-.52-.66.66.66,0,0,1,.65-.59l.77,0,.76.06ZM38.38,38.45l0,0c-.23.22-.48.44-.73.64l-.18.13c-.22.17-.45.32-.68.47l-.1.06h0l-.14.07c-.26.15-.52.28-.8.41l-.17.08a8,8,0,0,1-1,.36l-.3.08c-.26.06-.53.12-.8.16l-.34.06a9.28,9.28,0,0,1-1.06.07H32l-.53,0-.41,0a4.44,4.44,0,0,1-.49-.07l-.43-.07-.46-.12-.42-.11-.44-.16-.41-.16-.08,0h0l-.07,0c-.23-.1-.45-.21-.67-.33h0a9.24,9.24,0,0,1-1.85-1.37l-.11-.1h0a9.12,9.12,0,0,1-2.39-4.15h0l0-.17q-.09-.36-.15-.75c0-.1,0-.2,0-.31A7.49,7.49,0,0,1,22.93,32h0A7.49,7.49,0,0,1,23,30.93c0-.11,0-.21,0-.31q.06-.39.15-.75l0-.17h0a9.12,9.12,0,0,1,2.39-4.15h0l0,0c.21-.2.44-.4.67-.59l.16-.12c.2-.15.4-.3.61-.43l.06,0h0l.18-.1c.24-.14.48-.27.73-.39l.29-.14a7.35,7.35,0,0,1,1-.38l.25-.07c.29-.07.58-.14.87-.19l.35,0a8,8,0,0,1,1.1-.08H32a8.7,8.7,0,0,1,.89,0l.21,0,.64.1.28.06.55.14.3.1a5,5,0,0,1,.5.18l.29.12.48.23.27.15c.17.09.32.19.48.29l.23.14c.19.13.38.28.57.43l.09.07h0a6,6,0,0,1,.46.42l.13.11h0a9.12,9.12,0,0,1,2.39,4.15h0l0,.17q.09.36.15.75c0,.1,0,.2,0,.31a8.21,8.21,0,0,1,0,2.14c0,.11,0,.21,0,.31q-.06.39-.15.75l0,.17h0a9.12,9.12,0,0,1-2.39,4.15ZM26.71,53.72A22.35,22.35,0,0,1,15,46.54a2,2,0,0,1-.21-2.3L19,37a1.33,1.33,0,0,1,2.31,0l7.8,13.51A2.18,2.18,0,0,1,26.71,53.72ZM34.9,13.49a2.18,2.18,0,0,1,2.39-3.21A22.35,22.35,0,0,1,49,17.46a2,2,0,0,1,.21,2.3L45,27a1.33,1.33,0,0,1-2.31,0ZM47.11,9.35a2.22,2.22,0,0,1,1.42.42l.59.47c.2.16.41.31.6.47a.26.26,0,0,1-.19.47A23,23,0,0,0,44.19,11a.6.6,0,0,1-.64-.54.65.65,0,0,1,.51-.72l1.5-.25C46.07,9.44,46.58,9.39,47.11,9.35Zm-6.7-2.24.73-.25.75-.23a2.08,2.08,0,0,1,1.47.11l.69.32.68.34a.26.26,0,0,1-.09.49,23.5,23.5,0,0,0-5.24,1,.49.49,0,0,1-.24,0A.5.5,0,0,1,39,8.84a.62.62,0,0,1-.3-.35A.65.65,0,0,1,39,7.68l.7-.3Zm-6.19-.8.64-.42c.43-.27.88-.54,1.34-.8a2.31,2.31,0,0,1,1.47-.2l.73.17c.25.06.5.1.74.18a.26.26,0,0,1,0,.5,23.56,23.56,0,0,0-4.91,2.09.59.59,0,0,1-.81-.22.65.65,0,0,1,.16-.86ZM28.13,7q.51-.55,1.05-1.11c.37-.36.75-.7,1.14-1a3,3,0,0,1,.3-.23A2.07,2.07,0,0,1,31,4.45a2.37,2.37,0,0,1,.75-.14h.75l.76,0a.26.26,0,0,1,.13.48A24.42,24.42,0,0,0,29,7.91a.6.6,0,0,1-.84,0A.66.66,0,0,1,28.13,7ZM22.85,8.41c.12-.22.24-.45.38-.66l.4-.65.43-.65.46-.63a2.18,2.18,0,0,1,.54-.51,2.16,2.16,0,0,1,.7-.29l.74-.17.75-.13a.26.26,0,0,1,.23.44L27,5.62c-.16.16-.33.31-.49.48-.32.32-.64.64-.94,1s-.58.67-.86,1-.53.69-.78,1a.59.59,0,0,1-.82.15A.64.64,0,0,1,22.85,8.41ZM18,10.92c.15-.47.31-1,.49-1.44s.37-1,.58-1.44a2.21,2.21,0,0,1,1-1l.69-.32c.23-.1.46-.21.7-.3a.26.26,0,0,1,.32.39,24.35,24.35,0,0,0-2.65,4.63.58.58,0,0,1-.77.32.61.61,0,0,1-.35-.32A.59.59,0,0,1,18,10.92Zm9.9-.89A2,2,0,0,1,30,11l4.18,7.24a1.33,1.33,0,0,1-1.15,2H17.43a2.18,2.18,0,0,1-1.57-3.69A22.34,22.34,0,0,1,27.89,10Zm-14,3.65c0-.25.06-.51.1-.76s.07-.52.11-.77l.15-.77a2,2,0,0,1,.28-.69,2.25,2.25,0,0,1,.51-.56c.39-.31.81-.6,1.22-.89a.25.25,0,0,1,.39.3A22.68,22.68,0,0,0,15,14.64a.61.61,0,0,1-.69.48.66.66,0,0,1-.56-.69C13.81,14.18,13.83,13.92,13.86,13.68Zm-3.16.61.5-.57c.16-.19.33-.38.51-.56a.26.26,0,0,1,.45.21,23.89,23.89,0,0,0-.46,5.32.59.59,0,0,1-.58.61.66.66,0,0,1-.45-.14.69.69,0,0,1-.24-.4c-.06-.5-.12-1-.16-1.52s-.06-1-.07-1.56A2.26,2.26,0,0,1,10.7,14.29Zm.21,10.29a2,2,0,0,1,1.89-1.35h8.37a1.33,1.33,0,0,1,1.15,2L14.51,38.75a2.17,2.17,0,0,1-4-.5A22.21,22.21,0,0,1,9.65,32,22.49,22.49,0,0,1,10.91,24.58ZM7.16,20a2.35,2.35,0,0,1,.24-.72c.22-.46.48-.89.73-1.33a.25.25,0,0,1,.48.11,23.13,23.13,0,0,0,.7,5.29.61.61,0,0,1-.43.73.65.65,0,0,1-.79-.39c-.18-.47-.33-.95-.48-1.44-.08-.25-.16-.5-.22-.75s-.13-.5-.19-.76A2.29,2.29,0,0,1,7.16,20ZM5.23,24.87l.21-.73.1-.36.12-.36a.26.26,0,0,1,.5,0,24,24,0,0,0,1.82,5,.59.59,0,0,1-.25.8A.65.65,0,0,1,6.87,29c-.13-.21-.27-.42-.4-.64l-.2-.33c-.07-.11-.13-.22-.19-.33l-.36-.68c-.12-.23-.25-.47-.36-.7a2.26,2.26,0,0,1-.19-.72A2.18,2.18,0,0,1,5.23,24.87Zm-.9,5.92c0-.25,0-.5,0-.75l.06-.76a.25.25,0,0,1,.48-.1,23.77,23.77,0,0,0,2.87,4.51.6.6,0,0,1-.09.84.66.66,0,0,1-.88,0Q6.3,34,5.77,33.4c-.34-.38-.66-.78-1-1.2a2,2,0,0,1-.35-.65A2.73,2.73,0,0,1,4.33,30.79ZM5,37.48a2.5,2.5,0,0,1-.25-.71l-.07-.38,0-.18,0-.19-.1-.75A.25.25,0,0,1,5,35.06a23.34,23.34,0,0,0,3.76,3.8.56.56,0,0,1,.21.39.55.55,0,0,1-.11.44h0a.66.66,0,0,1-.87.17c-.43-.26-.83-.55-1.26-.85l-.31-.23-.31-.24-.61-.49A2,2,0,0,1,5,37.48Zm2.4,6.14a2.32,2.32,0,0,1-.58-.45,2,2,0,0,1-.41-.65l-.28-.7c0-.12-.09-.23-.13-.35l-.13-.36a.26.26,0,0,1,.4-.3,23.4,23.4,0,0,0,4.49,2.89.59.59,0,0,1,.27.79.65.65,0,0,1-.8.36l-.71-.27-.36-.14-.35-.16L8.08,44Zm3.08,5a2.08,2.08,0,0,1-1.2-.86L9,47.47l-.21-.31-.41-.64a.27.27,0,0,1,0-.32.25.25,0,0,1,.31-.06,23.28,23.28,0,0,0,5,1.86.61.61,0,0,1,.36.27.55.55,0,0,1,.07.44.64.64,0,0,1-.71.52l-.38,0-.37-.06L12,49C11.46,48.89,11,48.77,10.45,48.64Zm4.86,4.26c-.26,0-.52,0-.78,0a2.22,2.22,0,0,1-.72-.16,1.92,1.92,0,0,1-.64-.42c-.36-.35-.74-.68-1.08-1.06a.25.25,0,0,1,.24-.43,24.06,24.06,0,0,0,5.28.74.59.59,0,0,1,.58.61.64.64,0,0,1-.58.65l-.76.06-.76,0ZM21,55.83c-.5.13-1,.22-1.52.32A2.09,2.09,0,0,1,18,55.88l-.32-.19-.32-.2-.64-.41a.26.26,0,0,1,.13-.48,23.15,23.15,0,0,0,5.33-.41.61.61,0,0,1,.44.09.63.63,0,0,1,.26.37.66.66,0,0,1-.43.77l-.37.12-.36.1ZM25.63,58l-.36.16-.36.15a2.22,2.22,0,0,1-.72.16,2.36,2.36,0,0,1-.38,0,2.22,2.22,0,0,1-.37-.09c-.48-.16-1-.31-1.43-.51a.26.26,0,0,1,0-.5,23.38,23.38,0,0,0,5.11-1.54.59.59,0,0,1,.78.3.65.65,0,0,1-.25.84c-.44.25-.89.5-1.35.72Zm7.51-.7c-.37.33-.76.66-1.16,1s-.82.62-1.25.93a2.23,2.23,0,0,1-1.43.36l-1.5-.18a.25.25,0,0,1-.08-.49,24.35,24.35,0,0,0,4.66-2.62.59.59,0,0,1,.83.13.68.68,0,0,1,.13.45A.64.64,0,0,1,33.14,57.28Zm5.41-.83a23.88,23.88,0,0,1-1.95,2.38,1.75,1.75,0,0,1-.59.45,2.48,2.48,0,0,1-.73.22c-.5.07-1,.09-1.5.13a.25.25,0,0,1-.18-.46l1.1-.82c.35-.29.7-.58,1-.87.17-.14.33-.3.49-.45l.48-.46c.31-.3.6-.63.89-.94a.56.56,0,0,1,.4-.2.69.69,0,0,1,.43.14h0A.67.67,0,0,1,38.55,56.45Zm5.1-2c-.2.45-.41.93-.64,1.38l-.36.69c-.06.11-.12.23-.19.34l-.19.34a2.17,2.17,0,0,1-.49.56,1.73,1.73,0,0,1-.31.22,2.17,2.17,0,0,1-.35.15l-.72.24-.18.06-.18.06-.36.1a.25.25,0,0,1-.28-.41,23.7,23.7,0,0,0,3.14-4.32.59.59,0,0,1,.8-.24A.66.66,0,0,1,43.65,54.47Zm4.23-1.55c-.06.26-.13.5-.21.75s-.14.5-.22.75a2.17,2.17,0,0,1-.15.35,3.13,3.13,0,0,1-.2.3,2.32,2.32,0,0,1-.57.51l-.16.1-.16.1-.33.18-.66.38a.26.26,0,0,1-.36-.34A24.34,24.34,0,0,0,47,51.09a.59.59,0,0,1,.73-.39.64.64,0,0,1,.48.74C48.11,51.93,48,52.42,47.88,52.92Zm.26-5.46a22.34,22.34,0,0,1-12,6.51A2,2,0,0,1,34,53l-4.18-7.24a1.33,1.33,0,0,1,1.15-2H46.57A2.18,2.18,0,0,1,48.14,47.46ZM52,49c0,.51,0,1-.1,1.55a2.11,2.11,0,0,1-.65,1.33l-.54.52-.57.5a.26.26,0,0,1-.43-.26,23.86,23.86,0,0,0,1-5.23.58.58,0,0,1,.63-.55.64.64,0,0,1,.62.61C52,48,52,48.51,52,49Zm-.8-8.25H42.83a1.33,1.33,0,0,1-1.15-2l7.81-13.52a2.17,2.17,0,0,1,4,.5A22.21,22.21,0,0,1,54.35,32a22.49,22.49,0,0,1-1.26,7.42A2,2,0,0,1,51.2,40.77Zm4.19,5.83a2.55,2.55,0,0,1-.3.7l-.43.62-.44.62a.26.26,0,0,1-.47-.16A23.62,23.62,0,0,0,53.62,43a.61.61,0,0,1,.51-.67.65.65,0,0,1,.74.47c.07.24.12.48.17.73s.11.5.16.75.09.51.13.77.07.51.1.77a1.62,1.62,0,0,1,0,.38A2.25,2.25,0,0,1,55.39,46.6ZM57.84,42l-.28.7c-.1.24-.21.46-.31.7a.25.25,0,0,1-.49-.06,24.17,24.17,0,0,0-1.26-5.19.58.58,0,0,1,.33-.76.64.64,0,0,1,.83.3c.11.22.23.45.34.68s.2.46.3.7c.2.47.41,1,.57,1.45A2.1,2.1,0,0,1,57.84,42Zm1.54-5.79c-.09.5-.17,1-.27,1.49a.26.26,0,0,1-.5,0,23.47,23.47,0,0,0-2.36-4.79.59.59,0,0,1,.18-.82.65.65,0,0,1,.87.11c.31.39.63.8.93,1.21s.58.85.86,1.3A2.2,2.2,0,0,1,59.38,36.19Zm-.16-4.31a23.62,23.62,0,0,0-3.33-4.18.61.61,0,0,1,0-.84.66.66,0,0,1,.88-.08c.39.32.77.65,1.15,1,.2.17.38.35.57.53l.55.56a1.61,1.61,0,0,1,.24.28,2.68,2.68,0,0,1,.18.33,2.58,2.58,0,0,1,.17.74l0,.38V31l0,.76A.25.25,0,0,1,59.22,31.88Z"/></g></svg>