<svg xmlns="http://www.w3.org/2000/svg" xmlns:xlink="http://www.w3.org/1999/xlink" viewBox="0 0 64 64"><defs><style>.cls-1{fill:url(#linear-gradient);}.cls-2{fill:url(#linear-gradient-2);}.cls-3{fill:url(#linear-gradient-3);}.cls-4{fill:url(#linear-gradient-4);}.cls-5{fill:url(#linear-gradient-5);}.cls-6{fill:url(#linear-gradient-6);}.cls-7{fill:url(#linear-gradient-7);}.cls-8{fill:url(#linear-gradient-8);}.cls-9{fill:url(#linear-gradient-9);}.cls-10{fill:url(#linear-gradient-10);}.cls-11{fill:url(#linear-gradient-11);}.cls-12{fill:url(#linear-gradient-12);}.cls-13{fill:url(#linear-gradient-13);}.cls-14{fill:url(#linear-gradient-14);}.cls-15{fill:url(#linear-gradient-15);}.cls-16{fill:#6c301e;}.cls-17{fill:url(#linear-gradient-16);}.cls-18{fill:url(#linear-gradient-17);}.cls-19{fill:url(#linear-gradient-18);}</style><linearGradient id="linear-gradient" x1="17.2" y1="32.03" x2="25.51" y2="32.03" gradientUnits="userSpaceOnUse"><stop offset="0.31" stop-color="#4f1a1e"/><stop offset="0.73" stop-color="#6c301e"/></linearGradient><linearGradient id="linear-gradient-2" x1="27.86" y1="41.18" x2="46.78" y2="41.18" xlink:href="#linear-gradient"/><linearGradient id="linear-gradient-3" x1="27.85" y1="22.82" x2="46.8" y2="22.82" xlink:href="#linear-gradient"/><linearGradient id="linear-gradient-4" x1="45.9" y1="19.5" x2="61.59" y2="19.5" xlink:href="#linear-gradient"/><linearGradient id="linear-gradient-5" x1="2.4" y1="44.61" x2="18.09" y2="44.61" xlink:href="#linear-gradient"/><linearGradient id="linear-gradient-6" x1="20.83" y1="6.94" x2="43.17" y2="6.94" xlink:href="#linear-gradient"/><linearGradient id="linear-gradient-7" x1="20.83" y1="57.17" x2="43.17" y2="57.17" xlink:href="#linear-gradient"/><linearGradient id="linear-gradient-8" x1="2.41" y1="19.5" x2="18.09" y2="19.5" xlink:href="#linear-gradient"/><linearGradient id="linear-gradient-9" x1="45.91" y1="44.62" x2="61.59" y2="44.62" xlink:href="#linear-gradient"/><linearGradient id="linear-gradient-10" x1="52.6" y1="32.05" x2="61.63" y2="32.05" gradientUnits="userSpaceOnUse"><stop offset="0.44" stop-color="#b96e2b"/><stop offset="1" stop-color="#9e472c"/></linearGradient><linearGradient id="linear-gradient-11" x1="34.32" y1="10.3" x2="54.89" y2="10.3" xlink:href="#linear-gradient-10"/><linearGradient id="linear-gradient-12" x1="9.12" y1="10.16" x2="29.67" y2="10.16" xlink:href="#linear-gradient-10"/><linearGradient id="linear-gradient-13" x1="2.37" y1="32.05" x2="11.4" y2="32.05" xlink:href="#linear-gradient-10"/><linearGradient id="linear-gradient-14" x1="9.11" y1="53.67" x2="29.68" y2="53.67" xlink:href="#linear-gradient-10"/><linearGradient id="linear-gradient-15" x1="34.33" y1="53.81" x2="54.88" y2="53.81" xlink:href="#linear-gradient-10"/><linearGradient id="linear-gradient-16" x1="17.22" y1="41.18" x2="36.14" y2="41.18" xlink:href="#linear-gradient-10"/><linearGradient id="linear-gradient-17" x1="17.2" y1="22.82" x2="36.15" y2="22.82" xlink:href="#linear-gradient-10"/><linearGradient id="linear-gradient-18" x1="38.49" y1="32.03" x2="46.8" y2="32.03" xlink:href="#linear-gradient-10"/></defs><g id="Icons"><path class="cls-1" d="M17.2,38.11a4.18,4.18,0,0,1,.49-1.89,8.79,8.79,0,0,0,1-4.08v-.22a8.7,8.7,0,0,0-1-4.08,4.15,4.15,0,1,1,7.34,0,8.72,8.72,0,0,0-1,4.09v.2a8.7,8.7,0,0,0,1,4.08,4.12,4.12,0,0,1,.49,2,4.16,4.16,0,1,1-8.31-.06Z"/><path class="cls-2" d="M40.51,34.55a4.06,4.06,0,0,0-1.4,1.36,8.56,8.56,0,0,1-3,2.93L35.9,39a8.58,8.58,0,0,1-4,1.15,4.16,4.16,0,1,0,3.67,6.35,8.7,8.7,0,0,1,3-2.94l.17-.1a8.7,8.7,0,0,1,4.05-1.15,4.15,4.15,0,1,0-2.27-7.71Z"/><path class="cls-3" d="M36,25.1l-.53-.3a6.73,6.73,0,0,0-3.42-.9h0a4.15,4.15,0,1,1,3.49-6.38,9.26,9.26,0,0,0,3.14,3l.53.31a6.73,6.73,0,0,0,3.42.9h0a4.15,4.15,0,1,1-3.5,6.38A9.2,9.2,0,0,0,36,25.1Z"/><path class="cls-4" d="M61,23a4.49,4.49,0,0,0-1.48-1.52,9.42,9.42,0,0,1-3.19-3.27L56.17,18a9.43,9.43,0,0,1-1.24-4.4,4.63,4.63,0,0,0-.58-2A4.51,4.51,0,1,0,46.51,16,4.44,4.44,0,0,0,48,17.56a9.45,9.45,0,0,1,3.19,3.28l.11.18a9.63,9.63,0,0,1,1.25,4.41,4.45,4.45,0,0,0,.6,2.09A4.51,4.51,0,1,0,61,23Z"/><path class="cls-5" d="M17.46,48.07A4.55,4.55,0,0,0,16,46.56a9.45,9.45,0,0,1-3.19-3.28l-.12-.21a9.42,9.42,0,0,1-1.24-4.39A4.51,4.51,0,1,0,3,41.1a4.49,4.49,0,0,0,1.52,1.57A9.39,9.39,0,0,1,7.72,46l.11.18a9.56,9.56,0,0,1,1.25,4.4,4.51,4.51,0,1,0,8.38-2.47Z"/><path class="cls-6" d="M38.6,2.43A4.55,4.55,0,0,0,36.55,3a9.4,9.4,0,0,1-4.43,1.12h-.24A9.37,9.37,0,0,1,27.45,3a4.58,4.58,0,0,0-2.05-.52,4.51,4.51,0,1,0-.06,9,4.61,4.61,0,0,0,2.12-.52A9.45,9.45,0,0,1,31.9,9.8h.21a9.56,9.56,0,0,1,4.44,1.12,4.43,4.43,0,0,0,2.11.53,4.51,4.51,0,1,0-.06-9Z"/><path class="cls-7" d="M38.6,52.66a4.42,4.42,0,0,0-2.05.52,9.43,9.43,0,0,1-4.43,1.12h-.24a9.37,9.37,0,0,1-4.43-1.12,4.62,4.62,0,0,0-2.06-.52,4.51,4.51,0,1,0,2.06,8.5A9.49,9.49,0,0,1,31.9,60h.21a9.56,9.56,0,0,1,4.44,1.12,4.43,4.43,0,0,0,2.11.53,4.51,4.51,0,1,0-.06-9Z"/><path class="cls-8" d="M3,23a4.37,4.37,0,0,1,1.48-1.51,9.63,9.63,0,0,0,3.19-3.28L7.83,18a9.43,9.43,0,0,0,1.24-4.4,4.42,4.42,0,0,1,.58-2A4.51,4.51,0,1,1,17.49,16,4.58,4.58,0,0,1,16,17.56a9.57,9.57,0,0,0-3.2,3.28l-.1.19a9.44,9.44,0,0,0-1.25,4.4,4.45,4.45,0,0,1-.6,2.09A4.51,4.51,0,1,1,3,23Z"/><path class="cls-9" d="M46.54,48.07A4.55,4.55,0,0,1,48,46.56a9.54,9.54,0,0,0,3.19-3.28l.12-.2a9.5,9.5,0,0,0,1.24-4.4,4.46,4.46,0,0,1,.58-2,4.51,4.51,0,1,1,6.32,6A9.51,9.51,0,0,0,56.27,46l-.1.18a9.47,9.47,0,0,0-1.25,4.4,4.45,4.45,0,0,1-.6,2.1,4.51,4.51,0,1,1-7.78-4.57Z"/><path class="cls-10" d="M61.63,38.66a4.62,4.62,0,0,0-.52-2.06A9.38,9.38,0,0,1,60,32.17v-.24A9.55,9.55,0,0,1,61.1,27.5a4.42,4.42,0,0,0,.52-2.05,4.51,4.51,0,1,0-9-.06,4.44,4.44,0,0,0,.53,2.12A9.46,9.46,0,0,1,54.26,32v.21a9.38,9.38,0,0,1-1.13,4.43,4.51,4.51,0,1,0,8.5,2.06Z"/><path class="cls-11" d="M52.58,9.69a4.48,4.48,0,0,0-2-.57,9.55,9.55,0,0,1-4.4-1.24l-.21-.12a9.63,9.63,0,0,1-3.28-3.19,4.37,4.37,0,0,0-1.51-1.48,4.51,4.51,0,1,0-4.56,7.79,4.57,4.57,0,0,0,2.1.6,9.36,9.36,0,0,1,4.41,1.25l.18.1A9.54,9.54,0,0,1,46.55,16a4.52,4.52,0,0,0,7.74-.15A4.52,4.52,0,0,0,52.58,9.69Z"/><path class="cls-12" d="M22.85,3a4.55,4.55,0,0,0-1.51,1.48,9.54,9.54,0,0,1-3.28,3.19l-.2.12A9.46,9.46,0,0,1,13.46,9a4.46,4.46,0,0,0-2,.58,4.51,4.51,0,1,0,6,6.32,9.51,9.51,0,0,1,3.29-3.2l.18-.1a9.47,9.47,0,0,1,4.4-1.25,4.45,4.45,0,0,0,2.1-.6A4.51,4.51,0,1,0,22.85,3Z"/><path class="cls-13" d="M2.37,25.45a4.62,4.62,0,0,0,.52,2.06A9.38,9.38,0,0,1,4,31.94v.24A9.55,9.55,0,0,1,2.9,36.61a4.42,4.42,0,0,0-.52,2,4.51,4.51,0,1,0,9,.06,4.44,4.44,0,0,0-.53-2.12,9.46,9.46,0,0,1-1.13-4.45v-.21a9.38,9.38,0,0,1,1.13-4.43,4.51,4.51,0,1,0-8.5-2.06Z"/><path class="cls-14" d="M11.42,54.28a4.48,4.48,0,0,0,2,.57,9.44,9.44,0,0,1,4.4,1.25l.21.12a9.51,9.51,0,0,1,3.28,3.18,4.37,4.37,0,0,0,1.51,1.48,4.51,4.51,0,1,0,2.46-8.39,9.47,9.47,0,0,1-4.41-1.24l-.18-.11A9.45,9.45,0,0,1,17.45,48a4.52,4.52,0,0,0-7.74.15A4.52,4.52,0,0,0,11.42,54.28Z"/><path class="cls-15" d="M41.15,61a4.55,4.55,0,0,0,1.51-1.48,9.54,9.54,0,0,1,3.28-3.19l.2-.12A9.46,9.46,0,0,1,50.54,55a4.46,4.46,0,0,0,2-.58,4.51,4.51,0,1,0-4.46-7.84,4.58,4.58,0,0,0-1.57,1.52,9.42,9.42,0,0,1-3.29,3.2l-.18.1a9.47,9.47,0,0,1-4.4,1.25,4.45,4.45,0,0,0-2.1.6A4.51,4.51,0,1,0,41.15,61Z"/><path class="cls-16" d="M57.11,27.81a2.42,2.42,0,1,1,2.42-2.42A2.42,2.42,0,0,1,57.11,27.81Zm0-3.93a1.52,1.52,0,1,0,1.52,1.51A1.52,1.52,0,0,0,57.11,23.88Z"/><path class="cls-16" d="M57.12,41.14a2.42,2.42,0,1,1,2.42-2.42A2.43,2.43,0,0,1,57.12,41.14Zm0-3.94a1.52,1.52,0,1,0,1.52,1.52A1.52,1.52,0,0,0,57.12,37.2Z"/><path class="cls-16" d="M38.83,9.39A2.41,2.41,0,0,1,36.5,7.6a2.42,2.42,0,1,1,4.43.58h0A2.41,2.41,0,0,1,38.83,9.39Zm0-3.94a1.53,1.53,0,0,0-1.32.76,1.51,1.51,0,0,0,.56,2.07,1.51,1.51,0,1,0,1.51-2.62A1.5,1.5,0,0,0,38.84,5.45Z"/><path class="cls-16" d="M50.37,16.05a2.33,2.33,0,0,1-1.2-.33A2.42,2.42,0,1,1,52.71,13,2.41,2.41,0,0,1,51,16,2.23,2.23,0,0,1,50.37,16.05Zm0-3.94a1.52,1.52,0,0,0-.76,2.83,1.52,1.52,0,0,0,2.07-.55,1.54,1.54,0,0,0-.55-2.08A1.6,1.6,0,0,0,50.38,12.11Z"/><path class="cls-16" d="M13.63,15.91a2.72,2.72,0,0,1-.63-.08,2.42,2.42,0,0,1-1.47-1.13,2.42,2.42,0,0,1,.89-3.3,2.42,2.42,0,0,1,3.3.88A2.41,2.41,0,0,1,16,14.12a2.45,2.45,0,0,1-1.13,1.47A2.42,2.42,0,0,1,13.63,15.91Zm0-3.93a1.43,1.43,0,0,0-.75.2,1.51,1.51,0,0,0-.56,2.07,1.56,1.56,0,0,0,.92.71,1.5,1.5,0,0,0,1.15-.16,1.47,1.47,0,0,0,.71-.92,1.54,1.54,0,0,0-.15-1.15h0A1.48,1.48,0,0,0,14,12,1.37,1.37,0,0,0,13.62,12Z"/><path class="cls-16" d="M25.17,9.24a2.42,2.42,0,1,1,1.2-.32A2.37,2.37,0,0,1,25.17,9.24Zm0-3.93a1.49,1.49,0,0,0-.76.2,1.52,1.52,0,1,0,2.08.56A1.53,1.53,0,0,0,25.16,5.31Z"/><path class="cls-16" d="M6.89,41.14a2.42,2.42,0,1,1,2.42-2.42A2.42,2.42,0,0,1,6.89,41.14Zm0-3.94A1.52,1.52,0,1,0,8.4,38.72,1.52,1.52,0,0,0,6.89,37.2Z"/><path class="cls-16" d="M6.88,27.81A2.42,2.42,0,1,1,9.3,25.39,2.42,2.42,0,0,1,6.88,27.81Zm0-3.93A1.52,1.52,0,1,0,8.4,25.39,1.52,1.52,0,0,0,6.88,23.88Z"/><path class="cls-16" d="M25.16,59.42A2.42,2.42,0,0,1,24,59.1a2.45,2.45,0,0,1-1.13-1.47,2.41,2.41,0,0,1,.24-1.84h0a2.42,2.42,0,0,1,4.43.59,2.42,2.42,0,0,1-1.71,3A2.72,2.72,0,0,1,25.16,59.42Zm0-3.94a1.39,1.39,0,0,0-.4.06,1.5,1.5,0,0,0-.92.7h0a1.51,1.51,0,0,0,.56,2.07,1.5,1.5,0,0,0,1.15.16,1.52,1.52,0,0,0,1.07-1.86,1.49,1.49,0,0,0-.71-.92A1.44,1.44,0,0,0,25.17,55.48Z"/><path class="cls-16" d="M13.62,52.76a2.49,2.49,0,0,1-1.21-.32,2.43,2.43,0,0,1-.88-3.31h0a2.42,2.42,0,0,1,4.19,2.42,2.45,2.45,0,0,1-1.47,1.13A2.27,2.27,0,0,1,13.62,52.76Zm-1.31-3.17a1.52,1.52,0,1,0,2.63,1.51A1.51,1.51,0,0,0,14.38,49a1.51,1.51,0,0,0-2.07.56Z"/><path class="cls-16" d="M50.38,52.9a2.72,2.72,0,0,1-.63-.08,2.42,2.42,0,0,1-1.71-3,2.42,2.42,0,0,1,3-1.71,2.42,2.42,0,0,1,.58,4.43A2.33,2.33,0,0,1,50.38,52.9Zm0-3.94a1.44,1.44,0,0,0-.75.21,1.49,1.49,0,0,0-.71.92,1.54,1.54,0,0,0,.15,1.15,1.52,1.52,0,0,0,2.63-1.52,1.48,1.48,0,0,0-.92-.7A1.39,1.39,0,0,0,50.37,49Z"/><path class="cls-16" d="M38.84,59.57a2.28,2.28,0,0,1-.63-.09,2.4,2.4,0,0,1-1.47-1.12h0a2.42,2.42,0,1,1,3.31.88A2.4,2.4,0,0,1,38.84,59.57Zm-1.32-1.66a1.54,1.54,0,0,0,2.08.55,1.52,1.52,0,0,0-1.52-2.63,1.54,1.54,0,0,0-.56,2.08Z"/><path class="cls-17" d="M23.49,34.55a4.06,4.06,0,0,1,1.4,1.36,8.56,8.56,0,0,0,3,2.93l.19.11a8.58,8.58,0,0,0,4,1.15,4.16,4.16,0,1,1-3.67,6.35,8.7,8.7,0,0,0-3-2.94l-.17-.1a8.7,8.7,0,0,0-4.05-1.15,4.15,4.15,0,1,1,2.27-7.71Z"/><path class="cls-18" d="M28,25.1l.53-.3A6.73,6.73,0,0,1,32,23.9h0a4.15,4.15,0,1,0-3.49-6.38,9.26,9.26,0,0,1-3.14,3l-.53.31a6.73,6.73,0,0,1-3.42.9h-.05a4.15,4.15,0,1,0,3.5,6.38A9.2,9.2,0,0,1,28,25.1Z"/><path class="cls-19" d="M46.8,38.11a4.18,4.18,0,0,0-.49-1.89,8.79,8.79,0,0,1-1-4.08v-.22a8.7,8.7,0,0,1,1-4.08,4.15,4.15,0,1,0-7.34,0,8.72,8.72,0,0,1,1,4.09v.2a8.7,8.7,0,0,1-1,4.08,4.12,4.12,0,0,0-.49,2,4.16,4.16,0,1,0,8.31-.06Z"/><path class="cls-16" d="M42.64,28.19a2.29,2.29,0,1,1,2.29-2.29A2.3,2.3,0,0,1,42.64,28.19Zm0-3.62A1.33,1.33,0,1,0,44,25.9,1.34,1.34,0,0,0,42.64,24.57Z"/><path class="cls-16" d="M42.65,40.46a2.29,2.29,0,1,1,2.29-2.29A2.3,2.3,0,0,1,42.65,40.46Zm0-3.62A1.33,1.33,0,1,0,44,38.17,1.33,1.33,0,0,0,42.65,36.84Z"/><path class="cls-16" d="M32,46.42a2.29,2.29,0,1,1,2.29-2.29A2.3,2.3,0,0,1,32,46.42Zm0-3.62a1.33,1.33,0,1,0,1.33,1.33A1.34,1.34,0,0,0,32,42.8Z"/><path class="cls-16" d="M32,22a2.29,2.29,0,1,1,2.29-2.29A2.3,2.3,0,0,1,32,22Zm0-3.62a1.33,1.33,0,1,0,1.33,1.33A1.33,1.33,0,0,0,32,18.42Z"/><path class="cls-16" d="M21.35,28.19a2.29,2.29,0,1,1,2.3-2.29A2.3,2.3,0,0,1,21.35,28.19Zm0-3.62a1.33,1.33,0,1,0,1.34,1.33A1.34,1.34,0,0,0,21.35,24.57Z"/><path class="cls-16" d="M21.36,40.46a2.29,2.29,0,1,1,2.29-2.29A2.3,2.3,0,0,1,21.36,40.46Zm0-3.62a1.33,1.33,0,1,0,1.33,1.33A1.33,1.33,0,0,0,21.36,36.84Z"/></g></svg>