<svg xmlns="http://www.w3.org/2000/svg" xmlns:xlink="http://www.w3.org/1999/xlink" viewBox="0 0 64 64"><defs><style>.cls-1{fill:#f08300;}.cls-2{fill:#e36302;}.cls-3{fill:url(#linear-gradient);}.cls-4{fill:url(#linear-gradient-2);}.cls-5{fill:#f0a822;}.cls-6{fill:url(#linear-gradient-3);}.cls-7{fill:url(#linear-gradient-4);}.cls-8{fill:url(#linear-gradient-5);}.cls-9{fill:url(#linear-gradient-6);}.cls-10{fill:url(#linear-gradient-7);}.cls-11{fill:url(#linear-gradient-8);}.cls-12{fill:url(#linear-gradient-9);}.cls-13{fill:url(#linear-gradient-10);}.cls-14{fill:none;}.cls-15{fill:url(#linear-gradient-11);}.cls-16{fill:url(#linear-gradient-12);}</style><linearGradient id="linear-gradient" x1="15.87" y1="15.94" x2="48" y2="48.06" gradientUnits="userSpaceOnUse"><stop offset="0" stop-color="#6c301e"/><stop offset="0.5" stop-color="#4f1a1e"/><stop offset="1" stop-color="#6c301e"/></linearGradient><linearGradient id="linear-gradient-2" x1="10.88" y1="53.08" x2="52.96" y2="11" gradientUnits="userSpaceOnUse"><stop offset="0.27" stop-color="#f0a400"/><stop offset="0.55" stop-color="#e36302"/><stop offset="0.91" stop-color="#f0a400"/></linearGradient><linearGradient id="linear-gradient-3" x1="31.98" y1="32.91" x2="54.33" y2="32.91" gradientUnits="userSpaceOnUse"><stop offset="0" stop-color="#f0a400"/><stop offset="0.23" stop-color="#ef9f00"/><stop offset="0.5" stop-color="#ec9201"/><stop offset="0.77" stop-color="#e87c01"/><stop offset="1" stop-color="#e36302"/></linearGradient><linearGradient id="linear-gradient-4" x1="36.71" y1="33.63" x2="44.21" y2="12.62" gradientUnits="userSpaceOnUse"><stop offset="0.26" stop-color="#f0a400"/><stop offset="0.44" stop-color="#ef9f00"/><stop offset="0.63" stop-color="#ec9201"/><stop offset="0.83" stop-color="#e87c01"/><stop offset="1" stop-color="#e36302"/></linearGradient><linearGradient id="linear-gradient-5" x1="41.04" y1="29.82" x2="45.94" y2="42.47" xlink:href="#linear-gradient-3"/><linearGradient id="linear-gradient-6" x1="20.03" y1="32.63" x2="10.81" y2="36.37" xlink:href="#linear-gradient-3"/><linearGradient id="linear-gradient-7" x1="26.1" y1="27.55" x2="16.31" y2="14.82" xlink:href="#linear-gradient-3"/><linearGradient id="linear-gradient-8" x1="27.04" y1="32.64" x2="8.27" y2="43.6" xlink:href="#linear-gradient-3"/><linearGradient id="linear-gradient-9" x1="24.21" y1="24.26" x2="30.39" y2="18.08" xlink:href="#linear-gradient-3"/><linearGradient id="linear-gradient-10" x1="36.64" y1="20.31" x2="41.01" y2="12.76" gradientUnits="userSpaceOnUse"><stop offset="0" stop-color="#f0a400"/><stop offset="0.22" stop-color="#ef9f00"/><stop offset="0.46" stop-color="#ec9201"/><stop offset="0.72" stop-color="#e87c01"/><stop offset="0.93" stop-color="#e36302"/></linearGradient><linearGradient id="linear-gradient-11" x1="31.97" y1="43.25" x2="39.5" y2="43.25" xlink:href="#linear-gradient-3"/><linearGradient id="linear-gradient-12" x1="33.79" y1="43.72" x2="23.99" y2="42.07" xlink:href="#linear-gradient-3"/></defs><g id="Icons"><path class="cls-1" d="M63.46,34.12l-1.18-.31a1.66,1.66,0,0,1-1-1.7h-.13v-.22h.13a1.66,1.66,0,0,1,1-1.7l1.18-.31a.92.92,0,0,0,.51-1c0-.5-.36-.89-.7-.91l-1.21-.07a1.24,1.24,0,0,1-.84-.45,2,2,0,0,1-.5-1l-.12,0c0-.07,0-.14,0-.21l.12,0a2.16,2.16,0,0,1,.06-1.14,1.24,1.24,0,0,1,.61-.74l1.09-.52a1,1,0,0,0,.31-1.11,1.15,1.15,0,0,0-.37-.58.66.66,0,0,0-.5-.18l-1.2.17a1.17,1.17,0,0,1-.91-.28,2,2,0,0,1-.69-.91L59,21c0-.07-.05-.14-.08-.2L59,20.7a2.08,2.08,0,0,1-.17-1.13,1.24,1.24,0,0,1,.46-.84l1-.73a.93.93,0,0,0,.08-1.15,1.17,1.17,0,0,0-.47-.49.68.68,0,0,0-.53-.08l-1.14.4a1.23,1.23,0,0,1-.95-.09,2,2,0,0,1-.85-.76l-.11.07a1.88,1.88,0,0,0-.12-.18l.11-.07a2,2,0,0,1-.38-1.07,1.43,1.43,0,0,1,.06-.51,1,1,0,0,1,.22-.41l.8-.9a.93.93,0,0,0-.14-1.14.91.91,0,0,0-1.09-.36c-.35.2-.7.4-1,.61a1,1,0,0,1-.45.14H54l-.25,0a2,2,0,0,1-1-.58l-.09.09-.16-.16.09-.09a2,2,0,0,1-.58-1A2.17,2.17,0,0,1,52,10a1,1,0,0,1,0-.25,1,1,0,0,1,.14-.45c.21-.34.41-.69.61-1a.91.91,0,0,0-.36-1.09A.93.93,0,0,0,51.24,7l-.9.8a1,1,0,0,1-.41.22,1.43,1.43,0,0,1-.51.06,2,2,0,0,1-1.07-.38l-.07.11-.18-.12.07-.11a2,2,0,0,1-.76-.85,1.23,1.23,0,0,1-.09-1l.4-1.14a.68.68,0,0,0-.08-.53,1.17,1.17,0,0,0-.49-.47A.93.93,0,0,0,46,3.75l-.73,1a1.24,1.24,0,0,1-.84.46A2.08,2.08,0,0,1,43.3,5l0,.12L43.05,5l.05-.12a2,2,0,0,1-.91-.69,1.17,1.17,0,0,1-.28-.91c.06-.4.12-.8.17-1.2a.66.66,0,0,0-.18-.5,1.15,1.15,0,0,0-.58-.37,1,1,0,0,0-1.11.31c-.17.36-.35.72-.52,1.09a1.24,1.24,0,0,1-.74.61,2.16,2.16,0,0,1-1.14.06l0,.12-.21,0,0-.12a2,2,0,0,1-1-.5,1.24,1.24,0,0,1-.45-.84c0-.4,0-.8-.07-1.21s-.41-.65-.91-.7a.92.92,0,0,0-1,.51c-.11.4-.21.79-.31,1.18a1.66,1.66,0,0,1-1.7,1v.13h-.22V2.74a1.66,1.66,0,0,1-1.7-1c-.1-.39-.2-.78-.31-1.18a.92.92,0,0,0-1-.51c-.5.05-.89.36-.91.7s-.05.81-.07,1.21a1.24,1.24,0,0,1-.45.84,2,2,0,0,1-1,.5l0,.12-.21,0,0-.12a2.16,2.16,0,0,1-1.14-.06,1.24,1.24,0,0,1-.74-.61c-.17-.37-.35-.73-.52-1.09a1,1,0,0,0-1.11-.31,1.15,1.15,0,0,0-.58.37.66.66,0,0,0-.18.5c0,.4.11.8.17,1.2a1.17,1.17,0,0,1-.28.91,2,2,0,0,1-.91.69L21,5l-.2.08L20.7,5a2.08,2.08,0,0,1-1.13.17,1.24,1.24,0,0,1-.84-.46l-.73-1a.93.93,0,0,0-1.15-.08,1.17,1.17,0,0,0-.49.47.68.68,0,0,0-.08.53l.4,1.14a1.23,1.23,0,0,1-.09,1,2,2,0,0,1-.76.85l.07.11a1.88,1.88,0,0,0-.18.12l-.07-.11a2,2,0,0,1-1.07.38,1.43,1.43,0,0,1-.51-.06,1,1,0,0,1-.41-.22l-.9-.8a.93.93,0,0,0-1.14.14.91.91,0,0,0-.36,1.09c.2.35.4.7.61,1a1,1,0,0,1,.14.45A1,1,0,0,1,12,10a2.17,2.17,0,0,1,0,.25,2,2,0,0,1-.58,1l.09.09-.16.16-.09-.09a2,2,0,0,1-1,.58L10,12H9.75a1,1,0,0,1-.45-.14c-.34-.21-.69-.41-1-.61a.91.91,0,0,0-1.09.36A.93.93,0,0,0,7,12.76l.8.9a1,1,0,0,1,.22.41,1.43,1.43,0,0,1,.06.51,2,2,0,0,1-.38,1.07l.11.07a1.88,1.88,0,0,0-.12.18l-.11-.07a2,2,0,0,1-.85.76,1.23,1.23,0,0,1-1,.09l-1.14-.4a.68.68,0,0,0-.53.08,1.17,1.17,0,0,0-.47.49A.93.93,0,0,0,3.75,18l1,.73a1.24,1.24,0,0,1,.46.84A2.08,2.08,0,0,1,5,20.7l.12.05c0,.06,0,.13-.08.2l-.12-.05a2,2,0,0,1-.69.91,1.17,1.17,0,0,1-.91.28l-1.2-.17a.66.66,0,0,0-.5.18,1.15,1.15,0,0,0-.37.58,1,1,0,0,0,.31,1.11l1.09.52a1.24,1.24,0,0,1,.61.74,2.16,2.16,0,0,1,.06,1.14l.12,0c0,.07,0,.14,0,.21l-.12,0a2,2,0,0,1-.5,1,1.24,1.24,0,0,1-.84.45L.73,28c-.34,0-.65.41-.7.91a.92.92,0,0,0,.51,1l1.18.31a1.66,1.66,0,0,1,1,1.7h.13v.22H2.74a1.66,1.66,0,0,1-1,1.7l-1.18.31a.92.92,0,0,0-.51,1c.05.5.36.89.7.91l1.21.07a1.24,1.24,0,0,1,.84.45,2,2,0,0,1,.5,1l.12,0c0,.07,0,.14,0,.21l-.12,0A2.16,2.16,0,0,1,3.26,39a1.24,1.24,0,0,1-.61.74l-1.09.52a1,1,0,0,0-.31,1.11,1.15,1.15,0,0,0,.37.58.66.66,0,0,0,.5.18l1.2-.17a1.17,1.17,0,0,1,.91.28,2,2,0,0,1,.69.91L5,43.05c0,.07,0,.14.08.2L5,43.3a2.08,2.08,0,0,1,.17,1.13,1.24,1.24,0,0,1-.46.84l-1,.73a.93.93,0,0,0-.08,1.15,1.17,1.17,0,0,0,.47.49.68.68,0,0,0,.53.08l1.14-.4a1.23,1.23,0,0,1,1,.09,2,2,0,0,1,.85.76l.11-.07a1.88,1.88,0,0,0,.12.18l-.11.07a2,2,0,0,1,.38,1.07,1.43,1.43,0,0,1-.06.51,1,1,0,0,1-.22.41l-.8.9a.93.93,0,0,0,.14,1.14.91.91,0,0,0,1.09.36c.35-.2.7-.4,1-.61A1,1,0,0,1,9.75,52,1,1,0,0,1,10,52l.25,0a2,2,0,0,1,1,.58l.09-.09.16.16-.09.09a2,2,0,0,1,.58,1A2.17,2.17,0,0,1,12,54a1,1,0,0,1,0,.25,1,1,0,0,1-.14.45c-.21.34-.41.69-.61,1a.91.91,0,0,0,.36,1.09.93.93,0,0,0,1.14.14l.9-.8a1,1,0,0,1,.41-.22,1.43,1.43,0,0,1,.51-.06,2,2,0,0,1,1.07.38l.07-.11a1.88,1.88,0,0,0,.18.12l-.07.11a2,2,0,0,1,.76.85,1.23,1.23,0,0,1,.09.95l-.4,1.14a.68.68,0,0,0,.08.53,1.17,1.17,0,0,0,.49.47A.93.93,0,0,0,18,60.25l.73-1a1.24,1.24,0,0,1,.84-.46A2.08,2.08,0,0,1,20.7,59l.05-.12L21,59l-.05.12a2,2,0,0,1,.91.69,1.17,1.17,0,0,1,.28.91c-.06.4-.12.8-.17,1.2a.66.66,0,0,0,.18.5,1.07,1.07,0,0,0,.58.36.94.94,0,0,0,1.11-.3c.17-.36.35-.72.52-1.09a1.24,1.24,0,0,1,.74-.61,2.16,2.16,0,0,1,1.14-.06l0-.12.21,0,0,.12a2,2,0,0,1,1,.5,1.24,1.24,0,0,1,.45.84c0,.4,0,.8.07,1.21s.41.65.91.7a.91.91,0,0,0,1-.52c.11-.39.21-.78.31-1.17a1.66,1.66,0,0,1,1.7-1v-.13h.22v.13a1.66,1.66,0,0,1,1.7,1c.1.39.2.78.31,1.17a.91.91,0,0,0,1,.52c.5,0,.89-.36.91-.7s.05-.81.07-1.21a1.24,1.24,0,0,1,.45-.84,2,2,0,0,1,1-.5l0-.12.21,0,0,.12a2.16,2.16,0,0,1,1.14.06,1.24,1.24,0,0,1,.74.61c.17.37.35.73.52,1.09a1,1,0,0,0,1.11.31,1.15,1.15,0,0,0,.58-.37.66.66,0,0,0,.18-.5c0-.4-.11-.8-.17-1.2a1.17,1.17,0,0,1,.28-.91,2,2,0,0,1,.91-.69L43.05,59l.2-.08,0,.12a2.08,2.08,0,0,1,1.13-.17,1.24,1.24,0,0,1,.84.46l.73,1a.93.93,0,0,0,1.15.08,1.17,1.17,0,0,0,.49-.47.68.68,0,0,0,.08-.53l-.4-1.14a1.23,1.23,0,0,1,.09-.95,2,2,0,0,1,.76-.85l-.07-.11.18-.12.07.11a2,2,0,0,1,1.07-.38,1.43,1.43,0,0,1,.51.06,1,1,0,0,1,.41.22l.9.8a.93.93,0,0,0,1.14-.14.91.91,0,0,0,.36-1.09c-.2-.35-.4-.7-.61-1a1,1,0,0,1-.14-.45A1,1,0,0,1,52,54a2.17,2.17,0,0,1,0-.25,2,2,0,0,1,.58-1l-.09-.09.16-.16.09.09a2,2,0,0,1,1-.58L54,52a1,1,0,0,1,.25,0,1,1,0,0,1,.45.14c.34.21.69.41,1,.61a.91.91,0,0,0,1.09-.36A.93.93,0,0,0,57,51.24l-.8-.9a1,1,0,0,1-.22-.41,1.43,1.43,0,0,1-.06-.51,2,2,0,0,1,.38-1.07l-.11-.07a1.88,1.88,0,0,0,.12-.18l.11.07a2,2,0,0,1,.85-.76,1.23,1.23,0,0,1,.95-.09l1.14.4a.68.68,0,0,0,.53-.08,1.17,1.17,0,0,0,.47-.49A.93.93,0,0,0,60.25,46l-1-.73a1.24,1.24,0,0,1-.46-.84A2.08,2.08,0,0,1,59,43.3l-.12,0c0-.06,0-.13.08-.2l.12.05a2,2,0,0,1,.69-.91,1.17,1.17,0,0,1,.91-.28l1.2.17a.66.66,0,0,0,.5-.18,1.15,1.15,0,0,0,.37-.58,1,1,0,0,0-.31-1.11l-1.09-.52a1.24,1.24,0,0,1-.61-.74,2.16,2.16,0,0,1-.06-1.14l-.12,0c0-.07,0-.14,0-.21l.12,0a2,2,0,0,1,.5-1,1.24,1.24,0,0,1,.84-.45l1.21-.07c.34,0,.65-.41.7-.91A.92.92,0,0,0,63.46,34.12Z"/><circle class="cls-2" cx="31.9" cy="32" r="25.17"/><path class="cls-3" d="M54.13,34.07l-1.08-.31a1.14,1.14,0,0,1-.68-.6,2,2,0,0,1-.25-1.06h-.24v-.2h.24a2,2,0,0,1,.25-1.06,1.14,1.14,0,0,1,.68-.6l1.08-.31a.58.58,0,0,0,.36-.36,1.32,1.32,0,0,0,.08-.67,1.89,1.89,0,0,0-.09-.34,1,1,0,0,0-.16-.27.6.6,0,0,0-.45-.25l-1.13,0a1.17,1.17,0,0,1-.81-.39,1.53,1.53,0,0,1-.31-.43A1.15,1.15,0,0,1,51.5,27a2.31,2.31,0,0,1-.1-.28l-.21.06,0-.2.2-.06a2.8,2.8,0,0,1-.08-.56,1.84,1.84,0,0,1,0-.53,1.17,1.17,0,0,1,.5-.75l1-.6a.62.62,0,0,0,.25-.45,1.22,1.22,0,0,0-.1-.66c-.21-.45-.59-.73-.91-.65l-1.09.29a1.15,1.15,0,0,1-.89-.15,2.46,2.46,0,0,1-.42-.32,2.07,2.07,0,0,1-.35-.46l-.17.11-.1-.18.16-.1a3,3,0,0,1-.24-.52,2.61,2.61,0,0,1-.06-.27,1.07,1.07,0,0,1,0-.25,1.15,1.15,0,0,1,.27-.86l.76-.84a.9.9,0,0,0-.16-1.1.92.92,0,0,0-1.05-.38l-1,.58a1.19,1.19,0,0,1-.9.09,2,2,0,0,1-.48-.2,2.16,2.16,0,0,1-.47-.34l-.11.13-.16-.14.12-.13a2.54,2.54,0,0,1-.37-.44,1.86,1.86,0,0,1-.23-.47,1.21,1.21,0,0,1,0-.9l.51-1a.61.61,0,0,0,0-.51,1.35,1.35,0,0,0-.43-.51A.9.9,0,0,0,44,13.31l-.78.81a.91.91,0,0,1-.37.24.86.86,0,0,1-.23.06l-.24,0a1.63,1.63,0,0,1-.53-.06l-.26-.09-.27-.11-.07.14-.19-.1.07-.14a2.59,2.59,0,0,1-.47-.32,1.82,1.82,0,0,1-.35-.39,1.22,1.22,0,0,1-.22-.88c.08-.37.15-.74.22-1.11a.58.58,0,0,0-.16-.48,1.13,1.13,0,0,0-.55-.38.9.9,0,0,0-1.09.22l-.54,1a1.16,1.16,0,0,1-.72.54,2.09,2.09,0,0,1-.52.09,2.31,2.31,0,0,1-.57-.06l0,.14-.2,0,0-.14a2.22,2.22,0,0,1-1-.46,1.18,1.18,0,0,1-.44-.78c0-.38-.06-.76-.1-1.13a.6.6,0,0,0-.28-.43,1.31,1.31,0,0,0-.63-.21,2,2,0,0,0-.35,0,.89.89,0,0,0-.3.11.6.6,0,0,0-.34.38l-.24,1.1a1.2,1.2,0,0,1-.55.72,1.84,1.84,0,0,1-.47.22,2.13,2.13,0,0,1-.57.1v.13h-.2v-.12a2.24,2.24,0,0,1-.58,0,1.94,1.94,0,0,1-.5-.15,1.21,1.21,0,0,1-.64-.64c-.12-.36-.25-.71-.39-1.06s-.56-.46-1.05-.37-.84.43-.82.76l.06,1.12a1.17,1.17,0,0,1-.33.84,1.73,1.73,0,0,1-.41.34,2,2,0,0,1-.51.26l0,.11-.2.07,0-.11a2.16,2.16,0,0,1-1.08.11,1.15,1.15,0,0,1-.79-.43l-.66-.92a.66.66,0,0,0-.47-.22,1.32,1.32,0,0,0-.64.15c-.45.23-.69.65-.59,1s.24.72.37,1.07a1.25,1.25,0,0,1-.1.9,2,2,0,0,1-.29.44l-.2.19a2.11,2.11,0,0,1-.23.19l.07.09-.17.12-.07-.09a2.17,2.17,0,0,1-1,.4,1.52,1.52,0,0,1-.48,0,1.14,1.14,0,0,1-.4-.19l-.88-.7A.6.6,0,0,0,17,15a.88.88,0,0,0-.3.1,1.94,1.94,0,0,0-.29.21,1.34,1.34,0,0,0-.36.56.67.67,0,0,0,.05.51c.22.31.43.63.65.93a1.16,1.16,0,0,1,.14.89,2,2,0,0,1-.47,1l.09.08a1.83,1.83,0,0,1-.13.16l-.09-.07a2.21,2.21,0,0,1-.86.66,1.2,1.2,0,0,1-.91,0l-1-.44c-.3-.12-.72.1-1,.52a.9.9,0,0,0,0,1.11c.28.25.57.49.86.73a1.14,1.14,0,0,1,.39.81,2.44,2.44,0,0,1-.19,1.08l.11.05a1.54,1.54,0,0,1-.08.19l-.12-.05a2.08,2.08,0,0,1-.65.87,1.16,1.16,0,0,1-.86.28l-1.12-.14a.61.61,0,0,0-.48.19,1.3,1.3,0,0,0-.33.58.88.88,0,0,0,.3,1.07l1,.46a1,1,0,0,1,.35.27c0,.06.09.12.13.19a1.63,1.63,0,0,1,.11.23,2,2,0,0,1,.12.51,2.21,2.21,0,0,1,0,.57l.14,0,0,.21-.13,0a2.48,2.48,0,0,1-.15.55,1.69,1.69,0,0,1-.25.46,1.17,1.17,0,0,1-.75.5l-1.12.17c-.32.05-.56.46-.57.95s.25.9.57,1l1.12.17a1.17,1.17,0,0,1,.75.5,1.69,1.69,0,0,1,.25.46,2.48,2.48,0,0,1,.15.55l.15,0,0,.21-.16,0a2.21,2.21,0,0,1,0,.57,2,2,0,0,1-.12.51,1.63,1.63,0,0,1-.11.23c0,.07-.09.13-.13.19a1,1,0,0,1-.35.27l-1,.46a.88.88,0,0,0-.3,1.07,1.3,1.3,0,0,0,.33.58.61.61,0,0,0,.48.19L12,38.77a1.16,1.16,0,0,1,.86.28,2.08,2.08,0,0,1,.65.87l.17-.07c0,.06.05.13.08.19l-.16.07a2.44,2.44,0,0,1,.19,1.08,1.14,1.14,0,0,1-.39.81c-.29.24-.58.48-.86.73a.9.9,0,0,0,0,1.11c.27.42.69.64,1,.52l1-.44a1.2,1.2,0,0,1,.91,0,2.21,2.21,0,0,1,.86.66l.16-.12a1.83,1.83,0,0,0,.13.16l-.16.13a2,2,0,0,1,.47,1,1.16,1.16,0,0,1-.14.89c-.22.3-.43.62-.65.93a.67.67,0,0,0-.05.51,1.34,1.34,0,0,0,.36.56,1.94,1.94,0,0,0,.29.21,1.18,1.18,0,0,0,.3.1.6.6,0,0,0,.5-.08l.88-.7a1.14,1.14,0,0,1,.4-.19,1.52,1.52,0,0,1,.48,0,2.17,2.17,0,0,1,1,.4l.13-.17.17.11-.13.18a2.11,2.11,0,0,1,.23.19l.2.19a2,2,0,0,1,.29.44,1.25,1.25,0,0,1,.1.9c-.13.35-.25.71-.37,1.07s.14.72.59.95a1.32,1.32,0,0,0,.64.15.66.66,0,0,0,.47-.22l.66-.92a1.15,1.15,0,0,1,.79-.43,2.16,2.16,0,0,1,1.08.11l.08-.22.2.07-.08.22a2,2,0,0,1,.51.26,1.73,1.73,0,0,1,.41.34,1.17,1.17,0,0,1,.33.84l-.06,1.12c0,.33.33.65.82.76s.94-.07,1.05-.37.27-.7.39-1.06a1.21,1.21,0,0,1,.64-.64,1.94,1.94,0,0,1,.5-.15,2.24,2.24,0,0,1,.58,0v-.25h.21l0,.26a2.13,2.13,0,0,1,.57.1,1.84,1.84,0,0,1,.47.22,1.2,1.2,0,0,1,.55.72l.24,1.1a.6.6,0,0,0,.34.38.89.89,0,0,0,.3.11,2,2,0,0,0,.35,0,1.31,1.31,0,0,0,.63-.21.6.6,0,0,0,.28-.43c0-.37.07-.75.1-1.13a1.18,1.18,0,0,1,.44-.78,2.22,2.22,0,0,1,1-.46l-.05-.26.2,0,0,.26a2.31,2.31,0,0,1,.57-.06,2.09,2.09,0,0,1,.52.09,1.16,1.16,0,0,1,.72.54l.54,1a.9.9,0,0,0,1.09.22,1.13,1.13,0,0,0,.55-.38.58.58,0,0,0,.16-.48c-.07-.37-.14-.74-.22-1.11a1.22,1.22,0,0,1,.22-.88,1.82,1.82,0,0,1,.35-.39,2.59,2.59,0,0,1,.47-.32L41,49.67l.19-.09.12.23.27-.11.26-.09a1.63,1.63,0,0,1,.53-.06l.24,0a.86.86,0,0,1,.23.06.91.91,0,0,1,.37.24l.78.81a.9.9,0,0,0,1.11-.08,1.28,1.28,0,0,0,.43-.51.61.61,0,0,0,0-.51l-.51-1a1.21,1.21,0,0,1,0-.9,1.86,1.86,0,0,1,.23-.47,2.54,2.54,0,0,1,.37-.44l-.18-.2.15-.14.18.2a2.16,2.16,0,0,1,.47-.34,2,2,0,0,1,.48-.2,1.19,1.19,0,0,1,.9.09l1,.58a.92.92,0,0,0,1.05-.38.9.9,0,0,0,.16-1.1l-.76-.84a1.15,1.15,0,0,1-.27-.86,1.07,1.07,0,0,1,0-.25,2.61,2.61,0,0,1,.06-.27,3,3,0,0,1,.24-.52l-.22-.13.11-.18.22.14a2.07,2.07,0,0,1,.35-.46,2.46,2.46,0,0,1,.42-.32,1.15,1.15,0,0,1,.89-.15l1.09.29c.32.08.7-.2.91-.65a1.22,1.22,0,0,0,.1-.66.62.62,0,0,0-.25-.45l-1-.6a1.17,1.17,0,0,1-.5-.75,1.84,1.84,0,0,1,0-.53,2.8,2.8,0,0,1,.08-.56l-.24-.07.06-.2.24.07a2.31,2.31,0,0,1,.1-.28,1.15,1.15,0,0,1,.12-.25,1.53,1.53,0,0,1,.31-.43,1.17,1.17,0,0,1,.81-.39l1.13,0a.6.6,0,0,0,.45-.25,1,1,0,0,0,.16-.27,1.89,1.89,0,0,0,.09-.34,1.32,1.32,0,0,0-.08-.67A.58.58,0,0,0,54.13,34.07ZM32,48.62A16.62,16.62,0,1,1,48.62,32,16.62,16.62,0,0,1,32,48.62Z"/><path class="cls-4" d="M61.66,32A29.7,29.7,0,0,0,32,2.3c-.51,0-1,0-1.54,0l-.33,0-.38,0-.6.05H29A29.75,29.75,0,1,0,61.66,32v0Zm-35,21.85v-.09a22.37,22.37,0,0,1-17-21.15c0-.19,0-.39,0-.58A22.37,22.37,0,0,1,48.11,16.54a22,22,0,0,1,3.4,4.6l0,0c.08.13.15.27.22.4l0,.1L52,22l.07.16.15.29a1.47,1.47,0,0,0,.1.22c0,.08.07.16.11.25l.12.27a1.67,1.67,0,0,1,.08.2c0,.11.09.22.14.32l.06.17.14.36c0,.05,0,.09,0,.13l.14.41,0,.09.15.46,0,.05.15.5v0A22.52,22.52,0,0,1,54.34,32c0,.16,0,.32,0,.48A22.32,22.32,0,0,1,37.26,53.77v.06a22.52,22.52,0,0,1-5.35.64A22.81,22.81,0,0,1,26.65,53.85Z"/><rect class="cls-5" x="31.96" y="32" height="0.03"/><polygon class="cls-5" points="31.97 32.03 31.98 32.03 31.98 32.02 31.97 32.03"/><path class="cls-6" d="M32,32h0l21.79,5a22.14,22.14,0,0,0,.56-4.56,1.32,1.32,0,0,1-1.54.79l-8.44-2a4.59,4.59,0,0,1-3.1-2.53L32,32Z"/><polygon class="cls-5" points="32 31.98 31.95 32 31.98 32.02 32 31.98"/><path class="cls-7" d="M41.25,28.74a4.61,4.61,0,0,1,.36-4.54L46.45,17a1.33,1.33,0,0,1,1.66-.47,22.7,22.7,0,0,0-3.73-3.12L32,32Z"/><polygon class="cls-5" points="31.91 32.04 31.97 32.03 31.95 32 31.91 32.04"/><path class="cls-8" d="M32,32l7.52,7.56a4.59,4.59,0,0,1,4.17-1.05L52.6,40.7a22.17,22.17,0,0,0,1.17-3.62Z"/><path class="cls-9" d="M32,32h0l-9.26-3.25a4.57,4.57,0,0,1-3.09,2.52l-8.47,2.05a1.35,1.35,0,0,1-1.52-.71,22.59,22.59,0,0,0,.57,4.47l21.73-5Z"/><path class="cls-10" d="M19.57,13.42a22,22,0,0,0-3.67,3.06,1.34,1.34,0,0,1,1.58.5l4.87,7.22a4.6,4.6,0,0,1,.34,4.55L32,32Z"/><path class="cls-11" d="M10.18,37.08a22.17,22.17,0,0,0,1.17,3.62l8.89-2.15a4.6,4.6,0,0,1,4.16,1L31.91,32Z"/><path class="cls-12" d="M28.15,19.88l-4.68-6.94a1.33,1.33,0,0,1,.12-1.65,21.74,21.74,0,0,0-4,2.13L32,32V21.92A4.58,4.58,0,0,1,28.15,19.88Z"/><path class="cls-13" d="M40.33,11.28A1.34,1.34,0,0,1,40.48,13l-4.67,6.93a4.6,4.6,0,0,1-3.84,2h0V32L44.38,13.42A21.45,21.45,0,0,0,40.33,11.28Z"/><path class="cls-14" d="M37.26,53.77A22.32,22.32,0,0,0,54.33,32.52c0-.16,0-.33,0-.49A22.37,22.37,0,0,0,9.6,32c0,.19,0,.39,0,.58a22.37,22.37,0,0,0,17,21.15A22.79,22.79,0,0,0,32,54.4,22.53,22.53,0,0,0,37.26,53.77Z"/><path class="cls-15" d="M32,32V54.47a23.07,23.07,0,0,0,5.29-.64v-.06l.71-11a4.55,4.55,0,0,1,1.53-3.14L32,32Z"/><path class="cls-16" d="M24.4,39.59a4.6,4.6,0,0,1,1.54,3.15l.71,11v.09a22.81,22.81,0,0,0,5.26.62H32V32h-.06Z"/></g></svg>